G04*
G04 #@! TF.GenerationSoftware,Altium Limited,Altium Designer,25.6.2 (33)*
G04*
G04 Layer_Physical_Order=1*
G04 Layer_Color=255*
%FSLAX44Y44*%
%MOMM*%
G71*
G04*
G04 #@! TF.SameCoordinates,B66254A1-9C9F-40BD-847D-07FD7BB7023C*
G04*
G04*
G04 #@! TF.FilePolarity,Positive*
G04*
G01*
G75*
%ADD14C,0.2540*%
%ADD18R,0.9000X1.2000*%
%ADD19R,1.2000X0.9000*%
%ADD20R,1.2581X1.0121*%
%ADD21R,1.0121X1.2581*%
G04:AMPARAMS|DCode=22|XSize=1.5052mm|YSize=0.4549mm|CornerRadius=0.2275mm|HoleSize=0mm|Usage=FLASHONLY|Rotation=180.000|XOffset=0mm|YOffset=0mm|HoleType=Round|Shape=RoundedRectangle|*
%AMROUNDEDRECTD22*
21,1,1.5052,0.0000,0,0,180.0*
21,1,1.0503,0.4549,0,0,180.0*
1,1,0.4549,-0.5252,0.0000*
1,1,0.4549,0.5252,0.0000*
1,1,0.4549,0.5252,0.0000*
1,1,0.4549,-0.5252,0.0000*
%
%ADD22ROUNDEDRECTD22*%
%ADD23R,1.8692X0.5421*%
%ADD24R,0.8000X0.8000*%
%ADD25R,2.7042X1.4526*%
%ADD26R,1.4526X2.7042*%
%ADD27R,0.5842X1.0414*%
%ADD28C,1.5240*%
G04:AMPARAMS|DCode=29|XSize=1.0587mm|YSize=0.5468mm|CornerRadius=0.2734mm|HoleSize=0mm|Usage=FLASHONLY|Rotation=180.000|XOffset=0mm|YOffset=0mm|HoleType=Round|Shape=RoundedRectangle|*
%AMROUNDEDRECTD29*
21,1,1.0587,0.0000,0,0,180.0*
21,1,0.5119,0.5468,0,0,180.0*
1,1,0.5468,-0.2559,0.0000*
1,1,0.5468,0.2559,0.0000*
1,1,0.5468,0.2559,0.0000*
1,1,0.5468,-0.2559,0.0000*
%
%ADD29ROUNDEDRECTD29*%
%ADD30R,1.3562X1.1046*%
%ADD31R,1.3000X1.4000*%
%ADD32R,0.8500X0.8500*%
%ADD33R,1.0000X1.4000*%
G04:AMPARAMS|DCode=34|XSize=1.8692mm|YSize=0.5421mm|CornerRadius=0.2711mm|HoleSize=0mm|Usage=FLASHONLY|Rotation=180.000|XOffset=0mm|YOffset=0mm|HoleType=Round|Shape=RoundedRectangle|*
%AMROUNDEDRECTD34*
21,1,1.8692,0.0000,0,0,180.0*
21,1,1.3270,0.5421,0,0,180.0*
1,1,0.5421,-0.6635,0.0000*
1,1,0.5421,0.6635,0.0000*
1,1,0.5421,0.6635,0.0000*
1,1,0.5421,-0.6635,0.0000*
%
%ADD34ROUNDEDRECTD34*%
%ADD35R,1.0587X0.5468*%
%ADD36R,1.5052X0.4549*%
%ADD37R,1.4000X1.0000*%
%ADD58C,0.3810*%
%ADD59C,0.5080*%
%ADD60R,1.6050X1.6050*%
%ADD61C,2.2500*%
%ADD62C,1.6500*%
%ADD63C,1.3580*%
%ADD64R,1.3580X1.3580*%
%ADD65R,2.7432X2.7432*%
%ADD66C,2.7432*%
%ADD67C,3.2000*%
G04:AMPARAMS|DCode=68|XSize=1.6mm|YSize=1.6mm|CornerRadius=0.4mm|HoleSize=0mm|Usage=FLASHONLY|Rotation=270.000|XOffset=0mm|YOffset=0mm|HoleType=Round|Shape=RoundedRectangle|*
%AMROUNDEDRECTD68*
21,1,1.6000,0.8000,0,0,270.0*
21,1,0.8000,1.6000,0,0,270.0*
1,1,0.8000,-0.4000,-0.4000*
1,1,0.8000,-0.4000,0.4000*
1,1,0.8000,0.4000,0.4000*
1,1,0.8000,0.4000,-0.4000*
%
%ADD68ROUNDEDRECTD68*%
%ADD69C,1.6050*%
%ADD70C,4.8000*%
G04:AMPARAMS|DCode=71|XSize=1.65mm|YSize=1.65mm|CornerRadius=0.4125mm|HoleSize=0mm|Usage=FLASHONLY|Rotation=270.000|XOffset=0mm|YOffset=0mm|HoleType=Round|Shape=RoundedRectangle|*
%AMROUNDEDRECTD71*
21,1,1.6500,0.8250,0,0,270.0*
21,1,0.8250,1.6500,0,0,270.0*
1,1,0.8250,-0.4125,-0.4125*
1,1,0.8250,-0.4125,0.4125*
1,1,0.8250,0.4125,0.4125*
1,1,0.8250,0.4125,-0.4125*
%
%ADD71ROUNDEDRECTD71*%
%ADD72C,2.4130*%
G04:AMPARAMS|DCode=73|XSize=1.65mm|YSize=1.65mm|CornerRadius=0.4125mm|HoleSize=0mm|Usage=FLASHONLY|Rotation=0.000|XOffset=0mm|YOffset=0mm|HoleType=Round|Shape=RoundedRectangle|*
%AMROUNDEDRECTD73*
21,1,1.6500,0.8250,0,0,0.0*
21,1,0.8250,1.6500,0,0,0.0*
1,1,0.8250,0.4125,-0.4125*
1,1,0.8250,-0.4125,-0.4125*
1,1,0.8250,-0.4125,0.4125*
1,1,0.8250,0.4125,0.4125*
%
%ADD73ROUNDEDRECTD73*%
%ADD74C,1.6000*%
%ADD75C,1.0000*%
%ADD76C,1.2700*%
G36*
X910590Y1066800D02*
X718820D01*
Y1092200D01*
X910590D01*
Y1066800D01*
D02*
G37*
G36*
X1046480Y861060D02*
X1016000D01*
Y858878D01*
X1015198Y857178D01*
X1007593D01*
X1006987Y857299D01*
X1006381Y857178D01*
X1001562D01*
Y848662D01*
X1015198D01*
X1016000Y846962D01*
Y795020D01*
X1046480D01*
Y769620D01*
X998220D01*
Y789940D01*
X986195D01*
X984667Y791972D01*
X984734Y792480D01*
X984510Y794183D01*
X983853Y795770D01*
X982807Y797133D01*
X981444Y798179D01*
X979857Y798836D01*
X978154Y799060D01*
X976451Y798836D01*
X974864Y798179D01*
X973501Y797133D01*
X972455Y795770D01*
X971798Y794183D01*
X971574Y792480D01*
X971594Y792324D01*
X969210Y789940D01*
X955040D01*
Y652780D01*
X944953Y642693D01*
X944447Y642626D01*
X942860Y641969D01*
X941497Y640923D01*
X940451Y639560D01*
X939794Y637973D01*
X939727Y637467D01*
X937260Y635000D01*
X787400D01*
Y665480D01*
X937260D01*
Y806450D01*
X988538Y857728D01*
X993405D01*
X995067Y858059D01*
X996475Y859000D01*
X997416Y860408D01*
X997747Y862070D01*
X997416Y863732D01*
X996475Y865140D01*
X995680Y865671D01*
X995680Y881380D01*
X1046480D01*
Y861060D01*
D02*
G37*
G36*
X523240Y873760D02*
Y772160D01*
X482600Y772160D01*
X457200Y797560D01*
Y878840D01*
X518160D01*
X523240Y873760D01*
D02*
G37*
G36*
X807720Y744220D02*
X771877D01*
Y723430D01*
X750671D01*
Y728668D01*
X741350D01*
X732029D01*
Y723430D01*
X727710D01*
Y721807D01*
X727330Y720891D01*
Y699770D01*
X703580D01*
Y707839D01*
X710752D01*
Y723900D01*
Y739961D01*
X703580D01*
Y769620D01*
X734156D01*
Y769016D01*
X749204D01*
Y769620D01*
X807720D01*
Y744220D01*
D02*
G37*
G36*
X604520D02*
X568663D01*
Y723462D01*
X546531D01*
Y728368D01*
X537210D01*
X527889D01*
Y723462D01*
X521970D01*
Y721838D01*
X521590Y720922D01*
Y699770D01*
X497840D01*
Y707839D01*
X505013D01*
Y723900D01*
Y739961D01*
X497840D01*
X497840Y769620D01*
X525876D01*
Y769016D01*
X540924D01*
Y769620D01*
X604520Y769620D01*
Y744220D01*
D02*
G37*
G36*
X401320Y743330D02*
X368300D01*
X367134Y742846D01*
X366650Y741680D01*
X365760D01*
Y723900D01*
X343331D01*
Y725828D01*
X334010D01*
X324689D01*
Y723900D01*
X321628D01*
Y769620D01*
X325216D01*
Y769016D01*
X340264D01*
Y769620D01*
X401320D01*
Y743330D01*
D02*
G37*
G36*
X807720Y667551D02*
X728980D01*
Y720891D01*
X732029D01*
Y719732D01*
X741350D01*
X750671D01*
Y720891D01*
X774417D01*
Y741680D01*
X807720D01*
Y667551D01*
D02*
G37*
G36*
X604520Y667582D02*
X523240D01*
Y720922D01*
X527889D01*
Y719432D01*
X537210D01*
X546531D01*
Y720922D01*
X571203D01*
Y741242D01*
X604520D01*
Y667582D01*
D02*
G37*
G36*
X401320Y668020D02*
X321628D01*
Y721360D01*
X324689D01*
Y716892D01*
X334010D01*
X343331D01*
Y721360D01*
X368300D01*
Y741680D01*
X401320D01*
Y668020D01*
D02*
G37*
G36*
X934720D02*
X904240D01*
Y772160D01*
X934720D01*
Y668020D01*
D02*
G37*
G36*
X495300D02*
X421640D01*
Y769620D01*
X495300D01*
Y668020D01*
D02*
G37*
G36*
X698203Y769620D02*
Y739961D01*
X691328D01*
Y723900D01*
Y707839D01*
X698203D01*
Y667582D01*
X624840D01*
Y769620D01*
X698203Y769620D01*
D02*
G37*
G36*
X902387Y774700D02*
Y741746D01*
X901791Y739961D01*
X900355Y739961D01*
X894528D01*
Y723900D01*
Y707839D01*
X900355D01*
X901791Y707839D01*
X902387Y706054D01*
Y667251D01*
X828040D01*
X828040Y774700D01*
X902387Y774700D01*
D02*
G37*
G36*
X1061720Y643890D02*
Y604520D01*
X1041860D01*
Y606701D01*
X1024780D01*
Y604520D01*
X972264D01*
Y605685D01*
X957216D01*
Y604520D01*
X951126D01*
X949885Y605034D01*
X948182Y605258D01*
X946479Y605034D01*
X945238Y604520D01*
X934720D01*
X924560Y594360D01*
X584200D01*
Y629920D01*
X944432D01*
X944447Y629914D01*
X946150Y629690D01*
X947853Y629914D01*
X947868Y629920D01*
X999490D01*
X1014730Y645160D01*
X1061720D01*
Y643890D01*
D02*
G37*
G36*
X914400Y452120D02*
X604520D01*
X546100Y393700D01*
X321628D01*
Y520700D01*
X914400D01*
Y452120D01*
D02*
G37*
%LPC*%
G36*
X831500Y1084340D02*
X825500D01*
Y1079840D01*
X831500D01*
Y1084340D01*
D02*
G37*
G36*
X806100D02*
X800100D01*
Y1079840D01*
X806100D01*
Y1084340D01*
D02*
G37*
G36*
X780700D02*
X774700D01*
Y1079840D01*
X780700D01*
Y1084340D01*
D02*
G37*
G36*
X892460D02*
X886460D01*
Y1079840D01*
X892460D01*
Y1084340D01*
D02*
G37*
G36*
X868330D02*
X862330D01*
Y1079840D01*
X868330D01*
Y1084340D01*
D02*
G37*
G36*
X881380D02*
X875380D01*
Y1079840D01*
X881380D01*
Y1084340D01*
D02*
G37*
G36*
X857250D02*
X851250D01*
Y1079840D01*
X857250D01*
Y1084340D01*
D02*
G37*
G36*
X820420D02*
X814420D01*
Y1079840D01*
X820420D01*
Y1084340D01*
D02*
G37*
G36*
X795020D02*
X789020D01*
Y1079840D01*
X795020D01*
Y1084340D01*
D02*
G37*
G36*
X769620D02*
X763620D01*
Y1079840D01*
X769620D01*
Y1084340D01*
D02*
G37*
G36*
X755300Y1084000D02*
X749300D01*
Y1079500D01*
X755300D01*
Y1084000D01*
D02*
G37*
G36*
X744220D02*
X738220D01*
Y1079500D01*
X744220D01*
Y1084000D01*
D02*
G37*
G36*
X892460Y1074760D02*
X886460D01*
Y1070260D01*
X892460D01*
Y1074760D01*
D02*
G37*
G36*
X881380D02*
X875380D01*
Y1070260D01*
X881380D01*
Y1074760D01*
D02*
G37*
G36*
X868330D02*
X862330D01*
Y1070260D01*
X868330D01*
Y1074760D01*
D02*
G37*
G36*
X857250D02*
X851250D01*
Y1070260D01*
X857250D01*
Y1074760D01*
D02*
G37*
G36*
X831500D02*
X825500D01*
Y1070260D01*
X831500D01*
Y1074760D01*
D02*
G37*
G36*
X820420D02*
X814420D01*
Y1070260D01*
X820420D01*
Y1074760D01*
D02*
G37*
G36*
X806100D02*
X800100D01*
Y1070260D01*
X806100D01*
Y1074760D01*
D02*
G37*
G36*
X795020D02*
X789020D01*
Y1070260D01*
X795020D01*
Y1074760D01*
D02*
G37*
G36*
X780700D02*
X774700D01*
Y1070260D01*
X780700D01*
Y1074760D01*
D02*
G37*
G36*
X769620D02*
X763620D01*
Y1070260D01*
X769620D01*
Y1074760D01*
D02*
G37*
G36*
X755300Y1074420D02*
X749300D01*
Y1069920D01*
X755300D01*
Y1074420D01*
D02*
G37*
G36*
X744220D02*
X738220D01*
Y1069920D01*
X744220D01*
Y1074420D01*
D02*
G37*
G36*
X1042320Y878600D02*
X1036320D01*
Y874100D01*
X1042320D01*
Y878600D01*
D02*
G37*
G36*
X1031240D02*
X1025240D01*
Y874100D01*
X1031240D01*
Y878600D01*
D02*
G37*
G36*
X1010939Y876598D02*
X1010920D01*
Y873760D01*
X1015585D01*
X1014742Y875023D01*
X1012997Y876188D01*
X1010939Y876598D01*
D02*
G37*
G36*
X1005840D02*
X1005821D01*
X1003763Y876188D01*
X1002018Y875023D01*
X1001175Y873760D01*
X1005840D01*
Y876598D01*
D02*
G37*
G36*
X1015585Y868680D02*
X1010920D01*
Y865843D01*
X1010939D01*
X1012997Y866252D01*
X1014742Y867418D01*
X1015585Y868680D01*
D02*
G37*
G36*
X1005840D02*
X1001175D01*
X1002018Y867418D01*
X1003763Y866252D01*
X1005821Y865843D01*
X1005840D01*
Y868680D01*
D02*
G37*
G36*
X1042320Y869020D02*
X1036320D01*
Y864520D01*
X1042320D01*
Y869020D01*
D02*
G37*
G36*
X1031240D02*
X1025240D01*
Y864520D01*
X1031240D01*
Y869020D01*
D02*
G37*
G36*
X1041460Y789581D02*
X1035460D01*
Y785081D01*
X1041460D01*
Y789581D01*
D02*
G37*
G36*
X1030380D02*
X1024380D01*
Y785081D01*
X1030380D01*
Y789581D01*
D02*
G37*
G36*
X1011226Y786569D02*
X1011207D01*
Y783731D01*
X1015872D01*
X1015029Y784994D01*
X1013284Y786160D01*
X1011226Y786569D01*
D02*
G37*
G36*
X1006127D02*
X1006108D01*
X1004050Y786160D01*
X1002305Y784994D01*
X1001461Y783731D01*
X1006127D01*
Y786569D01*
D02*
G37*
G36*
X1015872Y778651D02*
X1011207D01*
Y775814D01*
X1011226D01*
X1013284Y776223D01*
X1015029Y777389D01*
X1015872Y778651D01*
D02*
G37*
G36*
X1006127D02*
X1001461D01*
X1002305Y777389D01*
X1004050Y776223D01*
X1006108Y775814D01*
X1006127D01*
Y778651D01*
D02*
G37*
G36*
X1041460Y780001D02*
X1035460D01*
Y775501D01*
X1041460D01*
Y780001D01*
D02*
G37*
G36*
X1030380D02*
X1024380D01*
Y775501D01*
X1030380D01*
Y780001D01*
D02*
G37*
G36*
X473697Y847749D02*
X471183D01*
X468754Y847098D01*
X466577Y845841D01*
X464799Y844063D01*
X463542Y841886D01*
X462891Y839457D01*
Y836943D01*
X463542Y834514D01*
X464799Y832337D01*
X466577Y830559D01*
X468754Y829302D01*
X471183Y828651D01*
X473697D01*
X476126Y829302D01*
X478303Y830559D01*
X480081Y832337D01*
X481338Y834514D01*
X481989Y836943D01*
Y839457D01*
X481338Y841886D01*
X480081Y844063D01*
X478303Y845841D01*
X476126Y847098D01*
X473697Y847749D01*
D02*
G37*
G36*
X727456Y764667D02*
X724535D01*
Y759460D01*
X727456D01*
Y764667D01*
D02*
G37*
G36*
X719455D02*
X716534D01*
Y759460D01*
X719455D01*
Y764667D01*
D02*
G37*
G36*
X750220Y761080D02*
X744220D01*
Y756580D01*
X750220D01*
Y761080D01*
D02*
G37*
G36*
X739140D02*
X733140D01*
Y756580D01*
X739140D01*
Y761080D01*
D02*
G37*
G36*
X727456Y754380D02*
X724535D01*
Y749173D01*
X727456D01*
Y754380D01*
D02*
G37*
G36*
X719455D02*
X716534D01*
Y749173D01*
X719455D01*
Y754380D01*
D02*
G37*
G36*
X750220Y751500D02*
X744220D01*
Y747000D01*
X750220D01*
Y751500D01*
D02*
G37*
G36*
X739140D02*
X733140D01*
Y747000D01*
X739140D01*
Y751500D01*
D02*
G37*
G36*
X750671Y739271D02*
X743890D01*
Y733748D01*
X750671D01*
Y739271D01*
D02*
G37*
G36*
X738810D02*
X732029D01*
Y733748D01*
X738810D01*
Y739271D01*
D02*
G37*
G36*
X723096Y739961D02*
X715833D01*
Y726440D01*
X723096D01*
Y739961D01*
D02*
G37*
G36*
Y721360D02*
X715833D01*
Y707839D01*
X723096D01*
Y721360D01*
D02*
G37*
G36*
X519811Y764667D02*
X516890D01*
Y759460D01*
X519811D01*
Y764667D01*
D02*
G37*
G36*
X511810D02*
X508889D01*
Y759460D01*
X511810D01*
Y764667D01*
D02*
G37*
G36*
X541940Y761080D02*
X535940D01*
Y756580D01*
X541940D01*
Y761080D01*
D02*
G37*
G36*
X530860D02*
X524860D01*
Y756580D01*
X530860D01*
Y761080D01*
D02*
G37*
G36*
X519811Y754380D02*
X516890D01*
Y749173D01*
X519811D01*
Y754380D01*
D02*
G37*
G36*
X511810D02*
X508889D01*
Y749173D01*
X511810D01*
Y754380D01*
D02*
G37*
G36*
X541940Y751500D02*
X535940D01*
Y747000D01*
X541940D01*
Y751500D01*
D02*
G37*
G36*
X530860D02*
X524860D01*
Y747000D01*
X530860D01*
Y751500D01*
D02*
G37*
G36*
X546531Y738971D02*
X539750D01*
Y733448D01*
X546531D01*
Y738971D01*
D02*
G37*
G36*
X534670D02*
X527889D01*
Y733448D01*
X534670D01*
Y738971D01*
D02*
G37*
G36*
X517356Y739961D02*
X510093D01*
Y726440D01*
X517356D01*
Y739961D01*
D02*
G37*
G36*
Y721360D02*
X510093D01*
Y707839D01*
X517356D01*
Y721360D01*
D02*
G37*
G36*
X341280Y761080D02*
X335280D01*
Y756580D01*
X341280D01*
Y761080D01*
D02*
G37*
G36*
X330200D02*
X324200D01*
Y756580D01*
X330200D01*
Y761080D01*
D02*
G37*
G36*
X341280Y751500D02*
X335280D01*
Y747000D01*
X341280D01*
Y751500D01*
D02*
G37*
G36*
X330200D02*
X324200D01*
Y747000D01*
X330200D01*
Y751500D01*
D02*
G37*
G36*
X343331Y736431D02*
X336550D01*
Y730908D01*
X343331D01*
Y736431D01*
D02*
G37*
G36*
X331470D02*
X324689D01*
Y730908D01*
X331470D01*
Y736431D01*
D02*
G37*
G36*
X750671Y714652D02*
X743890D01*
Y709129D01*
X750671D01*
Y714652D01*
D02*
G37*
G36*
X738810D02*
X732029D01*
Y709129D01*
X738810D01*
Y714652D01*
D02*
G37*
G36*
X546531Y714352D02*
X539750D01*
Y708829D01*
X546531D01*
Y714352D01*
D02*
G37*
G36*
X534670D02*
X527889D01*
Y708829D01*
X534670D01*
Y714352D01*
D02*
G37*
G36*
X343331Y711812D02*
X336550D01*
Y706289D01*
X343331D01*
Y711812D01*
D02*
G37*
G36*
X331470D02*
X324689D01*
Y706289D01*
X331470D01*
Y711812D01*
D02*
G37*
G36*
X928116Y764667D02*
X925195D01*
Y759460D01*
X928116D01*
Y764667D01*
D02*
G37*
G36*
X920115D02*
X917194D01*
Y759460D01*
X920115D01*
Y764667D01*
D02*
G37*
G36*
X928116Y754380D02*
X925195D01*
Y749173D01*
X928116D01*
Y754380D01*
D02*
G37*
G36*
X920115D02*
X917194D01*
Y749173D01*
X920115D01*
Y754380D01*
D02*
G37*
G36*
X926296Y739961D02*
X919033D01*
Y726440D01*
X926296D01*
Y739961D01*
D02*
G37*
G36*
X913952D02*
X906689D01*
Y726440D01*
X913952D01*
Y739961D01*
D02*
G37*
G36*
X926296Y721360D02*
X919033D01*
Y707839D01*
X926296D01*
Y721360D01*
D02*
G37*
G36*
X913952D02*
X906689D01*
Y707839D01*
X913952D01*
Y721360D01*
D02*
G37*
G36*
X482981Y764667D02*
X480060D01*
Y759460D01*
X482981D01*
Y764667D01*
D02*
G37*
G36*
X474980D02*
X472059D01*
Y759460D01*
X474980D01*
Y764667D01*
D02*
G37*
G36*
X482981Y754380D02*
X480060D01*
Y749173D01*
X482981D01*
Y754380D01*
D02*
G37*
G36*
X474980D02*
X472059D01*
Y749173D01*
X474980D01*
Y754380D01*
D02*
G37*
G36*
X492851Y739961D02*
X485588D01*
Y726440D01*
X492851D01*
Y739961D01*
D02*
G37*
G36*
X480508D02*
X473244D01*
Y726440D01*
X480508D01*
Y739961D01*
D02*
G37*
G36*
X492851Y721360D02*
X485588D01*
Y707839D01*
X492851D01*
Y721360D01*
D02*
G37*
G36*
X480508D02*
X473244D01*
Y707839D01*
X480508D01*
Y721360D01*
D02*
G37*
G36*
X690626Y764667D02*
X687705D01*
Y759460D01*
X690626D01*
Y764667D01*
D02*
G37*
G36*
X682625D02*
X679704D01*
Y759460D01*
X682625D01*
Y764667D01*
D02*
G37*
G36*
X690626Y754380D02*
X687705D01*
Y749173D01*
X690626D01*
Y754380D01*
D02*
G37*
G36*
X682625D02*
X679704D01*
Y749173D01*
X682625D01*
Y754380D01*
D02*
G37*
G36*
X686247Y739961D02*
X678984D01*
Y726440D01*
X686247D01*
Y739961D01*
D02*
G37*
G36*
Y721360D02*
X678984D01*
Y707839D01*
X686247D01*
Y721360D01*
D02*
G37*
G36*
X891286Y764667D02*
X888365D01*
Y759460D01*
X891286D01*
Y764667D01*
D02*
G37*
G36*
X883285D02*
X880364D01*
Y759460D01*
X883285D01*
Y764667D01*
D02*
G37*
G36*
X891286Y754380D02*
X888365D01*
Y749173D01*
X891286D01*
Y754380D01*
D02*
G37*
G36*
X883285D02*
X880364D01*
Y749173D01*
X883285D01*
Y754380D01*
D02*
G37*
G36*
X889447Y739961D02*
X882184D01*
Y726440D01*
X889447D01*
Y739961D01*
D02*
G37*
G36*
Y721360D02*
X882184D01*
Y707839D01*
X889447D01*
Y721360D01*
D02*
G37*
G36*
X768432Y481724D02*
X765068D01*
X761820Y480854D01*
X758907Y479172D01*
X756528Y476793D01*
X754847Y473881D01*
X753976Y470632D01*
Y467268D01*
X754847Y464019D01*
X756528Y461107D01*
X758907Y458728D01*
X761820Y457047D01*
X765068Y456176D01*
X768432D01*
X771681Y457047D01*
X774594Y458728D01*
X776972Y461107D01*
X778653Y464019D01*
X779524Y467268D01*
Y470632D01*
X778653Y473881D01*
X776972Y476793D01*
X774594Y479172D01*
X771681Y480854D01*
X768432Y481724D01*
D02*
G37*
G36*
X565232D02*
X561868D01*
X558619Y480854D01*
X555707Y479172D01*
X553328Y476793D01*
X551647Y473881D01*
X550776Y470632D01*
Y467268D01*
X551647Y464019D01*
X553328Y461107D01*
X555707Y458728D01*
X558619Y457047D01*
X561868Y456176D01*
X565232D01*
X568481Y457047D01*
X571394Y458728D01*
X573772Y461107D01*
X575453Y464019D01*
X576324Y467268D01*
Y470632D01*
X575453Y473881D01*
X573772Y476793D01*
X571394Y479172D01*
X568481Y480854D01*
X565232Y481724D01*
D02*
G37*
G36*
X362032D02*
X358668D01*
X355420Y480854D01*
X352507Y479172D01*
X350128Y476793D01*
X348447Y473881D01*
X347576Y470632D01*
Y467268D01*
X348447Y464019D01*
X350128Y461107D01*
X352507Y458728D01*
X355420Y457047D01*
X358668Y456176D01*
X362032D01*
X365281Y457047D01*
X368194Y458728D01*
X370572Y461107D01*
X372253Y464019D01*
X373124Y467268D01*
Y470632D01*
X372253Y473881D01*
X370572Y476793D01*
X368194Y479172D01*
X365281Y480854D01*
X362032Y481724D01*
D02*
G37*
G36*
X447040Y440690D02*
X416560D01*
Y410210D01*
X447040D01*
Y440690D01*
D02*
G37*
%LPD*%
D14*
X482440Y1176020D02*
X497840D01*
X410825Y998875D02*
X416560Y993140D01*
X469220D01*
X412935Y971365D02*
X419100Y965200D01*
X465560D01*
X1209059Y593410D02*
X1212545Y596895D01*
Y600770D01*
X1170345Y593410D02*
X1209059D01*
X703580Y1150960D02*
Y1165860D01*
X658010Y1089660D02*
X660676Y1092326D01*
Y1116330D01*
X658010Y1076289D02*
Y1089660D01*
Y1076289D02*
X662940Y1071359D01*
Y1069340D02*
Y1071359D01*
X1176140Y586910D02*
X1210865D01*
X1212545Y585230D01*
Y584621D02*
Y585230D01*
Y584621D02*
X1216336Y580830D01*
X1247260D01*
X1176865Y497130D02*
X1207789D01*
X1211580Y493339D01*
Y492610D02*
Y493339D01*
Y492610D02*
X1233900D01*
X1238890Y487620D01*
X1247140D01*
X1247260Y580830D02*
X1248090Y581660D01*
X1270000D01*
X1247140Y487620D02*
X1255390D01*
X380880Y802640D02*
X393700D01*
X1255390Y487620D02*
X1264158Y478852D01*
Y471170D02*
Y478852D01*
X885420Y1056300D02*
X888650Y1053070D01*
Y1051932D02*
X889000Y1051582D01*
Y1010010D02*
Y1051582D01*
X883920Y1056300D02*
X885420D01*
X888650Y1051932D02*
Y1053070D01*
X889000Y1010010D02*
X901150Y997860D01*
X1049020Y980440D02*
X1164451Y865010D01*
Y597811D02*
Y865010D01*
X918570Y980440D02*
X1049020D01*
X1161357Y594841D02*
X1161481D01*
X1164451Y597811D01*
X1159926Y593410D02*
X1161357Y594841D01*
X1154130Y593410D02*
X1159926D01*
X901150Y997860D02*
X918570Y980440D01*
X859790Y1056300D02*
X862330Y1053760D01*
Y1009840D02*
Y1053760D01*
X850350Y997860D02*
X862330Y1009840D01*
X1250950Y518490D02*
X1253820Y515620D01*
X1250950Y518490D02*
Y529590D01*
X1088990Y562759D02*
Y575931D01*
Y562759D02*
X1090930Y560819D01*
Y558800D02*
Y560819D01*
X1089850Y659689D02*
X1093470Y656069D01*
X1089850Y659689D02*
Y666891D01*
X1086120Y670621D02*
X1089850Y666891D01*
X1093470Y654050D02*
Y656069D01*
X1178560Y600838D02*
Y856647D01*
X1177632Y599910D02*
X1178560Y600838D01*
X1176140Y599910D02*
X1177632D01*
X965454Y690767D02*
Y703072D01*
Y690767D02*
X965600Y690621D01*
X736558Y861271D02*
Y970238D01*
X748750Y982430D01*
X731520Y856233D02*
X736558Y861271D01*
X1033320Y599661D02*
X1033795Y599186D01*
X1049020D01*
X1080516Y783885D02*
Y795274D01*
Y783885D02*
X1082860Y781541D01*
X963678Y509778D02*
X964780Y510880D01*
X949198Y509778D02*
X963678D01*
X948182Y598678D02*
X963757D01*
X964740Y599661D01*
X965840Y782541D02*
X974351Y791053D01*
X976727D01*
X978154Y792480D01*
X964340Y782541D02*
X965840D01*
X1084898Y510880D02*
X1086168D01*
X1084898D02*
X1109560D01*
X1086168D02*
X1088898Y513610D01*
Y525526D01*
X1088990Y612994D02*
X1089406Y613410D01*
X1083260Y599661D02*
X1084610D01*
X1082040Y599881D02*
X1083260D01*
X1086480D02*
X1088990Y602391D01*
X1084610Y599661D02*
X1109520D01*
X1083260Y599881D02*
X1086480D01*
X1088990Y602391D02*
Y612994D01*
X799550Y934550D02*
X849020Y885080D01*
X799550Y934550D02*
Y997860D01*
X811784Y1011026D02*
Y1044956D01*
Y1011026D02*
X824950Y997860D01*
X802400Y1054340D02*
X811784Y1044956D01*
X779780Y901829D02*
Y956056D01*
X762000Y973836D02*
X779780Y956056D01*
X762000Y973836D02*
Y1003300D01*
X721948Y1024662D02*
X735838Y1010772D01*
X729954Y976334D02*
X735838Y982218D01*
Y1010772D01*
X1033528Y511048D02*
X1046988D01*
X1032010Y509530D02*
X1033528Y511048D01*
X1034693Y690626D02*
X1048004D01*
X1033338Y689271D02*
X1034693Y690626D01*
X1009927Y689271D02*
X1033338D01*
X1082880Y854100D02*
X1083380Y853600D01*
X1106940D01*
X1107440Y853100D01*
X1120140Y855980D02*
Y878840D01*
X1102720Y896260D02*
X1120140Y878840D01*
X1028150Y896260D02*
X1102720D01*
X1028150Y921660D02*
X1086659D01*
X1126744Y881575D01*
Y777665D02*
Y881575D01*
X756580Y858520D02*
X757580Y859520D01*
Y883080D01*
X1108620Y762041D02*
X1109120Y761541D01*
X1083360Y762041D02*
X1108620D01*
X1082860Y762541D02*
X1083360Y762041D01*
X729954Y864006D02*
Y976334D01*
X721360Y864752D02*
Y995870D01*
X690880Y834272D02*
X721360Y864752D01*
Y995870D02*
X723350Y997860D01*
X724916Y858968D02*
X729954Y864006D01*
X731520Y807720D02*
Y856233D01*
X724916Y821436D02*
Y858968D01*
X748750Y982430D02*
Y997860D01*
X754380Y1010920D02*
X762000Y1003300D01*
X754380Y1010920D02*
Y1017630D01*
X748750Y1023260D02*
X754380Y1017630D01*
X769733Y1005367D02*
X774150Y1000950D01*
X769733Y1005367D02*
Y1005727D01*
X761064Y1014396D02*
X769733Y1005727D01*
X761064Y1014396D02*
Y1041656D01*
X774150Y997860D02*
Y1000950D01*
X770825Y892874D02*
X779780Y901829D01*
X765374Y892874D02*
X770825D01*
X757580Y885080D02*
X765374Y892874D01*
X757580Y883080D02*
Y885080D01*
X849020Y883080D02*
Y885080D01*
X746760Y1055960D02*
X748260D01*
X750220Y1054000D01*
Y1052500D02*
Y1054000D01*
Y1052500D02*
X761064Y1041656D01*
X773155Y1024255D02*
X774150Y1023260D01*
X773155Y1024255D02*
Y1055305D01*
X772160Y1056300D02*
X773155Y1055305D01*
X797560Y1056300D02*
X799520Y1054340D01*
X802400D01*
X823955Y1024255D02*
X824950Y1023260D01*
X823955Y1024255D02*
Y1055305D01*
X822960Y1056300D02*
X823955Y1055305D01*
X949401Y881820D02*
X950829Y880393D01*
X954867D02*
X961160Y874100D01*
X950829Y880393D02*
X954867D01*
X998887Y1036320D02*
X1178560Y856647D01*
X914210Y1036320D02*
X998887D01*
X1044448Y972312D02*
X1137920Y878840D01*
X897234Y976376D02*
X1046131D01*
X875750Y997860D02*
X897234Y976376D01*
X1046131D02*
X1141984Y880523D01*
X875898Y972312D02*
X1044448D01*
X850350Y997860D02*
X875898Y972312D01*
X901150Y1023260D02*
X914210Y1036320D01*
X1033780Y853781D02*
X1045333D01*
X1007656D02*
X1033780D01*
X1051862Y860310D02*
X1055150D01*
X1055780Y860940D02*
Y864281D01*
X1055150Y860310D02*
X1055780Y860940D01*
X1045333Y853781D02*
X1051862Y860310D01*
X962660Y853781D02*
X975553D01*
X983841Y862070D02*
X990846D01*
X975553Y853781D02*
X983841Y862070D01*
X1006987Y854450D02*
X1007656Y853781D01*
X1082040Y876830D02*
Y883920D01*
X1078780Y874781D02*
X1079991D01*
X1082040Y876830D01*
X1082880Y873100D02*
X1084420Y871560D01*
X1107440D01*
X1109358Y852478D02*
X1116638D01*
X1120140Y855980D01*
X1110620Y761541D02*
X1126744Y777665D01*
X961160Y874100D02*
X962660D01*
X1082860Y781541D02*
X1108120D01*
X1137920Y512413D02*
Y878840D01*
X1141984Y593683D02*
Y880523D01*
Y517750D02*
X1148947Y510786D01*
X1154199D01*
X1154855Y510130D01*
X1137920Y512413D02*
X1146318Y504015D01*
X1141984Y593683D02*
X1146779Y598479D01*
X1141984Y517750D02*
Y593683D01*
X1109120Y761541D02*
X1110620D01*
X1146318Y504015D02*
X1154471D01*
X1154855Y503630D01*
X1176865Y510130D02*
X1177632D01*
X1178560Y511058D01*
Y525780D01*
X1146904Y598479D02*
X1148335Y599910D01*
X1146779Y598479D02*
X1146904D01*
X1148335Y599910D02*
X1154130D01*
X1082040Y691701D02*
Y703580D01*
Y691701D02*
X1084120Y689621D01*
X1085300Y490880D02*
X1108560D01*
X1093313Y478947D02*
X1094740Y477520D01*
X1093313Y478947D02*
Y482867D01*
X1085300Y490880D02*
X1093313Y482867D01*
X1083300Y490880D02*
X1085300D01*
X1085260Y579661D02*
X1088990Y575931D01*
X1091720Y669621D02*
X1110380D01*
X1090232Y668133D02*
X1091720Y669621D01*
X1084120Y670621D02*
X1086120D01*
X1106521Y581660D02*
X1109520Y578661D01*
X1083260Y579661D02*
X1085259Y581660D01*
X1106521D01*
X1083260Y579661D02*
X1085260D01*
X1009107Y509530D02*
X1032010D01*
X1031970Y598311D02*
X1033320Y599661D01*
X1009067Y598311D02*
X1031970D01*
X787160Y802640D02*
X800100D01*
X1238890Y515620D02*
X1253820D01*
X1247260Y608830D02*
X1248030Y609600D01*
X1270000D01*
X1239010Y608830D02*
X1247260D01*
X1163720Y586910D02*
X1168789Y591979D01*
X1170345Y593410D01*
X1154130Y586910D02*
X1163720D01*
X1176480Y503246D02*
X1176865Y503630D01*
X1166890Y503246D02*
X1176480D01*
X1162206Y498561D02*
X1166890Y503246D01*
X1162082Y498561D02*
X1162206D01*
X1160650Y497130D02*
X1162082Y498561D01*
X1154855Y497130D02*
X1160650D01*
X1231420Y508150D02*
X1238890Y515620D01*
X1211580Y508150D02*
X1231420D01*
X1211580Y507421D02*
Y508150D01*
X1207789Y503630D02*
X1211580Y507421D01*
X1176865Y503630D02*
X1207789D01*
X1230950Y600770D02*
X1239010Y608830D01*
X1212545Y600770D02*
X1230950D01*
X868680Y843280D02*
Y858180D01*
X869020Y858520D01*
X711200Y807720D02*
X724916Y821436D01*
X690880Y807720D02*
Y834272D01*
X672550Y1023260D02*
X685800Y1010010D01*
Y899289D02*
Y1010010D01*
X679385Y892874D02*
X685800Y899289D01*
X584248Y802473D02*
X597641D01*
X584080Y802640D02*
X584248Y802473D01*
X1084120Y689621D02*
X1085120Y690621D01*
X1110380D01*
X1082040Y599881D02*
X1083260Y598661D01*
X1108560Y490880D02*
X1109560Y489880D01*
X1059300Y500380D02*
X1061300D01*
X1048800Y489880D02*
X1059300Y500380D01*
X1033360Y489880D02*
X1048800D01*
X1032010Y491230D02*
X1033360Y489880D01*
X1009107Y491230D02*
X1032010D01*
X1059260Y589161D02*
X1061260D01*
X1048760Y578661D02*
X1059260Y589161D01*
X1033320Y578661D02*
X1048760D01*
X1031970Y580011D02*
X1033320Y578661D01*
X1009067Y580011D02*
X1031970D01*
X1009927Y670971D02*
X1032830D01*
X1034180Y669621D01*
X1049620D01*
X1060120Y680121D01*
X1062120D01*
X1008667Y762891D02*
X1031570D01*
X1032920Y761541D01*
X1048360D01*
X1058860Y772041D01*
X1060860D01*
X1108120Y781541D02*
X1109120Y782541D01*
X777240Y843280D02*
Y858180D01*
X777580Y858520D01*
X687070Y843280D02*
Y857930D01*
X686480Y858520D02*
X687070Y857930D01*
X640680Y965990D02*
X672550Y997860D01*
X619139Y965990D02*
X640680D01*
X589940Y936791D02*
X619139Y965990D01*
X589940Y883080D02*
Y936791D01*
X673934Y892874D02*
X679385D01*
X666140Y885080D02*
X673934Y892874D01*
X666140Y883080D02*
Y885080D01*
X490560Y936220D02*
Y961200D01*
X492060Y934720D02*
X502920D01*
X490560Y936220D02*
X492060Y934720D01*
X490560D02*
Y936220D01*
X469220Y993140D02*
Y1019960D01*
X697950Y997860D02*
X710010Y1009920D01*
Y1026975D01*
X713390Y1030355D01*
Y1136038D01*
X707698Y1141730D02*
X713390Y1136038D01*
X660676Y1141730D02*
X707698D01*
X697950Y1023260D02*
Y1027038D01*
X703580Y1032668D01*
Y1129960D01*
X702650Y1129030D02*
X703580Y1129960D01*
X660676Y1129030D02*
X702650D01*
X663050Y1186290D02*
X665480Y1188720D01*
X657970Y1186290D02*
X663050D01*
X647520Y1175840D02*
X657970Y1186290D01*
X647520Y1148251D02*
Y1175840D01*
X654041Y1129030D02*
X660676D01*
X642440Y1140631D02*
X654041Y1129030D01*
X642440Y1140631D02*
Y1176200D01*
X629920Y1188720D02*
X642440Y1176200D01*
X647520Y1148251D02*
X654041Y1141730D01*
X660676D01*
X482440Y1085850D02*
X497840D01*
X637540Y1069340D02*
Y1071359D01*
X642470Y1076289D01*
Y1089660D01*
X680001Y1154981D02*
X680720Y1155700D01*
X661227Y1154981D02*
X680001D01*
X660676Y1154430D02*
X661227Y1154981D01*
X868020Y883080D02*
X869020Y882080D01*
Y858520D02*
Y882080D01*
X848020D02*
X849020Y883080D01*
X848020Y858520D02*
Y882080D01*
X588940D02*
X589940Y883080D01*
X588940Y858520D02*
Y882080D01*
X665480Y882420D02*
X666140Y883080D01*
X665480Y858520D02*
Y882420D01*
X776580Y883080D02*
X777580Y882080D01*
Y858520D02*
Y882080D01*
X685140Y883080D02*
X686480Y881740D01*
Y858520D02*
Y881740D01*
X608940Y859520D02*
Y883080D01*
Y859520D02*
X609940Y858520D01*
X609600Y858180D02*
X609940Y858520D01*
X609600Y843280D02*
Y858180D01*
X490220Y1019280D02*
X495300Y1024360D01*
Y1043940D01*
X490220Y993140D02*
Y1019280D01*
X478260Y977900D02*
X627190D01*
X469220Y991640D02*
Y993140D01*
X477530Y983330D02*
X569310D01*
X469220Y991640D02*
X477530Y983330D01*
X465560Y1023620D02*
X469220Y1019960D01*
X569310Y983330D02*
X595900Y1009920D01*
X633810D01*
X647150Y1023260D01*
X471290Y970930D02*
X478260Y977900D01*
X490560Y961200D02*
X494560Y965200D01*
X469560Y934720D02*
Y936220D01*
X465560Y940220D02*
X469560Y936220D01*
X465560Y940220D02*
Y965200D01*
Y965700D02*
X470790Y970930D01*
X471290D01*
X627190Y977900D02*
X647150Y997860D01*
X332740Y775040D02*
Y787400D01*
X347980Y802640D01*
X365880D01*
X741680Y782320D02*
X762000Y802640D01*
X741680Y775040D02*
Y782320D01*
X762000Y802640D02*
X772160D01*
X553720D02*
X569080D01*
X533400Y782320D02*
X553720Y802640D01*
X533400Y775040D02*
Y782320D01*
D18*
X539750Y1162050D02*
D03*
X560750D02*
D03*
X562950Y1098550D02*
D03*
X541950D02*
D03*
X560750Y1187450D02*
D03*
X539750D02*
D03*
X541950Y1073150D02*
D03*
X562950D02*
D03*
X869020Y858520D02*
D03*
X777580D02*
D03*
X686480D02*
D03*
X609940D02*
D03*
X490220Y993140D02*
D03*
X490560Y934720D02*
D03*
X597240Y929640D02*
D03*
X848020Y858520D02*
D03*
X756580D02*
D03*
X588940D02*
D03*
X665480D02*
D03*
X469560Y934720D02*
D03*
X469220Y993140D02*
D03*
X576240Y929640D02*
D03*
D19*
X883920Y1056300D02*
D03*
Y1077300D02*
D03*
X859790D02*
D03*
X703580Y1150960D02*
D03*
X797560Y1077300D02*
D03*
X822960D02*
D03*
X746760Y1076960D02*
D03*
X772160Y1077300D02*
D03*
X859790Y1056300D02*
D03*
X964340Y761541D02*
D03*
Y782541D02*
D03*
X1109560Y489880D02*
D03*
Y510880D02*
D03*
X1033320Y599661D02*
D03*
X1034180Y690621D02*
D03*
X1033360Y510880D02*
D03*
Y489880D02*
D03*
X514350Y1164250D02*
D03*
Y1185250D02*
D03*
X515620Y1096350D02*
D03*
Y1075350D02*
D03*
X1110380Y690621D02*
D03*
X1109120Y782541D02*
D03*
X965600Y690621D02*
D03*
X964780Y510880D02*
D03*
X1109520Y599661D02*
D03*
X1107440Y874100D02*
D03*
X962660D02*
D03*
X964740Y599661D02*
D03*
X741680Y754040D02*
D03*
X533400D02*
D03*
X332740D02*
D03*
X1109120Y761541D02*
D03*
X1033780Y871560D02*
D03*
Y850560D02*
D03*
X962660Y853100D02*
D03*
X1032920Y782541D02*
D03*
Y761541D02*
D03*
X1107440Y853100D02*
D03*
X1110380Y669621D02*
D03*
X1109520Y578661D02*
D03*
X964780Y489880D02*
D03*
X965600Y669621D02*
D03*
X1034180D02*
D03*
X1033320Y578661D02*
D03*
X964740D02*
D03*
X797560Y1056300D02*
D03*
X772160D02*
D03*
X822960D02*
D03*
X746760Y1055960D02*
D03*
X703580Y1129960D02*
D03*
X741680Y775040D02*
D03*
X332740D02*
D03*
X533400D02*
D03*
D20*
X658010Y1089660D02*
D03*
X642470D02*
D03*
D21*
X1212850Y581510D02*
D03*
X1211580Y492610D02*
D03*
Y508150D02*
D03*
X1212850Y597050D02*
D03*
D22*
X1176865Y497130D02*
D03*
X1176140Y586910D02*
D03*
X1154130Y593410D02*
D03*
Y580410D02*
D03*
Y586910D02*
D03*
Y599910D02*
D03*
X1176140D02*
D03*
Y593410D02*
D03*
X1176865Y503630D02*
D03*
X1154855Y497130D02*
D03*
Y490630D02*
D03*
Y503630D02*
D03*
Y510130D02*
D03*
X1176865D02*
D03*
D23*
X660676Y1116330D02*
D03*
D24*
X380880Y802640D02*
D03*
X584080D02*
D03*
X365880D02*
D03*
X787160D02*
D03*
X569080D02*
D03*
X772160D02*
D03*
D25*
X1247260Y582578D02*
D03*
X1247140Y489368D02*
D03*
Y513872D02*
D03*
X1247260Y607082D02*
D03*
D26*
X507552Y723900D02*
D03*
X483047D02*
D03*
X713292D02*
D03*
X688788D02*
D03*
X916492D02*
D03*
X891988D02*
D03*
D27*
X885825Y756920D02*
D03*
X922655D02*
D03*
X685165D02*
D03*
X721995D02*
D03*
X477520D02*
D03*
X514350D02*
D03*
D28*
X629920Y1188720D02*
D03*
X665480D02*
D03*
X1148080Y423418D02*
D03*
D29*
X1009927Y689271D02*
D03*
X1009067Y598311D02*
D03*
X1009107Y509530D02*
D03*
X990846Y862070D02*
D03*
X1008380Y871220D02*
D03*
X991133Y772041D02*
D03*
X1008667Y781191D02*
D03*
X991573Y500380D02*
D03*
X991533Y589161D02*
D03*
X992393Y680121D02*
D03*
D30*
X334010Y714352D02*
D03*
Y728368D02*
D03*
X741350Y731208D02*
D03*
X537210Y730908D02*
D03*
Y716892D02*
D03*
X741350Y717192D02*
D03*
D31*
X465560Y1023620D02*
D03*
X494560D02*
D03*
Y965200D02*
D03*
X465560D02*
D03*
D32*
X462440Y1095350D02*
D03*
Y1076350D02*
D03*
X482440Y1085850D02*
D03*
X462440Y1185520D02*
D03*
Y1166520D02*
D03*
X482440Y1176020D02*
D03*
D33*
X685140Y883080D02*
D03*
X675640Y905080D02*
D03*
X666140Y883080D02*
D03*
X849020D02*
D03*
X858520Y905080D02*
D03*
X868020Y883080D02*
D03*
X776580D02*
D03*
X608940D02*
D03*
X599440Y905080D02*
D03*
X757580Y883080D02*
D03*
X767080Y905080D02*
D03*
X589940Y883080D02*
D03*
D34*
X660676Y1129030D02*
D03*
Y1141730D02*
D03*
Y1154430D02*
D03*
X614404D02*
D03*
Y1141730D02*
D03*
Y1129030D02*
D03*
Y1116330D02*
D03*
D35*
X1008380Y852920D02*
D03*
X1008667Y762891D02*
D03*
X1009107Y491230D02*
D03*
X1009067Y580011D02*
D03*
X1009927Y670971D02*
D03*
D36*
X1176140Y580410D02*
D03*
X1176865Y490630D02*
D03*
D37*
X1084120Y689621D02*
D03*
X1082860Y781541D02*
D03*
X1082880Y873100D02*
D03*
X1083300Y509880D02*
D03*
X1083260Y598661D02*
D03*
X1082880Y854100D02*
D03*
X1060880Y863600D02*
D03*
X1082860Y762541D02*
D03*
X1060860Y772041D02*
D03*
X1084120Y670621D02*
D03*
X1062120Y680121D02*
D03*
X1083260Y579661D02*
D03*
X1061260Y589161D02*
D03*
X1083300Y490880D02*
D03*
X1061300Y500380D02*
D03*
D58*
X409400Y1054836D02*
Y1058270D01*
X413086Y1049827D02*
Y1051150D01*
X409400Y1054836D02*
X413086Y1051150D01*
Y1049827D02*
X415318Y1047595D01*
X433801Y1062921D02*
Y1070749D01*
X418475Y1047595D02*
X433801Y1062921D01*
X415318Y1047595D02*
X418475D01*
X433801Y1070749D02*
X452077Y1089025D01*
X457863D01*
X460095Y1091257D02*
Y1093005D01*
X457863Y1089025D02*
X460095Y1091257D01*
Y1093005D02*
X462440Y1095350D01*
X409400Y1034004D02*
X413086Y1037690D01*
Y1039013D01*
X460095Y1078695D02*
X462440Y1076350D01*
X409400Y1030570D02*
Y1034004D01*
X454707Y1082675D02*
X457863D01*
X460095Y1080443D01*
X440151Y1060291D02*
Y1068119D01*
X454707Y1082675D01*
X421105Y1041245D02*
X440151Y1060291D01*
X460095Y1078695D02*
Y1080443D01*
X413086Y1039013D02*
X415318Y1041245D01*
X421105D01*
X517120Y1096350D02*
X519715Y1093755D01*
Y1091257D02*
X521947Y1089025D01*
X537165D02*
X539397Y1091257D01*
Y1095997D01*
X519715Y1091257D02*
Y1093755D01*
X539397Y1095997D02*
X541950Y1098550D01*
X521947Y1089025D02*
X537165D01*
X515620Y1096350D02*
X517120D01*
X537165Y1082675D02*
X539397Y1080443D01*
X521947Y1082675D02*
X537165D01*
X519715Y1080443D02*
X521947Y1082675D01*
X519715Y1077945D02*
Y1080443D01*
X517120Y1075350D02*
X519715Y1077945D01*
X515620Y1075350D02*
X517120D01*
X539397Y1075703D02*
X541950Y1073150D01*
X539397Y1075703D02*
Y1080443D01*
X464785Y1097695D02*
X466162D01*
X513420Y1098550D02*
X515620Y1096350D01*
X462440Y1095350D02*
X464785Y1097695D01*
X466162D02*
X467017Y1098550D01*
X513420D01*
X464785Y1074005D02*
X466162D01*
X467017Y1073150D02*
X513420D01*
X466162Y1074005D02*
X467017Y1073150D01*
X513420D02*
X515620Y1075350D01*
X462440Y1076350D02*
X464785Y1074005D01*
X462440Y1166520D02*
X463575Y1165385D01*
X513215D01*
X514350Y1164250D01*
X514215Y1185385D02*
X514350Y1185250D01*
X462440Y1185520D02*
X462575Y1185385D01*
X514215D01*
X565503Y1091257D02*
Y1095997D01*
X562950Y1098550D02*
X565503Y1095997D01*
X598945Y1125855D02*
X604731D01*
X607906Y1129030D01*
X614404D01*
X570891Y1089025D02*
X583443Y1101577D01*
Y1110354D02*
X598945Y1125855D01*
X583443Y1101577D02*
Y1110354D01*
X567735Y1089025D02*
X570891D01*
X565503Y1091257D02*
X567735Y1089025D01*
X562950Y1073150D02*
X565503Y1075703D01*
X604731Y1119505D02*
X607906Y1116330D01*
X601575Y1119505D02*
X604731D01*
X589793Y1107723D02*
X601575Y1119505D01*
X589793Y1098947D02*
Y1107723D01*
X573522Y1082675D02*
X589793Y1098947D01*
X567735Y1082675D02*
X573522D01*
X565503Y1080443D02*
X567735Y1082675D01*
X607906Y1116330D02*
X614404D01*
X565503Y1075703D02*
Y1080443D01*
X515850Y1185250D02*
X518445Y1182655D01*
Y1180157D02*
Y1182655D01*
X534965Y1177925D02*
X537197Y1180157D01*
X518445D02*
X520677Y1177925D01*
X534965D01*
X537197Y1180157D02*
Y1184897D01*
X539750Y1187450D01*
X537197Y1164603D02*
X539750Y1162050D01*
X518445Y1169343D02*
X520677Y1171575D01*
X534965D01*
X515850Y1164250D02*
X518445Y1166845D01*
Y1169343D01*
X537197Y1164603D02*
Y1169343D01*
X534965Y1171575D02*
X537197Y1169343D01*
X563303Y1164603D02*
Y1169343D01*
X565535Y1171575D01*
X572275D01*
X604731Y1144905D02*
X607906Y1141730D01*
X572275Y1171575D02*
X598945Y1144905D01*
X560750Y1162050D02*
X563303Y1164603D01*
X598945Y1144905D02*
X604731D01*
X607906Y1141730D02*
X614404D01*
X574905Y1177925D02*
X601575Y1151255D01*
X604731D02*
X607906Y1154430D01*
X614404D01*
X560750Y1187450D02*
X563303Y1184897D01*
Y1180157D02*
Y1184897D01*
Y1180157D02*
X565535Y1177925D01*
X574905D01*
X601575Y1151255D02*
X604731D01*
X460095Y1181427D02*
Y1183175D01*
X462440Y1185520D01*
X457863Y1179195D02*
X460095Y1181427D01*
X452077Y1179195D02*
X457863D01*
X418474Y1102995D02*
X433031Y1117551D01*
Y1160149D01*
X452077Y1179195D01*
X413086Y1105227D02*
X415318Y1102995D01*
X418474D01*
X409400Y1110236D02*
Y1113670D01*
X413086Y1105227D02*
Y1106550D01*
X409400Y1110236D02*
X413086Y1106550D01*
X439380Y1114921D02*
Y1157519D01*
X454707Y1172845D01*
X413086Y1093090D02*
Y1094413D01*
X415318Y1096645D01*
X409400Y1089404D02*
X413086Y1093090D01*
X415318Y1096645D02*
X421105D01*
X409400Y1085970D02*
Y1089404D01*
X460095Y1168865D02*
Y1170613D01*
Y1168865D02*
X462440Y1166520D01*
X457863Y1172845D02*
X460095Y1170613D01*
X421105Y1096645D02*
X439380Y1114921D01*
X454707Y1172845D02*
X457863D01*
D59*
X401320Y906780D02*
X556260D01*
X377740Y930360D02*
X381170D01*
X383185Y928345D01*
X377740Y930360D02*
X381000Y933620D01*
X383185Y924915D02*
Y928345D01*
Y924915D02*
X401320Y906780D01*
X381000Y933620D02*
Y961320D01*
X873244Y904756D02*
X927100Y850900D01*
X858844Y904756D02*
X873244D01*
X961082Y851522D02*
X962660Y853100D01*
X873760Y807720D02*
X909320D01*
X953122Y851522D02*
X961082D01*
X909320Y807720D02*
X953122Y851522D01*
X721360Y431800D02*
X906780D01*
X655320Y365760D02*
X721360Y431800D01*
X980859Y748971D02*
X981710Y748121D01*
X964340Y761541D02*
X965840D01*
X967800Y759581D01*
Y758081D02*
Y759581D01*
Y758081D02*
X976910Y748971D01*
X980859D01*
X981710Y748121D02*
Y765178D01*
X988573Y772041D01*
X946150Y636270D02*
X961950Y652070D01*
Y654610D01*
X962140Y654800D01*
Y667661D01*
X1183640Y365760D02*
X1273222Y455342D01*
X1236782Y563880D02*
X1273222Y527440D01*
Y455342D02*
Y527440D01*
X746567Y907034D02*
X748846Y904756D01*
X766756D01*
X745236Y907034D02*
X746567D01*
X766756Y904756D02*
X767080Y905080D01*
X969060Y671581D02*
Y673081D01*
X976100Y680121D02*
X992393D01*
X964100Y669621D02*
X967100D01*
X969060Y671581D01*
Y673081D02*
X976100Y680121D01*
X962140Y667661D02*
X964100Y669621D01*
X924560Y449580D02*
Y558800D01*
X947420Y581660D01*
X906780Y431800D02*
X924560Y449580D01*
X988573Y772041D02*
X991133D01*
X1110669Y429155D02*
X1172144Y490630D01*
X1176865D01*
X637540Y873760D02*
Y905080D01*
X675640D01*
X1061720Y365760D02*
X1183640D01*
X1192670Y563880D02*
X1236782D01*
X1176140Y580410D02*
X1192670Y563880D01*
X909320Y365760D02*
X972715Y429155D01*
X1110669D01*
X858520Y905080D02*
X858844Y904756D01*
X800100Y408940D02*
X922020D01*
X949960Y436880D02*
Y477520D01*
X922020Y408940D02*
X949960Y436880D01*
X914400Y421640D02*
X938276Y445516D01*
Y554736D01*
X762000Y421640D02*
X914400D01*
X960241Y576701D02*
X962780D01*
X964740Y578661D01*
X938276Y554736D02*
X960241Y576701D01*
X976740Y589161D02*
X991533D01*
X966240Y578661D02*
X976740Y589161D01*
X964740Y578661D02*
X966240D01*
X960360Y487920D02*
X964320D01*
X949960Y477520D02*
X960360Y487920D01*
X964320D02*
X976780Y500380D01*
X991573D01*
X756920Y365760D02*
X800100Y408940D01*
X706120Y365760D02*
X762000Y421640D01*
X574280Y924800D02*
Y927680D01*
X576240Y929640D01*
X556260Y906780D02*
X574280Y924800D01*
X598340Y906180D02*
X599440Y905080D01*
X598340Y906180D02*
Y928540D01*
X597240Y929640D02*
X598340Y928540D01*
X599440Y905080D02*
X637540D01*
D60*
X472440Y889000D02*
D03*
X1002750Y896260D02*
D03*
D61*
X360350Y468950D02*
D03*
X868350D02*
D03*
Y687350D02*
D03*
X766750D02*
D03*
Y468950D02*
D03*
X665150D02*
D03*
Y687350D02*
D03*
X563550D02*
D03*
Y468950D02*
D03*
X461950D02*
D03*
Y687350D02*
D03*
X360350D02*
D03*
D62*
X901150Y997860D02*
D03*
X409400Y947470D02*
D03*
Y1002870D02*
D03*
Y975170D02*
D03*
Y1030570D02*
D03*
Y1058270D02*
D03*
Y1085970D02*
D03*
Y1113670D02*
D03*
X381000Y933620D02*
D03*
Y961320D02*
D03*
Y989020D02*
D03*
Y1016720D02*
D03*
Y1044420D02*
D03*
Y1072120D02*
D03*
Y1099820D02*
D03*
X1010920Y365760D02*
D03*
Y340360D02*
D03*
X960120Y365760D02*
D03*
Y340360D02*
D03*
X909320Y365760D02*
D03*
Y340360D02*
D03*
X883920Y365760D02*
D03*
Y340360D02*
D03*
X833120Y365760D02*
D03*
Y340360D02*
D03*
X782320Y365760D02*
D03*
Y340360D02*
D03*
X706120Y365760D02*
D03*
Y340360D02*
D03*
X680720Y365760D02*
D03*
Y340360D02*
D03*
X629920Y365760D02*
D03*
X655320Y340360D02*
D03*
Y365760D02*
D03*
X731520Y340360D02*
D03*
Y365760D02*
D03*
X756920Y340360D02*
D03*
Y365760D02*
D03*
X807720Y340360D02*
D03*
Y365760D02*
D03*
X858520Y340360D02*
D03*
Y365760D02*
D03*
X934720Y340360D02*
D03*
Y365760D02*
D03*
X985520Y340360D02*
D03*
Y365760D02*
D03*
X1036320Y340360D02*
D03*
X1061720D02*
D03*
X1036320Y365760D02*
D03*
X1061720D02*
D03*
X901150Y1023260D02*
D03*
X875750Y997860D02*
D03*
Y1023260D02*
D03*
X824950Y997860D02*
D03*
Y1023260D02*
D03*
X774150Y997860D02*
D03*
Y1023260D02*
D03*
X697950Y997860D02*
D03*
Y1023260D02*
D03*
X672550Y997860D02*
D03*
Y1023260D02*
D03*
X621750Y997860D02*
D03*
X647150Y1023260D02*
D03*
Y997860D02*
D03*
X723350Y1023260D02*
D03*
Y997860D02*
D03*
X748750Y1023260D02*
D03*
Y997860D02*
D03*
X799550Y1023260D02*
D03*
Y997860D02*
D03*
X850350Y1023260D02*
D03*
Y997860D02*
D03*
X926550Y1023260D02*
D03*
X951950D02*
D03*
X926550Y997860D02*
D03*
X951950D02*
D03*
D63*
X792480Y726440D02*
D03*
X817880D02*
D03*
X589280D02*
D03*
X614680D02*
D03*
X386080D02*
D03*
X411480D02*
D03*
D64*
X843280D02*
D03*
X640080D02*
D03*
X436880D02*
D03*
D65*
X431800Y425450D02*
D03*
D66*
X514350D02*
D03*
D67*
X350000Y1250000D02*
D03*
X1250000D02*
D03*
X350000Y350000D02*
D03*
X1250000D02*
D03*
D68*
X590000Y365400D02*
D03*
D69*
X472440Y863600D02*
D03*
X447040Y889000D02*
D03*
Y863600D02*
D03*
X472440Y838200D02*
D03*
X447040D02*
D03*
X1028150Y896260D02*
D03*
X1002750Y921660D02*
D03*
X1028150D02*
D03*
X1002750Y947060D02*
D03*
X1028150D02*
D03*
D70*
X395200Y850220D02*
D03*
Y1183220D02*
D03*
D71*
X409400Y919770D02*
D03*
D72*
X1186180Y345440D02*
D03*
X1109980D02*
D03*
D73*
X629920Y340360D02*
D03*
X621750Y1023260D02*
D03*
D74*
X590000Y340000D02*
D03*
D75*
X497840Y1176020D02*
D03*
X901700Y1076960D02*
D03*
X662940Y1069340D02*
D03*
X703580Y1165860D02*
D03*
X1270000Y581660D02*
D03*
X393700Y802640D02*
D03*
X840740Y1076960D02*
D03*
X728980D02*
D03*
X1264158Y471170D02*
D03*
X1250950Y529590D02*
D03*
X927100Y850900D02*
D03*
X1090930Y558800D02*
D03*
X965454Y703072D02*
D03*
X981710Y748030D02*
D03*
X1093470Y654050D02*
D03*
X946150Y636270D02*
D03*
X1178560Y618490D02*
D03*
X1191800Y538923D02*
D03*
X745236Y907034D02*
D03*
X1048004Y690626D02*
D03*
X1049020Y599186D02*
D03*
X1080516Y795274D02*
D03*
X949198Y509778D02*
D03*
X948182Y598678D02*
D03*
X978154Y792480D02*
D03*
X1088898Y525526D02*
D03*
X1089406Y613410D02*
D03*
X1046988Y511048D02*
D03*
X949401Y881820D02*
D03*
X1181100Y411480D02*
D03*
X1191260Y454660D02*
D03*
Y638810D02*
D03*
Y694690D02*
D03*
Y748030D02*
D03*
Y802640D02*
D03*
Y850900D02*
D03*
X1160780Y891540D02*
D03*
X1122680Y929640D02*
D03*
X1087120Y966470D02*
D03*
X904240Y1054100D02*
D03*
X1051560Y1002030D02*
D03*
X1017270Y1036320D02*
D03*
X947420Y581660D02*
D03*
X873760Y807720D02*
D03*
X1082040Y883920D02*
D03*
X1178560Y525780D02*
D03*
X1082040Y703580D02*
D03*
X1094740Y477520D02*
D03*
X800100Y802640D02*
D03*
X637540Y873760D02*
D03*
X1270000Y609600D02*
D03*
X868680Y843280D02*
D03*
X966470Y1054100D02*
D03*
X777240Y843280D02*
D03*
X711200Y807720D02*
D03*
X731520D02*
D03*
X690880D02*
D03*
X687070Y843280D02*
D03*
X502920Y934720D02*
D03*
X497840Y1085850D02*
D03*
X680720Y1155700D02*
D03*
X637540Y1069340D02*
D03*
X495300Y1043940D02*
D03*
X609600Y843280D02*
D03*
D76*
X1052577Y637049D02*
D03*
X1052830Y617220D02*
D03*
X594360Y622300D02*
D03*
Y601980D02*
D03*
X797560Y641604D02*
D03*
Y658876D02*
D03*
X483870Y791210D02*
D03*
X509270D02*
D03*
Y810260D02*
D03*
X483870D02*
D03*
X927100Y695960D02*
D03*
Y678180D02*
D03*
X597641Y802473D02*
D03*
X796290Y756920D02*
D03*
X770890D02*
D03*
X593090D02*
D03*
X566420D02*
D03*
X363220D02*
D03*
X391160D02*
D03*
M02*
