G04*
G04 #@! TF.GenerationSoftware,Altium Limited,Altium Designer,25.6.2 (33)*
G04*
G04 Layer_Physical_Order=2*
G04 Layer_Color=36540*
%FSLAX44Y44*%
%MOMM*%
G71*
G04*
G04 #@! TF.SameCoordinates,B66254A1-9C9F-40BD-847D-07FD7BB7023C*
G04*
G04*
G04 #@! TF.FilePolarity,Positive*
G04*
G01*
G75*
%ADD28C,1.5240*%
%ADD61C,2.2500*%
%ADD62C,1.6500*%
%ADD63C,1.3580*%
%ADD64R,1.3580X1.3580*%
%ADD65R,2.7432X2.7432*%
%ADD66C,2.7432*%
%ADD67C,3.2000*%
G04:AMPARAMS|DCode=68|XSize=1.6mm|YSize=1.6mm|CornerRadius=0.4mm|HoleSize=0mm|Usage=FLASHONLY|Rotation=270.000|XOffset=0mm|YOffset=0mm|HoleType=Round|Shape=RoundedRectangle|*
%AMROUNDEDRECTD68*
21,1,1.6000,0.8000,0,0,270.0*
21,1,0.8000,1.6000,0,0,270.0*
1,1,0.8000,-0.4000,-0.4000*
1,1,0.8000,-0.4000,0.4000*
1,1,0.8000,0.4000,0.4000*
1,1,0.8000,0.4000,-0.4000*
%
%ADD68ROUNDEDRECTD68*%
%ADD69C,1.6050*%
%ADD70C,4.8000*%
G04:AMPARAMS|DCode=71|XSize=1.65mm|YSize=1.65mm|CornerRadius=0.4125mm|HoleSize=0mm|Usage=FLASHONLY|Rotation=270.000|XOffset=0mm|YOffset=0mm|HoleType=Round|Shape=RoundedRectangle|*
%AMROUNDEDRECTD71*
21,1,1.6500,0.8250,0,0,270.0*
21,1,0.8250,1.6500,0,0,270.0*
1,1,0.8250,-0.4125,-0.4125*
1,1,0.8250,-0.4125,0.4125*
1,1,0.8250,0.4125,0.4125*
1,1,0.8250,0.4125,-0.4125*
%
%ADD71ROUNDEDRECTD71*%
%ADD72C,2.4130*%
G04:AMPARAMS|DCode=73|XSize=1.65mm|YSize=1.65mm|CornerRadius=0.4125mm|HoleSize=0mm|Usage=FLASHONLY|Rotation=0.000|XOffset=0mm|YOffset=0mm|HoleType=Round|Shape=RoundedRectangle|*
%AMROUNDEDRECTD73*
21,1,1.6500,0.8250,0,0,0.0*
21,1,0.8250,1.6500,0,0,0.0*
1,1,0.8250,0.4125,-0.4125*
1,1,0.8250,-0.4125,-0.4125*
1,1,0.8250,-0.4125,0.4125*
1,1,0.8250,0.4125,0.4125*
%
%ADD73ROUNDEDRECTD73*%
%ADD74C,1.6000*%
%ADD75C,1.0000*%
%ADD76C,1.2700*%
G36*
X1229954Y1276340D02*
X1226559Y1273441D01*
X1223181Y1269485D01*
X1220463Y1265050D01*
X1218472Y1260244D01*
X1217258Y1255186D01*
X1216850Y1250000D01*
X1217258Y1244814D01*
X1218472Y1239756D01*
X1220463Y1234950D01*
X1223181Y1230515D01*
X1226559Y1226559D01*
X1230515Y1223181D01*
X1234950Y1220463D01*
X1239756Y1218472D01*
X1244814Y1217258D01*
X1250000Y1216850D01*
X1255186Y1217258D01*
X1260244Y1218472D01*
X1265050Y1220463D01*
X1269485Y1223181D01*
X1273441Y1226559D01*
X1276340Y1229954D01*
X1278372Y1229219D01*
Y583474D01*
X1276340Y583206D01*
X1276079Y584178D01*
X1275220Y585666D01*
X1274006Y586880D01*
X1272518Y587739D01*
X1270859Y588184D01*
X1269141D01*
X1267482Y587739D01*
X1265994Y586880D01*
X1264780Y585666D01*
X1263921Y584178D01*
X1263476Y582519D01*
Y580801D01*
X1263921Y579142D01*
X1264780Y577654D01*
X1265994Y576440D01*
X1267482Y575581D01*
X1269141Y575136D01*
X1270859D01*
X1272518Y575581D01*
X1274006Y576440D01*
X1275220Y577654D01*
X1276079Y579142D01*
X1276340Y580114D01*
X1278372Y579846D01*
Y370781D01*
X1276340Y370046D01*
X1273441Y373441D01*
X1269485Y376819D01*
X1265050Y379537D01*
X1260244Y381528D01*
X1255186Y382742D01*
X1250000Y383150D01*
X1244814Y382742D01*
X1239756Y381528D01*
X1234950Y379537D01*
X1230515Y376819D01*
X1226559Y373441D01*
X1223181Y369485D01*
X1220463Y365050D01*
X1218472Y360244D01*
X1217258Y355186D01*
X1216850Y350000D01*
X1217258Y344814D01*
X1218472Y339756D01*
X1220463Y334950D01*
X1223181Y330515D01*
X1226559Y326559D01*
X1229954Y323660D01*
X1229219Y321628D01*
X370781D01*
X370046Y323660D01*
X373441Y326559D01*
X376819Y330515D01*
X379537Y334950D01*
X381528Y339756D01*
X382742Y344814D01*
X383150Y350000D01*
X382742Y355186D01*
X381528Y360244D01*
X379537Y365050D01*
X376819Y369485D01*
X373441Y373441D01*
X369485Y376819D01*
X365050Y379537D01*
X360244Y381528D01*
X355186Y382742D01*
X350000Y383150D01*
X344814Y382742D01*
X339756Y381528D01*
X334950Y379537D01*
X330515Y376819D01*
X326559Y373441D01*
X323660Y370046D01*
X321628Y370781D01*
Y1229219D01*
X323660Y1229954D01*
X326559Y1226559D01*
X330515Y1223181D01*
X334950Y1220463D01*
X339756Y1218472D01*
X344814Y1217258D01*
X350000Y1216850D01*
X355186Y1217258D01*
X360244Y1218472D01*
X365050Y1220463D01*
X369485Y1223181D01*
X373441Y1226559D01*
X376819Y1230515D01*
X379537Y1234950D01*
X381528Y1239756D01*
X382742Y1244814D01*
X383150Y1250000D01*
X382742Y1255186D01*
X381528Y1260244D01*
X379537Y1265050D01*
X376819Y1269485D01*
X373441Y1273441D01*
X370046Y1276340D01*
X370781Y1278372D01*
X1229219D01*
X1229954Y1276340D01*
D02*
G37*
%LPC*%
G36*
X704439Y1172384D02*
X702721D01*
X701062Y1171939D01*
X699574Y1171080D01*
X698360Y1169866D01*
X697501Y1168378D01*
X697056Y1166719D01*
Y1165001D01*
X697501Y1163342D01*
X698360Y1161854D01*
X699574Y1160639D01*
X701062Y1159781D01*
X702721Y1159336D01*
X704439D01*
X706098Y1159781D01*
X707586Y1160639D01*
X708801Y1161854D01*
X709659Y1163342D01*
X710104Y1165001D01*
Y1166719D01*
X709659Y1168378D01*
X708801Y1169866D01*
X707586Y1171080D01*
X706098Y1171939D01*
X704439Y1172384D01*
D02*
G37*
G36*
X410687Y1123444D02*
X408113D01*
X405627Y1122778D01*
X403399Y1121491D01*
X401579Y1119671D01*
X400292Y1117443D01*
X399626Y1114957D01*
Y1112383D01*
X400292Y1109897D01*
X401579Y1107669D01*
X403399Y1105849D01*
X405627Y1104562D01*
X408113Y1103896D01*
X410687D01*
X413173Y1104562D01*
X415401Y1105849D01*
X417221Y1107669D01*
X418508Y1109897D01*
X419174Y1112383D01*
Y1114957D01*
X418508Y1117443D01*
X417221Y1119671D01*
X415401Y1121491D01*
X413173Y1122778D01*
X410687Y1123444D01*
D02*
G37*
G36*
Y1095744D02*
X408113D01*
X405627Y1095078D01*
X403399Y1093791D01*
X401579Y1091971D01*
X400292Y1089743D01*
X399626Y1087257D01*
Y1084683D01*
X400292Y1082197D01*
X401579Y1079969D01*
X403399Y1078149D01*
X405627Y1076862D01*
X408113Y1076196D01*
X410687D01*
X413173Y1076862D01*
X415401Y1078149D01*
X417221Y1079969D01*
X418508Y1082197D01*
X419174Y1084683D01*
Y1087257D01*
X418508Y1089743D01*
X417221Y1091971D01*
X415401Y1093791D01*
X413173Y1095078D01*
X410687Y1095744D01*
D02*
G37*
G36*
X902559Y1083484D02*
X900841D01*
X899182Y1083039D01*
X897694Y1082180D01*
X896479Y1080966D01*
X895621Y1079478D01*
X895176Y1077819D01*
Y1076101D01*
X895621Y1074442D01*
X896479Y1072954D01*
X897694Y1071740D01*
X899182Y1070881D01*
X900841Y1070436D01*
X902559D01*
X904218Y1070881D01*
X905706Y1071740D01*
X906920Y1072954D01*
X907779Y1074442D01*
X908224Y1076101D01*
Y1077819D01*
X907779Y1079478D01*
X906920Y1080966D01*
X905706Y1082180D01*
X904218Y1083039D01*
X902559Y1083484D01*
D02*
G37*
G36*
X841599D02*
X839881D01*
X838222Y1083039D01*
X836734Y1082180D01*
X835519Y1080966D01*
X834661Y1079478D01*
X834216Y1077819D01*
Y1076101D01*
X834661Y1074442D01*
X835519Y1072954D01*
X836734Y1071740D01*
X838222Y1070881D01*
X839881Y1070436D01*
X841599D01*
X843258Y1070881D01*
X844746Y1071740D01*
X845960Y1072954D01*
X846819Y1074442D01*
X847264Y1076101D01*
Y1077819D01*
X846819Y1079478D01*
X845960Y1080966D01*
X844746Y1082180D01*
X843258Y1083039D01*
X841599Y1083484D01*
D02*
G37*
G36*
X729839D02*
X728121D01*
X726462Y1083039D01*
X724974Y1082180D01*
X723760Y1080966D01*
X722901Y1079478D01*
X722456Y1077819D01*
Y1076101D01*
X722901Y1074442D01*
X723760Y1072954D01*
X724974Y1071740D01*
X726462Y1070881D01*
X728121Y1070436D01*
X729839D01*
X731498Y1070881D01*
X732986Y1071740D01*
X734201Y1072954D01*
X735059Y1074442D01*
X735504Y1076101D01*
Y1077819D01*
X735059Y1079478D01*
X734201Y1080966D01*
X732986Y1082180D01*
X731498Y1083039D01*
X729839Y1083484D01*
D02*
G37*
G36*
X663799Y1075864D02*
X662081D01*
X660422Y1075419D01*
X658934Y1074560D01*
X657719Y1073346D01*
X656861Y1071858D01*
X656416Y1070199D01*
Y1068481D01*
X656861Y1066822D01*
X657719Y1065334D01*
X658934Y1064119D01*
X660422Y1063261D01*
X662081Y1062816D01*
X663799D01*
X665458Y1063261D01*
X666946Y1064119D01*
X668160Y1065334D01*
X669019Y1066822D01*
X669464Y1068481D01*
Y1070199D01*
X669019Y1071858D01*
X668160Y1073346D01*
X666946Y1074560D01*
X665458Y1075419D01*
X663799Y1075864D01*
D02*
G37*
G36*
X410687Y1068044D02*
X408113D01*
X405627Y1067378D01*
X403399Y1066091D01*
X401579Y1064271D01*
X400292Y1062043D01*
X399626Y1059557D01*
Y1056983D01*
X400292Y1054497D01*
X401579Y1052269D01*
X403399Y1050449D01*
X405627Y1049162D01*
X408113Y1048496D01*
X410687D01*
X413173Y1049162D01*
X415401Y1050449D01*
X417221Y1052269D01*
X418508Y1054497D01*
X419174Y1056983D01*
Y1059557D01*
X418508Y1062043D01*
X417221Y1064271D01*
X415401Y1066091D01*
X413173Y1067378D01*
X410687Y1068044D01*
D02*
G37*
G36*
Y1040344D02*
X408113D01*
X405627Y1039678D01*
X403399Y1038391D01*
X401579Y1036571D01*
X400292Y1034343D01*
X399626Y1031857D01*
Y1029283D01*
X400292Y1026797D01*
X401579Y1024569D01*
X403399Y1022749D01*
X405627Y1021462D01*
X408113Y1020796D01*
X410687D01*
X413173Y1021462D01*
X415401Y1022749D01*
X417221Y1024569D01*
X418508Y1026797D01*
X419174Y1029283D01*
Y1031857D01*
X418508Y1034343D01*
X417221Y1036571D01*
X415401Y1038391D01*
X413173Y1039678D01*
X410687Y1040344D01*
D02*
G37*
G36*
X953237Y1033034D02*
X950663D01*
X948177Y1032368D01*
X945949Y1031081D01*
X944129Y1029261D01*
X942842Y1027033D01*
X942176Y1024547D01*
Y1021973D01*
X942842Y1019487D01*
X944129Y1017259D01*
X945949Y1015439D01*
X948177Y1014152D01*
X950663Y1013486D01*
X953237D01*
X955723Y1014152D01*
X957951Y1015439D01*
X959771Y1017259D01*
X961058Y1019487D01*
X961724Y1021973D01*
Y1024547D01*
X961058Y1027033D01*
X959771Y1029261D01*
X957951Y1031081D01*
X955723Y1032368D01*
X953237Y1033034D01*
D02*
G37*
G36*
X927837D02*
X925263D01*
X922777Y1032368D01*
X920549Y1031081D01*
X918729Y1029261D01*
X917442Y1027033D01*
X916776Y1024547D01*
Y1021973D01*
X917442Y1019487D01*
X918729Y1017259D01*
X920549Y1015439D01*
X922777Y1014152D01*
X925263Y1013486D01*
X927837D01*
X930323Y1014152D01*
X932551Y1015439D01*
X934371Y1017259D01*
X935658Y1019487D01*
X936324Y1021973D01*
Y1024547D01*
X935658Y1027033D01*
X934371Y1029261D01*
X932551Y1031081D01*
X930323Y1032368D01*
X927837Y1033034D01*
D02*
G37*
G36*
X902437D02*
X899863D01*
X897377Y1032368D01*
X895149Y1031081D01*
X893329Y1029261D01*
X892042Y1027033D01*
X891376Y1024547D01*
Y1021973D01*
X892042Y1019487D01*
X893329Y1017259D01*
X895149Y1015439D01*
X897377Y1014152D01*
X899863Y1013486D01*
X902437D01*
X904923Y1014152D01*
X907151Y1015439D01*
X908971Y1017259D01*
X910258Y1019487D01*
X910924Y1021973D01*
Y1024547D01*
X910258Y1027033D01*
X908971Y1029261D01*
X907151Y1031081D01*
X904923Y1032368D01*
X902437Y1033034D01*
D02*
G37*
G36*
X877037D02*
X874463D01*
X871977Y1032368D01*
X869749Y1031081D01*
X867929Y1029261D01*
X866642Y1027033D01*
X865976Y1024547D01*
Y1021973D01*
X866642Y1019487D01*
X867929Y1017259D01*
X869749Y1015439D01*
X871977Y1014152D01*
X874463Y1013486D01*
X877037D01*
X879523Y1014152D01*
X881751Y1015439D01*
X883571Y1017259D01*
X884858Y1019487D01*
X885524Y1021973D01*
Y1024547D01*
X884858Y1027033D01*
X883571Y1029261D01*
X881751Y1031081D01*
X879523Y1032368D01*
X877037Y1033034D01*
D02*
G37*
G36*
X851637D02*
X849063D01*
X846577Y1032368D01*
X844349Y1031081D01*
X842529Y1029261D01*
X841242Y1027033D01*
X840576Y1024547D01*
Y1021973D01*
X841242Y1019487D01*
X842529Y1017259D01*
X844349Y1015439D01*
X846577Y1014152D01*
X849063Y1013486D01*
X851637D01*
X854123Y1014152D01*
X856351Y1015439D01*
X858171Y1017259D01*
X859458Y1019487D01*
X860124Y1021973D01*
Y1024547D01*
X859458Y1027033D01*
X858171Y1029261D01*
X856351Y1031081D01*
X854123Y1032368D01*
X851637Y1033034D01*
D02*
G37*
G36*
X826237D02*
X823663D01*
X821177Y1032368D01*
X818949Y1031081D01*
X817129Y1029261D01*
X815842Y1027033D01*
X815176Y1024547D01*
Y1021973D01*
X815842Y1019487D01*
X817129Y1017259D01*
X818949Y1015439D01*
X821177Y1014152D01*
X823663Y1013486D01*
X826237D01*
X828723Y1014152D01*
X830951Y1015439D01*
X832771Y1017259D01*
X834058Y1019487D01*
X834724Y1021973D01*
Y1024547D01*
X834058Y1027033D01*
X832771Y1029261D01*
X830951Y1031081D01*
X828723Y1032368D01*
X826237Y1033034D01*
D02*
G37*
G36*
X800837D02*
X798263D01*
X795777Y1032368D01*
X793549Y1031081D01*
X791729Y1029261D01*
X790442Y1027033D01*
X789776Y1024547D01*
Y1021973D01*
X790442Y1019487D01*
X791729Y1017259D01*
X793549Y1015439D01*
X795777Y1014152D01*
X798263Y1013486D01*
X800837D01*
X803323Y1014152D01*
X805551Y1015439D01*
X807371Y1017259D01*
X808658Y1019487D01*
X809324Y1021973D01*
Y1024547D01*
X808658Y1027033D01*
X807371Y1029261D01*
X805551Y1031081D01*
X803323Y1032368D01*
X800837Y1033034D01*
D02*
G37*
G36*
X775437D02*
X772863D01*
X770377Y1032368D01*
X768149Y1031081D01*
X766329Y1029261D01*
X765042Y1027033D01*
X764376Y1024547D01*
Y1021973D01*
X765042Y1019487D01*
X766329Y1017259D01*
X768149Y1015439D01*
X770377Y1014152D01*
X772863Y1013486D01*
X775437D01*
X777923Y1014152D01*
X780151Y1015439D01*
X781971Y1017259D01*
X783258Y1019487D01*
X783924Y1021973D01*
Y1024547D01*
X783258Y1027033D01*
X781971Y1029261D01*
X780151Y1031081D01*
X777923Y1032368D01*
X775437Y1033034D01*
D02*
G37*
G36*
X750037D02*
X747463D01*
X744977Y1032368D01*
X742749Y1031081D01*
X740929Y1029261D01*
X739642Y1027033D01*
X738976Y1024547D01*
Y1021973D01*
X739642Y1019487D01*
X740929Y1017259D01*
X742749Y1015439D01*
X744977Y1014152D01*
X747463Y1013486D01*
X750037D01*
X752523Y1014152D01*
X754751Y1015439D01*
X756571Y1017259D01*
X757858Y1019487D01*
X758524Y1021973D01*
Y1024547D01*
X757858Y1027033D01*
X756571Y1029261D01*
X754751Y1031081D01*
X752523Y1032368D01*
X750037Y1033034D01*
D02*
G37*
G36*
X724637D02*
X722063D01*
X719577Y1032368D01*
X717349Y1031081D01*
X715529Y1029261D01*
X714242Y1027033D01*
X713576Y1024547D01*
Y1021973D01*
X714242Y1019487D01*
X715529Y1017259D01*
X717349Y1015439D01*
X719577Y1014152D01*
X722063Y1013486D01*
X724637D01*
X727123Y1014152D01*
X729351Y1015439D01*
X731171Y1017259D01*
X732458Y1019487D01*
X733124Y1021973D01*
Y1024547D01*
X732458Y1027033D01*
X731171Y1029261D01*
X729351Y1031081D01*
X727123Y1032368D01*
X724637Y1033034D01*
D02*
G37*
G36*
X699237D02*
X696663D01*
X694177Y1032368D01*
X691949Y1031081D01*
X690129Y1029261D01*
X688842Y1027033D01*
X688176Y1024547D01*
Y1021973D01*
X688842Y1019487D01*
X690129Y1017259D01*
X691949Y1015439D01*
X694177Y1014152D01*
X696663Y1013486D01*
X699237D01*
X701723Y1014152D01*
X703951Y1015439D01*
X705771Y1017259D01*
X707058Y1019487D01*
X707724Y1021973D01*
Y1024547D01*
X707058Y1027033D01*
X705771Y1029261D01*
X703951Y1031081D01*
X701723Y1032368D01*
X699237Y1033034D01*
D02*
G37*
G36*
X673837D02*
X671263D01*
X668777Y1032368D01*
X666549Y1031081D01*
X664729Y1029261D01*
X663442Y1027033D01*
X662776Y1024547D01*
Y1021973D01*
X663442Y1019487D01*
X664729Y1017259D01*
X666549Y1015439D01*
X668777Y1014152D01*
X671263Y1013486D01*
X673837D01*
X676323Y1014152D01*
X678551Y1015439D01*
X680371Y1017259D01*
X681658Y1019487D01*
X682324Y1021973D01*
Y1024547D01*
X681658Y1027033D01*
X680371Y1029261D01*
X678551Y1031081D01*
X676323Y1032368D01*
X673837Y1033034D01*
D02*
G37*
G36*
X648437D02*
X645863D01*
X643377Y1032368D01*
X641149Y1031081D01*
X639329Y1029261D01*
X638042Y1027033D01*
X637376Y1024547D01*
Y1021973D01*
X638042Y1019487D01*
X639329Y1017259D01*
X641149Y1015439D01*
X643377Y1014152D01*
X645863Y1013486D01*
X648437D01*
X650923Y1014152D01*
X653151Y1015439D01*
X654971Y1017259D01*
X656258Y1019487D01*
X656924Y1021973D01*
Y1024547D01*
X656258Y1027033D01*
X654971Y1029261D01*
X653151Y1031081D01*
X650923Y1032368D01*
X648437Y1033034D01*
D02*
G37*
G36*
X625875Y1033145D02*
X617625D01*
X615421Y1032706D01*
X613552Y1031458D01*
X612304Y1029589D01*
X611865Y1027385D01*
Y1019135D01*
X612304Y1016931D01*
X613552Y1015062D01*
X615421Y1013814D01*
X617625Y1013375D01*
X625875D01*
X628079Y1013814D01*
X629948Y1015062D01*
X631196Y1016931D01*
X631635Y1019135D01*
Y1027385D01*
X631196Y1029589D01*
X629948Y1031458D01*
X628079Y1032706D01*
X625875Y1033145D01*
D02*
G37*
G36*
X410687Y1012644D02*
X408113D01*
X405627Y1011978D01*
X403399Y1010691D01*
X401579Y1008871D01*
X400292Y1006643D01*
X399626Y1004157D01*
Y1001583D01*
X400292Y999097D01*
X401579Y996869D01*
X403399Y995049D01*
X405627Y993762D01*
X408113Y993096D01*
X410687D01*
X413173Y993762D01*
X415401Y995049D01*
X417221Y996869D01*
X418508Y999097D01*
X419174Y1001583D01*
Y1004157D01*
X418508Y1006643D01*
X417221Y1008871D01*
X415401Y1010691D01*
X413173Y1011978D01*
X410687Y1012644D01*
D02*
G37*
G36*
X953237Y1007634D02*
X950663D01*
X948177Y1006968D01*
X945949Y1005681D01*
X944129Y1003861D01*
X942842Y1001633D01*
X942176Y999147D01*
Y996573D01*
X942842Y994087D01*
X944129Y991859D01*
X945949Y990039D01*
X948177Y988752D01*
X950663Y988086D01*
X953237D01*
X955723Y988752D01*
X957951Y990039D01*
X959771Y991859D01*
X961058Y994087D01*
X961724Y996573D01*
Y999147D01*
X961058Y1001633D01*
X959771Y1003861D01*
X957951Y1005681D01*
X955723Y1006968D01*
X953237Y1007634D01*
D02*
G37*
G36*
X927837D02*
X925263D01*
X922777Y1006968D01*
X920549Y1005681D01*
X918729Y1003861D01*
X917442Y1001633D01*
X916776Y999147D01*
Y996573D01*
X917442Y994087D01*
X918729Y991859D01*
X920549Y990039D01*
X922777Y988752D01*
X925263Y988086D01*
X927837D01*
X930323Y988752D01*
X932551Y990039D01*
X934371Y991859D01*
X935658Y994087D01*
X936324Y996573D01*
Y999147D01*
X935658Y1001633D01*
X934371Y1003861D01*
X932551Y1005681D01*
X930323Y1006968D01*
X927837Y1007634D01*
D02*
G37*
G36*
X902437D02*
X899863D01*
X897377Y1006968D01*
X895149Y1005681D01*
X893329Y1003861D01*
X892042Y1001633D01*
X891376Y999147D01*
Y996573D01*
X892042Y994087D01*
X893329Y991859D01*
X895149Y990039D01*
X897377Y988752D01*
X899863Y988086D01*
X902437D01*
X904923Y988752D01*
X907151Y990039D01*
X908971Y991859D01*
X910258Y994087D01*
X910924Y996573D01*
Y999147D01*
X910258Y1001633D01*
X908971Y1003861D01*
X907151Y1005681D01*
X904923Y1006968D01*
X902437Y1007634D01*
D02*
G37*
G36*
X877037D02*
X874463D01*
X871977Y1006968D01*
X869749Y1005681D01*
X867929Y1003861D01*
X866642Y1001633D01*
X865976Y999147D01*
Y996573D01*
X866642Y994087D01*
X867929Y991859D01*
X869749Y990039D01*
X871977Y988752D01*
X874463Y988086D01*
X877037D01*
X879523Y988752D01*
X881751Y990039D01*
X883571Y991859D01*
X884858Y994087D01*
X885524Y996573D01*
Y999147D01*
X884858Y1001633D01*
X883571Y1003861D01*
X881751Y1005681D01*
X879523Y1006968D01*
X877037Y1007634D01*
D02*
G37*
G36*
X851637D02*
X849063D01*
X846577Y1006968D01*
X844349Y1005681D01*
X842529Y1003861D01*
X841242Y1001633D01*
X840576Y999147D01*
Y996573D01*
X841242Y994087D01*
X842529Y991859D01*
X844349Y990039D01*
X846577Y988752D01*
X849063Y988086D01*
X851637D01*
X854123Y988752D01*
X856351Y990039D01*
X858171Y991859D01*
X859458Y994087D01*
X860124Y996573D01*
Y999147D01*
X859458Y1001633D01*
X858171Y1003861D01*
X856351Y1005681D01*
X854123Y1006968D01*
X851637Y1007634D01*
D02*
G37*
G36*
X826237D02*
X823663D01*
X821177Y1006968D01*
X818949Y1005681D01*
X817129Y1003861D01*
X815842Y1001633D01*
X815176Y999147D01*
Y996573D01*
X815842Y994087D01*
X817129Y991859D01*
X818949Y990039D01*
X821177Y988752D01*
X823663Y988086D01*
X826237D01*
X828723Y988752D01*
X830951Y990039D01*
X832771Y991859D01*
X834058Y994087D01*
X834724Y996573D01*
Y999147D01*
X834058Y1001633D01*
X832771Y1003861D01*
X830951Y1005681D01*
X828723Y1006968D01*
X826237Y1007634D01*
D02*
G37*
G36*
X800837D02*
X798263D01*
X795777Y1006968D01*
X793549Y1005681D01*
X791729Y1003861D01*
X790442Y1001633D01*
X789776Y999147D01*
Y996573D01*
X790442Y994087D01*
X791729Y991859D01*
X793549Y990039D01*
X795777Y988752D01*
X798263Y988086D01*
X800837D01*
X803323Y988752D01*
X805551Y990039D01*
X807371Y991859D01*
X808658Y994087D01*
X809324Y996573D01*
Y999147D01*
X808658Y1001633D01*
X807371Y1003861D01*
X805551Y1005681D01*
X803323Y1006968D01*
X800837Y1007634D01*
D02*
G37*
G36*
X775437D02*
X772863D01*
X770377Y1006968D01*
X768149Y1005681D01*
X766329Y1003861D01*
X765042Y1001633D01*
X764376Y999147D01*
Y996573D01*
X765042Y994087D01*
X766329Y991859D01*
X768149Y990039D01*
X770377Y988752D01*
X772863Y988086D01*
X775437D01*
X777923Y988752D01*
X780151Y990039D01*
X781971Y991859D01*
X783258Y994087D01*
X783924Y996573D01*
Y999147D01*
X783258Y1001633D01*
X781971Y1003861D01*
X780151Y1005681D01*
X777923Y1006968D01*
X775437Y1007634D01*
D02*
G37*
G36*
X750037D02*
X747463D01*
X744977Y1006968D01*
X742749Y1005681D01*
X740929Y1003861D01*
X739642Y1001633D01*
X738976Y999147D01*
Y996573D01*
X739642Y994087D01*
X740929Y991859D01*
X742749Y990039D01*
X744977Y988752D01*
X747463Y988086D01*
X750037D01*
X752523Y988752D01*
X754751Y990039D01*
X756571Y991859D01*
X757858Y994087D01*
X758524Y996573D01*
Y999147D01*
X757858Y1001633D01*
X756571Y1003861D01*
X754751Y1005681D01*
X752523Y1006968D01*
X750037Y1007634D01*
D02*
G37*
G36*
X724637D02*
X722063D01*
X719577Y1006968D01*
X717349Y1005681D01*
X715529Y1003861D01*
X714242Y1001633D01*
X713576Y999147D01*
Y996573D01*
X714242Y994087D01*
X715529Y991859D01*
X717349Y990039D01*
X719577Y988752D01*
X722063Y988086D01*
X724637D01*
X727123Y988752D01*
X729351Y990039D01*
X731171Y991859D01*
X732458Y994087D01*
X733124Y996573D01*
Y999147D01*
X732458Y1001633D01*
X731171Y1003861D01*
X729351Y1005681D01*
X727123Y1006968D01*
X724637Y1007634D01*
D02*
G37*
G36*
X699237D02*
X696663D01*
X694177Y1006968D01*
X691949Y1005681D01*
X690129Y1003861D01*
X688842Y1001633D01*
X688176Y999147D01*
Y996573D01*
X688842Y994087D01*
X690129Y991859D01*
X691949Y990039D01*
X694177Y988752D01*
X696663Y988086D01*
X699237D01*
X701723Y988752D01*
X703951Y990039D01*
X705771Y991859D01*
X707058Y994087D01*
X707724Y996573D01*
Y999147D01*
X707058Y1001633D01*
X705771Y1003861D01*
X703951Y1005681D01*
X701723Y1006968D01*
X699237Y1007634D01*
D02*
G37*
G36*
X673837D02*
X671263D01*
X668777Y1006968D01*
X666549Y1005681D01*
X664729Y1003861D01*
X663442Y1001633D01*
X662776Y999147D01*
Y996573D01*
X663442Y994087D01*
X664729Y991859D01*
X666549Y990039D01*
X668777Y988752D01*
X671263Y988086D01*
X673837D01*
X676323Y988752D01*
X678551Y990039D01*
X680371Y991859D01*
X681658Y994087D01*
X682324Y996573D01*
Y999147D01*
X681658Y1001633D01*
X680371Y1003861D01*
X678551Y1005681D01*
X676323Y1006968D01*
X673837Y1007634D01*
D02*
G37*
G36*
X648437D02*
X645863D01*
X643377Y1006968D01*
X641149Y1005681D01*
X639329Y1003861D01*
X638042Y1001633D01*
X637376Y999147D01*
Y996573D01*
X638042Y994087D01*
X639329Y991859D01*
X641149Y990039D01*
X643377Y988752D01*
X645863Y988086D01*
X648437D01*
X650923Y988752D01*
X653151Y990039D01*
X654971Y991859D01*
X656258Y994087D01*
X656924Y996573D01*
Y999147D01*
X656258Y1001633D01*
X654971Y1003861D01*
X653151Y1005681D01*
X650923Y1006968D01*
X648437Y1007634D01*
D02*
G37*
G36*
X623037D02*
X620463D01*
X617977Y1006968D01*
X615749Y1005681D01*
X613929Y1003861D01*
X612642Y1001633D01*
X611976Y999147D01*
Y996573D01*
X612642Y994087D01*
X613929Y991859D01*
X615749Y990039D01*
X617977Y988752D01*
X620463Y988086D01*
X623037D01*
X625523Y988752D01*
X627751Y990039D01*
X629571Y991859D01*
X630858Y994087D01*
X631524Y996573D01*
Y999147D01*
X630858Y1001633D01*
X629571Y1003861D01*
X627751Y1005681D01*
X625523Y1006968D01*
X623037Y1007634D01*
D02*
G37*
G36*
X410687Y984944D02*
X408113D01*
X405627Y984278D01*
X403399Y982991D01*
X401579Y981171D01*
X400292Y978943D01*
X399626Y976457D01*
Y973883D01*
X400292Y971397D01*
X401579Y969169D01*
X403399Y967349D01*
X405627Y966062D01*
X408113Y965396D01*
X410687D01*
X413173Y966062D01*
X415401Y967349D01*
X417221Y969169D01*
X418508Y971397D01*
X419174Y973883D01*
Y976457D01*
X418508Y978943D01*
X417221Y981171D01*
X415401Y982991D01*
X413173Y984278D01*
X410687Y984944D01*
D02*
G37*
G36*
X382287Y971094D02*
X379713D01*
X377227Y970428D01*
X374999Y969141D01*
X373179Y967321D01*
X371892Y965093D01*
X371226Y962607D01*
Y960033D01*
X371892Y957547D01*
X373179Y955319D01*
X374999Y953499D01*
X377227Y952212D01*
X379713Y951546D01*
X382287D01*
X384773Y952212D01*
X387001Y953499D01*
X388821Y955319D01*
X390108Y957547D01*
X390774Y960033D01*
Y962607D01*
X390108Y965093D01*
X388821Y967321D01*
X387001Y969141D01*
X384773Y970428D01*
X382287Y971094D01*
D02*
G37*
G36*
X410687Y957244D02*
X408113D01*
X405627Y956578D01*
X403399Y955291D01*
X401579Y953471D01*
X400292Y951243D01*
X399626Y948757D01*
Y946183D01*
X400292Y943697D01*
X401579Y941469D01*
X403399Y939649D01*
X405627Y938362D01*
X408113Y937696D01*
X410687D01*
X413173Y938362D01*
X415401Y939649D01*
X417221Y941469D01*
X418508Y943697D01*
X419174Y946183D01*
Y948757D01*
X418508Y951243D01*
X417221Y953471D01*
X415401Y955291D01*
X413173Y956578D01*
X410687Y957244D01*
D02*
G37*
G36*
X1029407Y956609D02*
X1026893D01*
X1024464Y955958D01*
X1022287Y954701D01*
X1020509Y952923D01*
X1019252Y950746D01*
X1018601Y948317D01*
Y945803D01*
X1019252Y943374D01*
X1020509Y941197D01*
X1022287Y939419D01*
X1024464Y938162D01*
X1026893Y937511D01*
X1029407D01*
X1031836Y938162D01*
X1034013Y939419D01*
X1035791Y941197D01*
X1037048Y943374D01*
X1037699Y945803D01*
Y948317D01*
X1037048Y950746D01*
X1035791Y952923D01*
X1034013Y954701D01*
X1031836Y955958D01*
X1029407Y956609D01*
D02*
G37*
G36*
X1004007D02*
X1001493D01*
X999064Y955958D01*
X996887Y954701D01*
X995109Y952923D01*
X993852Y950746D01*
X993201Y948317D01*
Y945803D01*
X993852Y943374D01*
X995109Y941197D01*
X996887Y939419D01*
X999064Y938162D01*
X1001493Y937511D01*
X1004007D01*
X1006436Y938162D01*
X1008613Y939419D01*
X1010391Y941197D01*
X1011648Y943374D01*
X1012299Y945803D01*
Y948317D01*
X1011648Y950746D01*
X1010391Y952923D01*
X1008613Y954701D01*
X1006436Y955958D01*
X1004007Y956609D01*
D02*
G37*
G36*
X382287Y943394D02*
X379713D01*
X377227Y942728D01*
X374999Y941441D01*
X373179Y939621D01*
X371892Y937393D01*
X371226Y934907D01*
Y932333D01*
X371892Y929847D01*
X373179Y927619D01*
X374999Y925799D01*
X377227Y924512D01*
X379713Y923846D01*
X382287D01*
X384773Y924512D01*
X387001Y925799D01*
X388821Y927619D01*
X390108Y929847D01*
X390774Y932333D01*
Y934907D01*
X390108Y937393D01*
X388821Y939621D01*
X387001Y941441D01*
X384773Y942728D01*
X382287Y943394D01*
D02*
G37*
G36*
X1029407Y931209D02*
X1026893D01*
X1024464Y930558D01*
X1022287Y929301D01*
X1020509Y927523D01*
X1019252Y925346D01*
X1018601Y922917D01*
Y920403D01*
X1019252Y917974D01*
X1020509Y915797D01*
X1022287Y914019D01*
X1024464Y912762D01*
X1026893Y912111D01*
X1029407D01*
X1031836Y912762D01*
X1034013Y914019D01*
X1035791Y915797D01*
X1037048Y917974D01*
X1037699Y920403D01*
Y922917D01*
X1037048Y925346D01*
X1035791Y927523D01*
X1034013Y929301D01*
X1031836Y930558D01*
X1029407Y931209D01*
D02*
G37*
G36*
X1004007D02*
X1001493D01*
X999064Y930558D01*
X996887Y929301D01*
X995109Y927523D01*
X993852Y925346D01*
X993201Y922917D01*
Y920403D01*
X993852Y917974D01*
X995109Y915797D01*
X996887Y914019D01*
X999064Y912762D01*
X1001493Y912111D01*
X1004007D01*
X1006436Y912762D01*
X1008613Y914019D01*
X1010391Y915797D01*
X1011648Y917974D01*
X1012299Y920403D01*
Y922917D01*
X1011648Y925346D01*
X1010391Y927523D01*
X1008613Y929301D01*
X1006436Y930558D01*
X1004007Y931209D01*
D02*
G37*
G36*
X413525Y929655D02*
X405275D01*
X403071Y929216D01*
X401202Y927968D01*
X399954Y926099D01*
X399515Y923895D01*
Y915645D01*
X399954Y913441D01*
X401202Y911572D01*
X403071Y910324D01*
X405275Y909885D01*
X413525D01*
X415729Y910324D01*
X417598Y911572D01*
X418846Y913441D01*
X419285Y915645D01*
Y923895D01*
X418846Y926099D01*
X417598Y927968D01*
X415729Y929216D01*
X413525Y929655D01*
D02*
G37*
G36*
X746095Y913558D02*
X744377D01*
X742718Y913113D01*
X741230Y912254D01*
X740015Y911040D01*
X739157Y909552D01*
X738712Y907893D01*
Y906175D01*
X739157Y904516D01*
X740015Y903028D01*
X741230Y901814D01*
X742718Y900955D01*
X744377Y900510D01*
X746095D01*
X747754Y900955D01*
X749242Y901814D01*
X750456Y903028D01*
X751315Y904516D01*
X751760Y906175D01*
Y907893D01*
X751315Y909552D01*
X750456Y911040D01*
X749242Y912254D01*
X747754Y913113D01*
X746095Y913558D01*
D02*
G37*
G36*
X1029407Y905809D02*
X1026893D01*
X1024464Y905158D01*
X1022287Y903901D01*
X1020509Y902123D01*
X1019252Y899946D01*
X1018601Y897517D01*
Y895003D01*
X1019252Y892574D01*
X1020509Y890397D01*
X1022287Y888619D01*
X1024464Y887362D01*
X1026893Y886711D01*
X1029407D01*
X1031836Y887362D01*
X1034013Y888619D01*
X1035791Y890397D01*
X1037048Y892574D01*
X1037699Y895003D01*
Y897517D01*
X1037048Y899946D01*
X1035791Y902123D01*
X1034013Y903901D01*
X1031836Y905158D01*
X1029407Y905809D01*
D02*
G37*
G36*
X1004007D02*
X1001493D01*
X999064Y905158D01*
X996887Y903901D01*
X995109Y902123D01*
X993852Y899946D01*
X993201Y897517D01*
Y895003D01*
X993852Y892574D01*
X995109Y890397D01*
X996887Y888619D01*
X999064Y887362D01*
X1001493Y886711D01*
X1004007D01*
X1006436Y887362D01*
X1008613Y888619D01*
X1010391Y890397D01*
X1011648Y892574D01*
X1012299Y895003D01*
Y897517D01*
X1011648Y899946D01*
X1010391Y902123D01*
X1008613Y903901D01*
X1006436Y905158D01*
X1004007Y905809D01*
D02*
G37*
G36*
X473697Y898549D02*
X471183D01*
X468754Y897898D01*
X466577Y896641D01*
X464799Y894863D01*
X463542Y892686D01*
X462891Y890257D01*
Y887743D01*
X463542Y885314D01*
X464799Y883137D01*
X466577Y881359D01*
X468754Y880102D01*
X471183Y879451D01*
X473697D01*
X476126Y880102D01*
X478303Y881359D01*
X480081Y883137D01*
X481338Y885314D01*
X481989Y887743D01*
Y890257D01*
X481338Y892686D01*
X480081Y894863D01*
X478303Y896641D01*
X476126Y897898D01*
X473697Y898549D01*
D02*
G37*
G36*
X638399Y880284D02*
X636681D01*
X635022Y879839D01*
X633534Y878980D01*
X632319Y877766D01*
X631461Y876278D01*
X631016Y874619D01*
Y872901D01*
X631461Y871242D01*
X632319Y869754D01*
X633534Y868540D01*
X635022Y867681D01*
X636681Y867236D01*
X638399D01*
X640058Y867681D01*
X641546Y868540D01*
X642760Y869754D01*
X643619Y871242D01*
X644064Y872901D01*
Y874619D01*
X643619Y876278D01*
X642760Y877766D01*
X641546Y878980D01*
X640058Y879839D01*
X638399Y880284D01*
D02*
G37*
G36*
X473697Y873149D02*
X471183D01*
X468754Y872498D01*
X466577Y871241D01*
X464799Y869463D01*
X463542Y867286D01*
X462891Y864857D01*
Y862343D01*
X463542Y859914D01*
X464799Y857737D01*
X466577Y855959D01*
X468754Y854702D01*
X471183Y854051D01*
X473697D01*
X476126Y854702D01*
X478303Y855959D01*
X480081Y857737D01*
X481338Y859914D01*
X481989Y862343D01*
Y864857D01*
X481338Y867286D01*
X480081Y869463D01*
X478303Y871241D01*
X476126Y872498D01*
X473697Y873149D01*
D02*
G37*
G36*
X927959Y857424D02*
X926241D01*
X924582Y856979D01*
X923094Y856121D01*
X921880Y854906D01*
X921021Y853418D01*
X920576Y851759D01*
Y850041D01*
X921021Y848382D01*
X921880Y846894D01*
X923094Y845679D01*
X924582Y844821D01*
X926241Y844376D01*
X927959D01*
X929618Y844821D01*
X931106Y845679D01*
X932320Y846894D01*
X933179Y848382D01*
X933624Y850041D01*
Y851759D01*
X933179Y853418D01*
X932320Y854906D01*
X931106Y856121D01*
X929618Y856979D01*
X927959Y857424D01*
D02*
G37*
G36*
X473697Y847749D02*
X471183D01*
X468754Y847098D01*
X466577Y845841D01*
X464799Y844063D01*
X463542Y841886D01*
X462891Y839457D01*
Y836943D01*
X463542Y834514D01*
X464799Y832337D01*
X466577Y830559D01*
X468754Y829302D01*
X471183Y828651D01*
X473697D01*
X476126Y829302D01*
X478303Y830559D01*
X480081Y832337D01*
X481338Y834514D01*
X481989Y836943D01*
Y839457D01*
X481338Y841886D01*
X480081Y844063D01*
X478303Y845841D01*
X476126Y847098D01*
X473697Y847749D01*
D02*
G37*
G36*
X510307Y818134D02*
X508233D01*
X506231Y817597D01*
X504435Y816561D01*
X502969Y815095D01*
X501933Y813299D01*
X501396Y811297D01*
Y809223D01*
X501933Y807221D01*
X502969Y805425D01*
X504435Y803959D01*
X506231Y802923D01*
X508233Y802386D01*
X510307D01*
X512309Y802923D01*
X514105Y803959D01*
X515571Y805425D01*
X516607Y807221D01*
X517144Y809223D01*
Y811297D01*
X516607Y813299D01*
X515571Y815095D01*
X514105Y816561D01*
X512309Y817597D01*
X510307Y818134D01*
D02*
G37*
G36*
X484907D02*
X482833D01*
X480831Y817597D01*
X479035Y816561D01*
X477569Y815095D01*
X476533Y813299D01*
X475996Y811297D01*
Y809223D01*
X476533Y807221D01*
X477569Y805425D01*
X479035Y803959D01*
X480831Y802923D01*
X482833Y802386D01*
X484907D01*
X486909Y802923D01*
X488705Y803959D01*
X490171Y805425D01*
X491207Y807221D01*
X491744Y809223D01*
Y811297D01*
X491207Y813299D01*
X490171Y815095D01*
X488705Y816561D01*
X486909Y817597D01*
X484907Y818134D01*
D02*
G37*
G36*
X874619Y814244D02*
X872901D01*
X871242Y813799D01*
X869754Y812941D01*
X868540Y811726D01*
X867681Y810238D01*
X867236Y808579D01*
Y806861D01*
X867681Y805202D01*
X868540Y803714D01*
X869754Y802499D01*
X871242Y801641D01*
X872901Y801196D01*
X874619D01*
X876278Y801641D01*
X877766Y802499D01*
X878980Y803714D01*
X879839Y805202D01*
X880284Y806861D01*
Y808579D01*
X879839Y810238D01*
X878980Y811726D01*
X877766Y812941D01*
X876278Y813799D01*
X874619Y814244D01*
D02*
G37*
G36*
X732379D02*
X730661D01*
X729002Y813799D01*
X727514Y812941D01*
X726300Y811726D01*
X725441Y810238D01*
X724996Y808579D01*
Y806861D01*
X725441Y805202D01*
X726300Y803714D01*
X727514Y802499D01*
X729002Y801641D01*
X730661Y801196D01*
X732379D01*
X734038Y801641D01*
X735526Y802499D01*
X736740Y803714D01*
X737599Y805202D01*
X738044Y806861D01*
Y808579D01*
X737599Y810238D01*
X736740Y811726D01*
X735526Y812941D01*
X734038Y813799D01*
X732379Y814244D01*
D02*
G37*
G36*
X712059D02*
X710341D01*
X708682Y813799D01*
X707194Y812941D01*
X705980Y811726D01*
X705121Y810238D01*
X704676Y808579D01*
Y806861D01*
X705121Y805202D01*
X705980Y803714D01*
X707194Y802499D01*
X708682Y801641D01*
X710341Y801196D01*
X712059D01*
X713718Y801641D01*
X715206Y802499D01*
X716421Y803714D01*
X717279Y805202D01*
X717724Y806861D01*
Y808579D01*
X717279Y810238D01*
X716421Y811726D01*
X715206Y812941D01*
X713718Y813799D01*
X712059Y814244D01*
D02*
G37*
G36*
X691739D02*
X690021D01*
X688362Y813799D01*
X686874Y812941D01*
X685659Y811726D01*
X684801Y810238D01*
X684356Y808579D01*
Y806861D01*
X684801Y805202D01*
X685659Y803714D01*
X686874Y802499D01*
X688362Y801641D01*
X690021Y801196D01*
X691739D01*
X693398Y801641D01*
X694886Y802499D01*
X696100Y803714D01*
X696959Y805202D01*
X697404Y806861D01*
Y808579D01*
X696959Y810238D01*
X696100Y811726D01*
X694886Y812941D01*
X693398Y813799D01*
X691739Y814244D01*
D02*
G37*
G36*
X800959Y809164D02*
X799241D01*
X797582Y808719D01*
X796094Y807860D01*
X794880Y806646D01*
X794021Y805158D01*
X793576Y803499D01*
Y801781D01*
X794021Y800122D01*
X794880Y798634D01*
X796094Y797420D01*
X797582Y796561D01*
X799241Y796116D01*
X800959D01*
X802618Y796561D01*
X804106Y797420D01*
X805321Y798634D01*
X806179Y800122D01*
X806624Y801781D01*
Y803499D01*
X806179Y805158D01*
X805321Y806646D01*
X804106Y807860D01*
X802618Y808719D01*
X800959Y809164D01*
D02*
G37*
G36*
X394559D02*
X392841D01*
X391182Y808719D01*
X389694Y807860D01*
X388479Y806646D01*
X387621Y805158D01*
X387176Y803499D01*
Y801781D01*
X387621Y800122D01*
X388479Y798634D01*
X389694Y797420D01*
X391182Y796561D01*
X392841Y796116D01*
X394559D01*
X396218Y796561D01*
X397706Y797420D01*
X398921Y798634D01*
X399779Y800122D01*
X400224Y801781D01*
Y803499D01*
X399779Y805158D01*
X398921Y806646D01*
X397706Y807860D01*
X396218Y808719D01*
X394559Y809164D01*
D02*
G37*
G36*
X598678Y810347D02*
X596604D01*
X594602Y809810D01*
X592806Y808773D01*
X591340Y807307D01*
X590304Y805512D01*
X589767Y803509D01*
Y801436D01*
X590304Y799433D01*
X591340Y797638D01*
X592806Y796172D01*
X594602Y795135D01*
X596604Y794598D01*
X598678D01*
X600680Y795135D01*
X602476Y796172D01*
X603942Y797638D01*
X604979Y799433D01*
X605515Y801436D01*
Y803509D01*
X604979Y805512D01*
X603942Y807307D01*
X602476Y808773D01*
X600680Y809810D01*
X598678Y810347D01*
D02*
G37*
G36*
X510307Y799084D02*
X508233D01*
X506231Y798547D01*
X504435Y797511D01*
X502969Y796045D01*
X501933Y794249D01*
X501396Y792247D01*
Y790173D01*
X501933Y788171D01*
X502969Y786375D01*
X504435Y784909D01*
X506231Y783873D01*
X508233Y783336D01*
X510307D01*
X512309Y783873D01*
X514105Y784909D01*
X515571Y786375D01*
X516607Y788171D01*
X517144Y790173D01*
Y792247D01*
X516607Y794249D01*
X515571Y796045D01*
X514105Y797511D01*
X512309Y798547D01*
X510307Y799084D01*
D02*
G37*
G36*
X484907D02*
X482833D01*
X480831Y798547D01*
X479035Y797511D01*
X477569Y796045D01*
X476533Y794249D01*
X475996Y792247D01*
Y790173D01*
X476533Y788171D01*
X477569Y786375D01*
X479035Y784909D01*
X480831Y783873D01*
X482833Y783336D01*
X484907D01*
X486909Y783873D01*
X488705Y784909D01*
X490171Y786375D01*
X491207Y788171D01*
X491744Y790173D01*
Y792247D01*
X491207Y794249D01*
X490171Y796045D01*
X488705Y797511D01*
X486909Y798547D01*
X484907Y799084D01*
D02*
G37*
G36*
X982569Y754554D02*
X980851D01*
X979192Y754109D01*
X977704Y753251D01*
X976489Y752036D01*
X975631Y750548D01*
X975186Y748889D01*
Y747171D01*
X975631Y745512D01*
X976489Y744024D01*
X977704Y742810D01*
X979192Y741951D01*
X980851Y741506D01*
X982569D01*
X984228Y741951D01*
X985716Y742810D01*
X986930Y744024D01*
X987789Y745512D01*
X988234Y747171D01*
Y748889D01*
X987789Y750548D01*
X986930Y752036D01*
X985716Y753251D01*
X984228Y754109D01*
X982569Y754554D01*
D02*
G37*
G36*
X851594Y734754D02*
X834966D01*
Y718126D01*
X851594D01*
Y734754D01*
D02*
G37*
G36*
X793575D02*
X791385D01*
X789271Y734187D01*
X787375Y733093D01*
X785827Y731545D01*
X784733Y729649D01*
X784166Y727535D01*
Y725345D01*
X784733Y723231D01*
X785827Y721335D01*
X787375Y719787D01*
X789271Y718693D01*
X791385Y718126D01*
X793575D01*
X795689Y718693D01*
X797585Y719787D01*
X799133Y721335D01*
X800227Y723231D01*
X800794Y725345D01*
Y727535D01*
X800227Y729649D01*
X799133Y731545D01*
X797585Y733093D01*
X795689Y734187D01*
X793575Y734754D01*
D02*
G37*
G36*
X648394D02*
X631766D01*
Y718126D01*
X648394D01*
Y734754D01*
D02*
G37*
G36*
X590375D02*
X588185D01*
X586071Y734187D01*
X584175Y733093D01*
X582627Y731545D01*
X581533Y729649D01*
X580966Y727535D01*
Y725345D01*
X581533Y723231D01*
X582627Y721335D01*
X584175Y719787D01*
X586071Y718693D01*
X588185Y718126D01*
X590375D01*
X592489Y718693D01*
X594385Y719787D01*
X595933Y721335D01*
X597027Y723231D01*
X597594Y725345D01*
Y727535D01*
X597027Y729649D01*
X595933Y731545D01*
X594385Y733093D01*
X592489Y734187D01*
X590375Y734754D01*
D02*
G37*
G36*
X445194D02*
X428566D01*
Y718126D01*
X445194D01*
Y734754D01*
D02*
G37*
G36*
X387175D02*
X384985D01*
X382871Y734187D01*
X380975Y733093D01*
X379427Y731545D01*
X378333Y729649D01*
X377766Y727535D01*
Y725345D01*
X378333Y723231D01*
X379427Y721335D01*
X380975Y719787D01*
X382871Y718693D01*
X384985Y718126D01*
X387175D01*
X389289Y718693D01*
X391185Y719787D01*
X392733Y721335D01*
X393827Y723231D01*
X394394Y725345D01*
Y727535D01*
X393827Y729649D01*
X392733Y731545D01*
X391185Y733093D01*
X389289Y734187D01*
X387175Y734754D01*
D02*
G37*
G36*
X1048863Y697150D02*
X1047145D01*
X1045486Y696705D01*
X1043998Y695846D01*
X1042784Y694632D01*
X1041925Y693144D01*
X1041480Y691485D01*
Y689767D01*
X1041925Y688108D01*
X1042784Y686620D01*
X1043998Y685406D01*
X1045486Y684547D01*
X1047145Y684102D01*
X1048863D01*
X1050522Y684547D01*
X1052010Y685406D01*
X1053224Y686620D01*
X1054083Y688108D01*
X1054528Y689767D01*
Y691485D01*
X1054083Y693144D01*
X1053224Y694632D01*
X1052010Y695846D01*
X1050522Y696705D01*
X1048863Y697150D01*
D02*
G37*
G36*
X870032Y700124D02*
X866668D01*
X863419Y699253D01*
X860507Y697572D01*
X858128Y695193D01*
X856447Y692281D01*
X855576Y689032D01*
Y685668D01*
X856447Y682420D01*
X858128Y679507D01*
X860507Y677128D01*
X863419Y675447D01*
X866668Y674576D01*
X870032D01*
X873281Y675447D01*
X876193Y677128D01*
X878572Y679507D01*
X880254Y682420D01*
X881124Y685668D01*
Y689032D01*
X880254Y692281D01*
X878572Y695193D01*
X876193Y697572D01*
X873281Y699253D01*
X870032Y700124D01*
D02*
G37*
G36*
X768432D02*
X765068D01*
X761820Y699253D01*
X758907Y697572D01*
X756528Y695193D01*
X754847Y692281D01*
X753976Y689032D01*
Y685668D01*
X754847Y682420D01*
X756528Y679507D01*
X758907Y677128D01*
X761820Y675447D01*
X765068Y674576D01*
X768432D01*
X771681Y675447D01*
X774594Y677128D01*
X776972Y679507D01*
X778653Y682420D01*
X779524Y685668D01*
Y689032D01*
X778653Y692281D01*
X776972Y695193D01*
X774594Y697572D01*
X771681Y699253D01*
X768432Y700124D01*
D02*
G37*
G36*
X666832D02*
X663468D01*
X660219Y699253D01*
X657307Y697572D01*
X654928Y695193D01*
X653247Y692281D01*
X652376Y689032D01*
Y685668D01*
X653247Y682420D01*
X654928Y679507D01*
X657307Y677128D01*
X660219Y675447D01*
X663468Y674576D01*
X666832D01*
X670081Y675447D01*
X672993Y677128D01*
X675372Y679507D01*
X677054Y682420D01*
X677924Y685668D01*
Y689032D01*
X677054Y692281D01*
X675372Y695193D01*
X672993Y697572D01*
X670081Y699253D01*
X666832Y700124D01*
D02*
G37*
G36*
X565232D02*
X561868D01*
X558619Y699253D01*
X555707Y697572D01*
X553328Y695193D01*
X551647Y692281D01*
X550776Y689032D01*
Y685668D01*
X551647Y682420D01*
X553328Y679507D01*
X555707Y677128D01*
X558619Y675447D01*
X561868Y674576D01*
X565232D01*
X568481Y675447D01*
X571394Y677128D01*
X573772Y679507D01*
X575453Y682420D01*
X576324Y685668D01*
Y689032D01*
X575453Y692281D01*
X573772Y695193D01*
X571394Y697572D01*
X568481Y699253D01*
X565232Y700124D01*
D02*
G37*
G36*
X463632D02*
X460268D01*
X457020Y699253D01*
X454107Y697572D01*
X451728Y695193D01*
X450047Y692281D01*
X449176Y689032D01*
Y685668D01*
X450047Y682420D01*
X451728Y679507D01*
X454107Y677128D01*
X457020Y675447D01*
X460268Y674576D01*
X463632D01*
X466881Y675447D01*
X469794Y677128D01*
X472172Y679507D01*
X473853Y682420D01*
X474724Y685668D01*
Y689032D01*
X473853Y692281D01*
X472172Y695193D01*
X469794Y697572D01*
X466881Y699253D01*
X463632Y700124D01*
D02*
G37*
G36*
X362032D02*
X358668D01*
X355420Y699253D01*
X352507Y697572D01*
X350128Y695193D01*
X348447Y692281D01*
X347576Y689032D01*
Y685668D01*
X348447Y682420D01*
X350128Y679507D01*
X352507Y677128D01*
X355420Y675447D01*
X358668Y674576D01*
X362032D01*
X365281Y675447D01*
X368194Y677128D01*
X370572Y679507D01*
X372253Y682420D01*
X373124Y685668D01*
Y689032D01*
X372253Y692281D01*
X370572Y695193D01*
X368194Y697572D01*
X365281Y699253D01*
X362032Y700124D01*
D02*
G37*
G36*
X1094329Y660574D02*
X1092611D01*
X1090952Y660129D01*
X1089464Y659270D01*
X1088250Y658056D01*
X1087391Y656568D01*
X1086946Y654909D01*
Y653191D01*
X1087391Y651532D01*
X1088250Y650044D01*
X1089464Y648829D01*
X1090952Y647971D01*
X1092611Y647526D01*
X1094329D01*
X1095988Y647971D01*
X1097476Y648829D01*
X1098690Y650044D01*
X1099549Y651532D01*
X1099994Y653191D01*
Y654909D01*
X1099549Y656568D01*
X1098690Y658056D01*
X1097476Y659270D01*
X1095988Y660129D01*
X1094329Y660574D01*
D02*
G37*
G36*
X798597Y666750D02*
X796523D01*
X794521Y666213D01*
X792725Y665177D01*
X791259Y663711D01*
X790223Y661915D01*
X789686Y659913D01*
Y657839D01*
X790223Y655837D01*
X791259Y654041D01*
X792725Y652575D01*
X794521Y651539D01*
X795442Y651292D01*
Y649188D01*
X794521Y648941D01*
X792725Y647905D01*
X791259Y646439D01*
X790223Y644643D01*
X789686Y642641D01*
Y640567D01*
X790223Y638565D01*
X791259Y636769D01*
X792725Y635303D01*
X794521Y634267D01*
X796523Y633730D01*
X798597D01*
X800599Y634267D01*
X802395Y635303D01*
X803861Y636769D01*
X804897Y638565D01*
X805434Y640567D01*
Y642641D01*
X804897Y644643D01*
X803861Y646439D01*
X802395Y647905D01*
X800599Y648941D01*
X799678Y649188D01*
Y651292D01*
X800599Y651539D01*
X802395Y652575D01*
X803861Y654041D01*
X804897Y655837D01*
X805434Y657839D01*
Y659913D01*
X804897Y661915D01*
X803861Y663711D01*
X802395Y665177D01*
X800599Y666213D01*
X798597Y666750D01*
D02*
G37*
G36*
X947009Y642794D02*
X945291D01*
X943632Y642349D01*
X942144Y641490D01*
X940929Y640276D01*
X940071Y638788D01*
X939626Y637129D01*
Y635411D01*
X940071Y633752D01*
X940929Y632264D01*
X942144Y631049D01*
X943632Y630191D01*
X945291Y629746D01*
X947009D01*
X948668Y630191D01*
X950156Y631049D01*
X951370Y632264D01*
X952229Y633752D01*
X952674Y635411D01*
Y637129D01*
X952229Y638788D01*
X951370Y640276D01*
X950156Y641490D01*
X948668Y642349D01*
X947009Y642794D01*
D02*
G37*
G36*
X1053613Y644923D02*
X1051540D01*
X1049537Y644386D01*
X1047742Y643350D01*
X1046276Y641884D01*
X1045239Y640088D01*
X1044703Y638086D01*
Y636012D01*
X1045239Y634010D01*
X1046276Y632214D01*
X1047742Y630748D01*
X1049537Y629711D01*
X1051540Y629175D01*
X1053613D01*
X1055616Y629711D01*
X1057411Y630748D01*
X1058877Y632214D01*
X1059914Y634010D01*
X1060451Y636012D01*
Y638086D01*
X1059914Y640088D01*
X1058877Y641884D01*
X1057411Y643350D01*
X1055616Y644386D01*
X1053613Y644923D01*
D02*
G37*
G36*
X595397Y630174D02*
X593323D01*
X591321Y629637D01*
X589525Y628601D01*
X588059Y627135D01*
X587023Y625339D01*
X586486Y623337D01*
Y621263D01*
X587023Y619261D01*
X588059Y617465D01*
X589525Y615999D01*
X591321Y614963D01*
X593323Y614426D01*
X595397D01*
X597399Y614963D01*
X599195Y615999D01*
X600661Y617465D01*
X601697Y619261D01*
X602234Y621263D01*
Y623337D01*
X601697Y625339D01*
X600661Y627135D01*
X599195Y628601D01*
X597399Y629637D01*
X595397Y630174D01*
D02*
G37*
G36*
X1179419Y625014D02*
X1177701D01*
X1176042Y624569D01*
X1174554Y623711D01*
X1173339Y622496D01*
X1172481Y621008D01*
X1172036Y619349D01*
Y617631D01*
X1172481Y615972D01*
X1173339Y614484D01*
X1174554Y613270D01*
X1176042Y612411D01*
X1177701Y611966D01*
X1179419D01*
X1181078Y612411D01*
X1182566Y613270D01*
X1183781Y614484D01*
X1184639Y615972D01*
X1185084Y617631D01*
Y619349D01*
X1184639Y621008D01*
X1183781Y622496D01*
X1182566Y623711D01*
X1181078Y624569D01*
X1179419Y625014D01*
D02*
G37*
G36*
X1053867Y625094D02*
X1051793D01*
X1049791Y624557D01*
X1047995Y623521D01*
X1046529Y622055D01*
X1045493Y620259D01*
X1044956Y618257D01*
Y616183D01*
X1045493Y614181D01*
X1046529Y612385D01*
X1047995Y610919D01*
X1049791Y609883D01*
X1051793Y609346D01*
X1053867D01*
X1055869Y609883D01*
X1057665Y610919D01*
X1059131Y612385D01*
X1060167Y614181D01*
X1060704Y616183D01*
Y618257D01*
X1060167Y620259D01*
X1059131Y622055D01*
X1057665Y623521D01*
X1055869Y624557D01*
X1053867Y625094D01*
D02*
G37*
G36*
X595397Y609854D02*
X593323D01*
X591321Y609317D01*
X589525Y608281D01*
X588059Y606815D01*
X587023Y605019D01*
X586486Y603017D01*
Y600943D01*
X587023Y598941D01*
X588059Y597145D01*
X589525Y595679D01*
X591321Y594643D01*
X593323Y594106D01*
X595397D01*
X597399Y594643D01*
X599195Y595679D01*
X600661Y597145D01*
X601697Y598941D01*
X602234Y600943D01*
Y603017D01*
X601697Y605019D01*
X600661Y606815D01*
X599195Y608281D01*
X597399Y609317D01*
X595397Y609854D01*
D02*
G37*
G36*
X1049879Y605710D02*
X1048161D01*
X1046502Y605265D01*
X1045014Y604407D01*
X1043800Y603192D01*
X1042941Y601704D01*
X1042496Y600045D01*
Y598327D01*
X1042941Y596668D01*
X1043800Y595180D01*
X1045014Y593965D01*
X1046502Y593107D01*
X1048161Y592662D01*
X1049879D01*
X1051538Y593107D01*
X1053026Y593965D01*
X1054240Y595180D01*
X1055099Y596668D01*
X1055544Y598327D01*
Y600045D01*
X1055099Y601704D01*
X1054240Y603192D01*
X1053026Y604407D01*
X1051538Y605265D01*
X1049879Y605710D01*
D02*
G37*
G36*
X948279Y588184D02*
X946561D01*
X944902Y587739D01*
X943414Y586880D01*
X942199Y585666D01*
X941341Y584178D01*
X940896Y582519D01*
Y580801D01*
X941341Y579142D01*
X942199Y577654D01*
X943414Y576440D01*
X944902Y575581D01*
X946561Y575136D01*
X948279D01*
X949938Y575581D01*
X951426Y576440D01*
X952641Y577654D01*
X953499Y579142D01*
X953944Y580801D01*
Y582519D01*
X953499Y584178D01*
X952641Y585666D01*
X951426Y586880D01*
X949938Y587739D01*
X948279Y588184D01*
D02*
G37*
G36*
X1091789Y565324D02*
X1090071D01*
X1088412Y564879D01*
X1086924Y564021D01*
X1085710Y562806D01*
X1084851Y561318D01*
X1084406Y559659D01*
Y557941D01*
X1084851Y556282D01*
X1085710Y554794D01*
X1086924Y553579D01*
X1088412Y552721D01*
X1090071Y552276D01*
X1091789D01*
X1093448Y552721D01*
X1094936Y553579D01*
X1096151Y554794D01*
X1097009Y556282D01*
X1097454Y557941D01*
Y559659D01*
X1097009Y561318D01*
X1096151Y562806D01*
X1094936Y564021D01*
X1093448Y564879D01*
X1091789Y565324D01*
D02*
G37*
G36*
X1179419Y532304D02*
X1177701D01*
X1176042Y531859D01*
X1174554Y531001D01*
X1173339Y529786D01*
X1172481Y528298D01*
X1172036Y526639D01*
Y524921D01*
X1172481Y523262D01*
X1173339Y521774D01*
X1174554Y520560D01*
X1176042Y519701D01*
X1177701Y519256D01*
X1179419D01*
X1181078Y519701D01*
X1182566Y520560D01*
X1183781Y521774D01*
X1184639Y523262D01*
X1185084Y524921D01*
Y526639D01*
X1184639Y528298D01*
X1183781Y529786D01*
X1182566Y531001D01*
X1181078Y531859D01*
X1179419Y532304D01*
D02*
G37*
G36*
X1047847Y517572D02*
X1046129D01*
X1044470Y517127D01*
X1042982Y516269D01*
X1041768Y515054D01*
X1040909Y513566D01*
X1040464Y511907D01*
Y510189D01*
X1040909Y508530D01*
X1041768Y507042D01*
X1042982Y505827D01*
X1044470Y504969D01*
X1046129Y504524D01*
X1047847D01*
X1049506Y504969D01*
X1050994Y505827D01*
X1052208Y507042D01*
X1053067Y508530D01*
X1053512Y510189D01*
Y511907D01*
X1053067Y513566D01*
X1052208Y515054D01*
X1050994Y516269D01*
X1049506Y517127D01*
X1047847Y517572D01*
D02*
G37*
G36*
X1095599Y484044D02*
X1093881D01*
X1092222Y483599D01*
X1090734Y482741D01*
X1089520Y481526D01*
X1088661Y480038D01*
X1088216Y478379D01*
Y476661D01*
X1088661Y475002D01*
X1089520Y473514D01*
X1090734Y472299D01*
X1092222Y471441D01*
X1093881Y470996D01*
X1095599D01*
X1097258Y471441D01*
X1098746Y472299D01*
X1099960Y473514D01*
X1100819Y475002D01*
X1101264Y476661D01*
Y478379D01*
X1100819Y480038D01*
X1099960Y481526D01*
X1098746Y482741D01*
X1097258Y483599D01*
X1095599Y484044D01*
D02*
G37*
G36*
X1265017Y477694D02*
X1263299D01*
X1261640Y477249D01*
X1260152Y476390D01*
X1258938Y475176D01*
X1258079Y473688D01*
X1257634Y472029D01*
Y470311D01*
X1258079Y468652D01*
X1258938Y467164D01*
X1260152Y465950D01*
X1261640Y465091D01*
X1263299Y464646D01*
X1265017D01*
X1266676Y465091D01*
X1268164Y465950D01*
X1269379Y467164D01*
X1270237Y468652D01*
X1270682Y470311D01*
Y472029D01*
X1270237Y473688D01*
X1269379Y475176D01*
X1268164Y476390D01*
X1266676Y477249D01*
X1265017Y477694D01*
D02*
G37*
G36*
X870032Y481724D02*
X866668D01*
X863419Y480854D01*
X860507Y479172D01*
X858128Y476793D01*
X856447Y473881D01*
X855576Y470632D01*
Y467268D01*
X856447Y464019D01*
X858128Y461107D01*
X860507Y458728D01*
X863419Y457047D01*
X866668Y456176D01*
X870032D01*
X873281Y457047D01*
X876193Y458728D01*
X878572Y461107D01*
X880254Y464019D01*
X881124Y467268D01*
Y470632D01*
X880254Y473881D01*
X878572Y476793D01*
X876193Y479172D01*
X873281Y480854D01*
X870032Y481724D01*
D02*
G37*
G36*
X768432D02*
X765068D01*
X761820Y480854D01*
X758907Y479172D01*
X756528Y476793D01*
X754847Y473881D01*
X753976Y470632D01*
Y467268D01*
X754847Y464019D01*
X756528Y461107D01*
X758907Y458728D01*
X761820Y457047D01*
X765068Y456176D01*
X768432D01*
X771681Y457047D01*
X774594Y458728D01*
X776972Y461107D01*
X778653Y464019D01*
X779524Y467268D01*
Y470632D01*
X778653Y473881D01*
X776972Y476793D01*
X774594Y479172D01*
X771681Y480854D01*
X768432Y481724D01*
D02*
G37*
G36*
X666832D02*
X663468D01*
X660219Y480854D01*
X657307Y479172D01*
X654928Y476793D01*
X653247Y473881D01*
X652376Y470632D01*
Y467268D01*
X653247Y464019D01*
X654928Y461107D01*
X657307Y458728D01*
X660219Y457047D01*
X663468Y456176D01*
X666832D01*
X670081Y457047D01*
X672993Y458728D01*
X675372Y461107D01*
X677054Y464019D01*
X677924Y467268D01*
Y470632D01*
X677054Y473881D01*
X675372Y476793D01*
X672993Y479172D01*
X670081Y480854D01*
X666832Y481724D01*
D02*
G37*
G36*
X565232D02*
X561868D01*
X558619Y480854D01*
X555707Y479172D01*
X553328Y476793D01*
X551647Y473881D01*
X550776Y470632D01*
Y467268D01*
X551647Y464019D01*
X553328Y461107D01*
X555707Y458728D01*
X558619Y457047D01*
X561868Y456176D01*
X565232D01*
X568481Y457047D01*
X571394Y458728D01*
X573772Y461107D01*
X575453Y464019D01*
X576324Y467268D01*
Y470632D01*
X575453Y473881D01*
X573772Y476793D01*
X571394Y479172D01*
X568481Y480854D01*
X565232Y481724D01*
D02*
G37*
G36*
X463632D02*
X460268D01*
X457020Y480854D01*
X454107Y479172D01*
X451728Y476793D01*
X450047Y473881D01*
X449176Y470632D01*
Y467268D01*
X450047Y464019D01*
X451728Y461107D01*
X454107Y458728D01*
X457020Y457047D01*
X460268Y456176D01*
X463632D01*
X466881Y457047D01*
X469794Y458728D01*
X472172Y461107D01*
X473853Y464019D01*
X474724Y467268D01*
Y470632D01*
X473853Y473881D01*
X472172Y476793D01*
X469794Y479172D01*
X466881Y480854D01*
X463632Y481724D01*
D02*
G37*
G36*
X362032D02*
X358668D01*
X355420Y480854D01*
X352507Y479172D01*
X350128Y476793D01*
X348447Y473881D01*
X347576Y470632D01*
Y467268D01*
X348447Y464019D01*
X350128Y461107D01*
X352507Y458728D01*
X355420Y457047D01*
X358668Y456176D01*
X362032D01*
X365281Y457047D01*
X368194Y458728D01*
X370572Y461107D01*
X372253Y464019D01*
X373124Y467268D01*
Y470632D01*
X372253Y473881D01*
X370572Y476793D01*
X368194Y479172D01*
X365281Y480854D01*
X362032Y481724D01*
D02*
G37*
G36*
X1149284Y432562D02*
X1146876D01*
X1144550Y431939D01*
X1142466Y430735D01*
X1140763Y429033D01*
X1139559Y426948D01*
X1138936Y424622D01*
Y422214D01*
X1139559Y419888D01*
X1140763Y417803D01*
X1142466Y416101D01*
X1144550Y414897D01*
X1146876Y414274D01*
X1149284D01*
X1151609Y414897D01*
X1153695Y416101D01*
X1155397Y417803D01*
X1156601Y419888D01*
X1157224Y422214D01*
Y424622D01*
X1156601Y426948D01*
X1155397Y429033D01*
X1153695Y430735D01*
X1151609Y431939D01*
X1149284Y432562D01*
D02*
G37*
G36*
X515851Y440690D02*
X512849D01*
X509905Y440104D01*
X507131Y438955D01*
X504635Y437288D01*
X502512Y435165D01*
X500844Y432669D01*
X499696Y429895D01*
X499110Y426951D01*
Y423949D01*
X499696Y421005D01*
X500844Y418231D01*
X502512Y415735D01*
X504635Y413612D01*
X507131Y411945D01*
X509905Y410796D01*
X512849Y410210D01*
X515851D01*
X518795Y410796D01*
X521569Y411945D01*
X524065Y413612D01*
X526188Y415735D01*
X527855Y418231D01*
X529004Y421005D01*
X529590Y423949D01*
Y426951D01*
X529004Y429895D01*
X527855Y432669D01*
X526188Y435165D01*
X524065Y437288D01*
X521569Y438955D01*
X518795Y440104D01*
X515851Y440690D01*
D02*
G37*
G36*
X1063007Y375534D02*
X1060433D01*
X1057947Y374868D01*
X1055719Y373581D01*
X1053899Y371761D01*
X1052612Y369533D01*
X1051946Y367047D01*
Y364473D01*
X1052612Y361987D01*
X1053899Y359759D01*
X1055719Y357939D01*
X1057947Y356652D01*
X1060433Y355986D01*
X1063007D01*
X1065493Y356652D01*
X1067721Y357939D01*
X1069541Y359759D01*
X1070828Y361987D01*
X1071494Y364473D01*
Y367047D01*
X1070828Y369533D01*
X1069541Y371761D01*
X1067721Y373581D01*
X1065493Y374868D01*
X1063007Y375534D01*
D02*
G37*
G36*
X1037607D02*
X1035033D01*
X1032547Y374868D01*
X1030319Y373581D01*
X1028499Y371761D01*
X1027212Y369533D01*
X1026546Y367047D01*
Y364473D01*
X1027212Y361987D01*
X1028499Y359759D01*
X1030319Y357939D01*
X1032547Y356652D01*
X1035033Y355986D01*
X1037607D01*
X1040093Y356652D01*
X1042321Y357939D01*
X1044141Y359759D01*
X1045428Y361987D01*
X1046094Y364473D01*
Y367047D01*
X1045428Y369533D01*
X1044141Y371761D01*
X1042321Y373581D01*
X1040093Y374868D01*
X1037607Y375534D01*
D02*
G37*
G36*
X1012207D02*
X1009633D01*
X1007147Y374868D01*
X1004919Y373581D01*
X1003099Y371761D01*
X1001812Y369533D01*
X1001146Y367047D01*
Y364473D01*
X1001812Y361987D01*
X1003099Y359759D01*
X1004919Y357939D01*
X1007147Y356652D01*
X1009633Y355986D01*
X1012207D01*
X1014693Y356652D01*
X1016921Y357939D01*
X1018741Y359759D01*
X1020028Y361987D01*
X1020694Y364473D01*
Y367047D01*
X1020028Y369533D01*
X1018741Y371761D01*
X1016921Y373581D01*
X1014693Y374868D01*
X1012207Y375534D01*
D02*
G37*
G36*
X986807D02*
X984233D01*
X981747Y374868D01*
X979519Y373581D01*
X977699Y371761D01*
X976412Y369533D01*
X975746Y367047D01*
Y364473D01*
X976412Y361987D01*
X977699Y359759D01*
X979519Y357939D01*
X981747Y356652D01*
X984233Y355986D01*
X986807D01*
X989293Y356652D01*
X991521Y357939D01*
X993341Y359759D01*
X994628Y361987D01*
X995294Y364473D01*
Y367047D01*
X994628Y369533D01*
X993341Y371761D01*
X991521Y373581D01*
X989293Y374868D01*
X986807Y375534D01*
D02*
G37*
G36*
X961407D02*
X958833D01*
X956347Y374868D01*
X954119Y373581D01*
X952299Y371761D01*
X951012Y369533D01*
X950346Y367047D01*
Y364473D01*
X951012Y361987D01*
X952299Y359759D01*
X954119Y357939D01*
X956347Y356652D01*
X958833Y355986D01*
X961407D01*
X963893Y356652D01*
X966121Y357939D01*
X967941Y359759D01*
X969228Y361987D01*
X969894Y364473D01*
Y367047D01*
X969228Y369533D01*
X967941Y371761D01*
X966121Y373581D01*
X963893Y374868D01*
X961407Y375534D01*
D02*
G37*
G36*
X936007D02*
X933433D01*
X930947Y374868D01*
X928719Y373581D01*
X926899Y371761D01*
X925612Y369533D01*
X924946Y367047D01*
Y364473D01*
X925612Y361987D01*
X926899Y359759D01*
X928719Y357939D01*
X930947Y356652D01*
X933433Y355986D01*
X936007D01*
X938493Y356652D01*
X940721Y357939D01*
X942541Y359759D01*
X943828Y361987D01*
X944494Y364473D01*
Y367047D01*
X943828Y369533D01*
X942541Y371761D01*
X940721Y373581D01*
X938493Y374868D01*
X936007Y375534D01*
D02*
G37*
G36*
X910607D02*
X908033D01*
X905547Y374868D01*
X903319Y373581D01*
X901499Y371761D01*
X900212Y369533D01*
X899546Y367047D01*
Y364473D01*
X900212Y361987D01*
X901499Y359759D01*
X903319Y357939D01*
X905547Y356652D01*
X908033Y355986D01*
X910607D01*
X913093Y356652D01*
X915321Y357939D01*
X917141Y359759D01*
X918428Y361987D01*
X919094Y364473D01*
Y367047D01*
X918428Y369533D01*
X917141Y371761D01*
X915321Y373581D01*
X913093Y374868D01*
X910607Y375534D01*
D02*
G37*
G36*
X885207D02*
X882633D01*
X880147Y374868D01*
X877919Y373581D01*
X876099Y371761D01*
X874812Y369533D01*
X874146Y367047D01*
Y364473D01*
X874812Y361987D01*
X876099Y359759D01*
X877919Y357939D01*
X880147Y356652D01*
X882633Y355986D01*
X885207D01*
X887693Y356652D01*
X889921Y357939D01*
X891741Y359759D01*
X893028Y361987D01*
X893694Y364473D01*
Y367047D01*
X893028Y369533D01*
X891741Y371761D01*
X889921Y373581D01*
X887693Y374868D01*
X885207Y375534D01*
D02*
G37*
G36*
X859807D02*
X857233D01*
X854747Y374868D01*
X852519Y373581D01*
X850699Y371761D01*
X849412Y369533D01*
X848746Y367047D01*
Y364473D01*
X849412Y361987D01*
X850699Y359759D01*
X852519Y357939D01*
X854747Y356652D01*
X857233Y355986D01*
X859807D01*
X862293Y356652D01*
X864521Y357939D01*
X866341Y359759D01*
X867628Y361987D01*
X868294Y364473D01*
Y367047D01*
X867628Y369533D01*
X866341Y371761D01*
X864521Y373581D01*
X862293Y374868D01*
X859807Y375534D01*
D02*
G37*
G36*
X834407D02*
X831833D01*
X829347Y374868D01*
X827119Y373581D01*
X825299Y371761D01*
X824012Y369533D01*
X823346Y367047D01*
Y364473D01*
X824012Y361987D01*
X825299Y359759D01*
X827119Y357939D01*
X829347Y356652D01*
X831833Y355986D01*
X834407D01*
X836893Y356652D01*
X839121Y357939D01*
X840941Y359759D01*
X842228Y361987D01*
X842894Y364473D01*
Y367047D01*
X842228Y369533D01*
X840941Y371761D01*
X839121Y373581D01*
X836893Y374868D01*
X834407Y375534D01*
D02*
G37*
G36*
X809007D02*
X806433D01*
X803947Y374868D01*
X801719Y373581D01*
X799899Y371761D01*
X798612Y369533D01*
X797946Y367047D01*
Y364473D01*
X798612Y361987D01*
X799899Y359759D01*
X801719Y357939D01*
X803947Y356652D01*
X806433Y355986D01*
X809007D01*
X811493Y356652D01*
X813721Y357939D01*
X815541Y359759D01*
X816828Y361987D01*
X817494Y364473D01*
Y367047D01*
X816828Y369533D01*
X815541Y371761D01*
X813721Y373581D01*
X811493Y374868D01*
X809007Y375534D01*
D02*
G37*
G36*
X783607D02*
X781033D01*
X778547Y374868D01*
X776319Y373581D01*
X774499Y371761D01*
X773212Y369533D01*
X772546Y367047D01*
Y364473D01*
X773212Y361987D01*
X774499Y359759D01*
X776319Y357939D01*
X778547Y356652D01*
X781033Y355986D01*
X783607D01*
X786093Y356652D01*
X788321Y357939D01*
X790141Y359759D01*
X791428Y361987D01*
X792094Y364473D01*
Y367047D01*
X791428Y369533D01*
X790141Y371761D01*
X788321Y373581D01*
X786093Y374868D01*
X783607Y375534D01*
D02*
G37*
G36*
X758207D02*
X755633D01*
X753147Y374868D01*
X750919Y373581D01*
X749099Y371761D01*
X747812Y369533D01*
X747146Y367047D01*
Y364473D01*
X747812Y361987D01*
X749099Y359759D01*
X750919Y357939D01*
X753147Y356652D01*
X755633Y355986D01*
X758207D01*
X760693Y356652D01*
X762921Y357939D01*
X764741Y359759D01*
X766028Y361987D01*
X766694Y364473D01*
Y367047D01*
X766028Y369533D01*
X764741Y371761D01*
X762921Y373581D01*
X760693Y374868D01*
X758207Y375534D01*
D02*
G37*
G36*
X732807D02*
X730233D01*
X727747Y374868D01*
X725519Y373581D01*
X723699Y371761D01*
X722412Y369533D01*
X721746Y367047D01*
Y364473D01*
X722412Y361987D01*
X723699Y359759D01*
X725519Y357939D01*
X727747Y356652D01*
X730233Y355986D01*
X732807D01*
X735293Y356652D01*
X737521Y357939D01*
X739341Y359759D01*
X740628Y361987D01*
X741294Y364473D01*
Y367047D01*
X740628Y369533D01*
X739341Y371761D01*
X737521Y373581D01*
X735293Y374868D01*
X732807Y375534D01*
D02*
G37*
G36*
X707407D02*
X704833D01*
X702347Y374868D01*
X700119Y373581D01*
X698299Y371761D01*
X697012Y369533D01*
X696346Y367047D01*
Y364473D01*
X697012Y361987D01*
X698299Y359759D01*
X700119Y357939D01*
X702347Y356652D01*
X704833Y355986D01*
X707407D01*
X709893Y356652D01*
X712121Y357939D01*
X713941Y359759D01*
X715228Y361987D01*
X715894Y364473D01*
Y367047D01*
X715228Y369533D01*
X713941Y371761D01*
X712121Y373581D01*
X709893Y374868D01*
X707407Y375534D01*
D02*
G37*
G36*
X682007D02*
X679433D01*
X676947Y374868D01*
X674719Y373581D01*
X672899Y371761D01*
X671612Y369533D01*
X670946Y367047D01*
Y364473D01*
X671612Y361987D01*
X672899Y359759D01*
X674719Y357939D01*
X676947Y356652D01*
X679433Y355986D01*
X682007D01*
X684493Y356652D01*
X686721Y357939D01*
X688541Y359759D01*
X689828Y361987D01*
X690494Y364473D01*
Y367047D01*
X689828Y369533D01*
X688541Y371761D01*
X686721Y373581D01*
X684493Y374868D01*
X682007Y375534D01*
D02*
G37*
G36*
X656607D02*
X654033D01*
X651547Y374868D01*
X649319Y373581D01*
X647499Y371761D01*
X646212Y369533D01*
X645546Y367047D01*
Y364473D01*
X646212Y361987D01*
X647499Y359759D01*
X649319Y357939D01*
X651547Y356652D01*
X654033Y355986D01*
X656607D01*
X659093Y356652D01*
X661321Y357939D01*
X663141Y359759D01*
X664428Y361987D01*
X665094Y364473D01*
Y367047D01*
X664428Y369533D01*
X663141Y371761D01*
X661321Y373581D01*
X659093Y374868D01*
X656607Y375534D01*
D02*
G37*
G36*
X631207D02*
X628633D01*
X626147Y374868D01*
X623919Y373581D01*
X622099Y371761D01*
X620812Y369533D01*
X620146Y367047D01*
Y364473D01*
X620812Y361987D01*
X622099Y359759D01*
X623919Y357939D01*
X626147Y356652D01*
X628633Y355986D01*
X631207D01*
X633693Y356652D01*
X635921Y357939D01*
X637741Y359759D01*
X639028Y361987D01*
X639694Y364473D01*
Y367047D01*
X639028Y369533D01*
X637741Y371761D01*
X635921Y373581D01*
X633693Y374868D01*
X631207Y375534D01*
D02*
G37*
G36*
X594000Y375032D02*
X586000D01*
X583845Y374604D01*
X582017Y373383D01*
X580797Y371555D01*
X580368Y369400D01*
Y361400D01*
X580797Y359245D01*
X582017Y357417D01*
X583845Y356197D01*
X586000Y355768D01*
X594000D01*
X596155Y356197D01*
X597983Y357417D01*
X599203Y359245D01*
X599632Y361400D01*
Y369400D01*
X599203Y371555D01*
X597983Y373383D01*
X596155Y374604D01*
X594000Y375032D01*
D02*
G37*
G36*
X1187969Y359029D02*
X1184391D01*
X1180935Y358103D01*
X1177836Y356314D01*
X1175306Y353784D01*
X1173517Y350685D01*
X1172591Y347229D01*
Y343651D01*
X1173517Y340195D01*
X1175306Y337096D01*
X1177836Y334566D01*
X1180935Y332777D01*
X1184391Y331851D01*
X1187969D01*
X1191425Y332777D01*
X1194524Y334566D01*
X1197054Y337096D01*
X1198843Y340195D01*
X1199769Y343651D01*
Y347229D01*
X1198843Y350685D01*
X1197054Y353784D01*
X1194524Y356314D01*
X1191425Y358103D01*
X1187969Y359029D01*
D02*
G37*
G36*
X1111769D02*
X1108191D01*
X1104735Y358103D01*
X1101636Y356314D01*
X1099106Y353784D01*
X1097317Y350685D01*
X1096391Y347229D01*
Y343651D01*
X1097317Y340195D01*
X1099106Y337096D01*
X1101636Y334566D01*
X1104735Y332777D01*
X1108191Y331851D01*
X1111769D01*
X1115225Y332777D01*
X1118324Y334566D01*
X1120854Y337096D01*
X1122643Y340195D01*
X1123569Y343651D01*
Y347229D01*
X1122643Y350685D01*
X1120854Y353784D01*
X1118324Y356314D01*
X1115225Y358103D01*
X1111769Y359029D01*
D02*
G37*
%LPD*%
D28*
X1148080Y423418D02*
D03*
D61*
X360350Y468950D02*
D03*
X868350D02*
D03*
Y687350D02*
D03*
X766750D02*
D03*
Y468950D02*
D03*
X665150D02*
D03*
Y687350D02*
D03*
X563550D02*
D03*
Y468950D02*
D03*
X461950D02*
D03*
Y687350D02*
D03*
X360350D02*
D03*
D62*
X901150Y997860D02*
D03*
X409400Y947470D02*
D03*
Y1002870D02*
D03*
Y975170D02*
D03*
Y1030570D02*
D03*
Y1058270D02*
D03*
Y1085970D02*
D03*
Y1113670D02*
D03*
X381000Y933620D02*
D03*
Y961320D02*
D03*
Y989020D02*
D03*
Y1016720D02*
D03*
Y1044420D02*
D03*
Y1072120D02*
D03*
Y1099820D02*
D03*
X1010920Y365760D02*
D03*
Y340360D02*
D03*
X960120Y365760D02*
D03*
Y340360D02*
D03*
X909320Y365760D02*
D03*
Y340360D02*
D03*
X883920Y365760D02*
D03*
Y340360D02*
D03*
X833120Y365760D02*
D03*
Y340360D02*
D03*
X782320Y365760D02*
D03*
Y340360D02*
D03*
X706120Y365760D02*
D03*
Y340360D02*
D03*
X680720Y365760D02*
D03*
Y340360D02*
D03*
X629920Y365760D02*
D03*
X655320Y340360D02*
D03*
Y365760D02*
D03*
X731520Y340360D02*
D03*
Y365760D02*
D03*
X756920Y340360D02*
D03*
Y365760D02*
D03*
X807720Y340360D02*
D03*
Y365760D02*
D03*
X858520Y340360D02*
D03*
Y365760D02*
D03*
X934720Y340360D02*
D03*
Y365760D02*
D03*
X985520Y340360D02*
D03*
Y365760D02*
D03*
X1036320Y340360D02*
D03*
X1061720D02*
D03*
X1036320Y365760D02*
D03*
X1061720D02*
D03*
X901150Y1023260D02*
D03*
X875750Y997860D02*
D03*
Y1023260D02*
D03*
X824950Y997860D02*
D03*
Y1023260D02*
D03*
X774150Y997860D02*
D03*
Y1023260D02*
D03*
X697950Y997860D02*
D03*
Y1023260D02*
D03*
X672550Y997860D02*
D03*
Y1023260D02*
D03*
X621750Y997860D02*
D03*
X647150Y1023260D02*
D03*
Y997860D02*
D03*
X723350Y1023260D02*
D03*
Y997860D02*
D03*
X748750Y1023260D02*
D03*
Y997860D02*
D03*
X799550Y1023260D02*
D03*
Y997860D02*
D03*
X850350Y1023260D02*
D03*
Y997860D02*
D03*
X926550Y1023260D02*
D03*
X951950D02*
D03*
X926550Y997860D02*
D03*
X951950D02*
D03*
D63*
X792480Y726440D02*
D03*
X817880D02*
D03*
X589280D02*
D03*
X614680D02*
D03*
X386080D02*
D03*
X411480D02*
D03*
D64*
X843280D02*
D03*
X640080D02*
D03*
X436880D02*
D03*
D65*
X431800Y425450D02*
D03*
D66*
X514350D02*
D03*
D67*
X350000Y1250000D02*
D03*
X1250000D02*
D03*
X350000Y350000D02*
D03*
X1250000D02*
D03*
D68*
X590000Y365400D02*
D03*
D69*
X472440Y889000D02*
D03*
Y863600D02*
D03*
X447040Y889000D02*
D03*
Y863600D02*
D03*
X472440Y838200D02*
D03*
X447040D02*
D03*
X1002750Y896260D02*
D03*
X1028150D02*
D03*
X1002750Y921660D02*
D03*
X1028150D02*
D03*
X1002750Y947060D02*
D03*
X1028150D02*
D03*
D70*
X395200Y850220D02*
D03*
Y1183220D02*
D03*
D71*
X409400Y919770D02*
D03*
D72*
X1186180Y345440D02*
D03*
X1109980D02*
D03*
D73*
X629920Y340360D02*
D03*
X621750Y1023260D02*
D03*
D74*
X590000Y340000D02*
D03*
D75*
X497840Y1176020D02*
D03*
X901700Y1076960D02*
D03*
X662940Y1069340D02*
D03*
X703580Y1165860D02*
D03*
X1270000Y581660D02*
D03*
X393700Y802640D02*
D03*
X840740Y1076960D02*
D03*
X728980D02*
D03*
X1264158Y471170D02*
D03*
X1250950Y529590D02*
D03*
X927100Y850900D02*
D03*
X1090930Y558800D02*
D03*
X965454Y703072D02*
D03*
X981710Y748030D02*
D03*
X1093470Y654050D02*
D03*
X946150Y636270D02*
D03*
X1178560Y618490D02*
D03*
X1191800Y538923D02*
D03*
X745236Y907034D02*
D03*
X1048004Y690626D02*
D03*
X1049020Y599186D02*
D03*
X1080516Y795274D02*
D03*
X949198Y509778D02*
D03*
X948182Y598678D02*
D03*
X978154Y792480D02*
D03*
X1088898Y525526D02*
D03*
X1089406Y613410D02*
D03*
X1046988Y511048D02*
D03*
X949401Y881820D02*
D03*
X1181100Y411480D02*
D03*
X1191260Y454660D02*
D03*
Y638810D02*
D03*
Y694690D02*
D03*
Y748030D02*
D03*
Y802640D02*
D03*
Y850900D02*
D03*
X1160780Y891540D02*
D03*
X1122680Y929640D02*
D03*
X1087120Y966470D02*
D03*
X904240Y1054100D02*
D03*
X1051560Y1002030D02*
D03*
X1017270Y1036320D02*
D03*
X947420Y581660D02*
D03*
X873760Y807720D02*
D03*
X1082040Y883920D02*
D03*
X1178560Y525780D02*
D03*
X1082040Y703580D02*
D03*
X1094740Y477520D02*
D03*
X800100Y802640D02*
D03*
X637540Y873760D02*
D03*
X1270000Y609600D02*
D03*
X868680Y843280D02*
D03*
X966470Y1054100D02*
D03*
X777240Y843280D02*
D03*
X711200Y807720D02*
D03*
X731520D02*
D03*
X690880D02*
D03*
X687070Y843280D02*
D03*
X502920Y934720D02*
D03*
X497840Y1085850D02*
D03*
X680720Y1155700D02*
D03*
X637540Y1069340D02*
D03*
X495300Y1043940D02*
D03*
X609600Y843280D02*
D03*
D76*
X1052577Y637049D02*
D03*
X1052830Y617220D02*
D03*
X594360Y622300D02*
D03*
Y601980D02*
D03*
X797560Y641604D02*
D03*
Y658876D02*
D03*
X483870Y791210D02*
D03*
X509270D02*
D03*
Y810260D02*
D03*
X483870D02*
D03*
X927100Y695960D02*
D03*
Y678180D02*
D03*
X597641Y802473D02*
D03*
X796290Y756920D02*
D03*
X770890D02*
D03*
X593090D02*
D03*
X566420D02*
D03*
X363220D02*
D03*
X391160D02*
D03*
M02*
