G04*
G04 #@! TF.GenerationSoftware,Altium Limited,Altium Designer,25.6.2 (33)*
G04*
G04 Layer_Physical_Order=4*
G04 Layer_Color=16711680*
%FSLAX44Y44*%
%MOMM*%
G71*
G04*
G04 #@! TF.SameCoordinates,B66254A1-9C9F-40BD-847D-07FD7BB7023C*
G04*
G04*
G04 #@! TF.FilePolarity,Positive*
G04*
G01*
G75*
%ADD14C,0.2540*%
%ADD28C,1.5240*%
%ADD59C,0.5080*%
%ADD60R,1.6050X1.6050*%
%ADD61C,2.2500*%
%ADD62C,1.6500*%
%ADD63C,1.3580*%
%ADD64R,1.3580X1.3580*%
%ADD65R,2.7432X2.7432*%
%ADD66C,2.7432*%
%ADD67C,3.2000*%
G04:AMPARAMS|DCode=68|XSize=1.6mm|YSize=1.6mm|CornerRadius=0.4mm|HoleSize=0mm|Usage=FLASHONLY|Rotation=270.000|XOffset=0mm|YOffset=0mm|HoleType=Round|Shape=RoundedRectangle|*
%AMROUNDEDRECTD68*
21,1,1.6000,0.8000,0,0,270.0*
21,1,0.8000,1.6000,0,0,270.0*
1,1,0.8000,-0.4000,-0.4000*
1,1,0.8000,-0.4000,0.4000*
1,1,0.8000,0.4000,0.4000*
1,1,0.8000,0.4000,-0.4000*
%
%ADD68ROUNDEDRECTD68*%
%ADD69C,1.6050*%
%ADD70C,4.8000*%
G04:AMPARAMS|DCode=71|XSize=1.65mm|YSize=1.65mm|CornerRadius=0.4125mm|HoleSize=0mm|Usage=FLASHONLY|Rotation=270.000|XOffset=0mm|YOffset=0mm|HoleType=Round|Shape=RoundedRectangle|*
%AMROUNDEDRECTD71*
21,1,1.6500,0.8250,0,0,270.0*
21,1,0.8250,1.6500,0,0,270.0*
1,1,0.8250,-0.4125,-0.4125*
1,1,0.8250,-0.4125,0.4125*
1,1,0.8250,0.4125,0.4125*
1,1,0.8250,0.4125,-0.4125*
%
%ADD71ROUNDEDRECTD71*%
%ADD72C,2.4130*%
G04:AMPARAMS|DCode=73|XSize=1.65mm|YSize=1.65mm|CornerRadius=0.4125mm|HoleSize=0mm|Usage=FLASHONLY|Rotation=0.000|XOffset=0mm|YOffset=0mm|HoleType=Round|Shape=RoundedRectangle|*
%AMROUNDEDRECTD73*
21,1,1.6500,0.8250,0,0,0.0*
21,1,0.8250,1.6500,0,0,0.0*
1,1,0.8250,0.4125,-0.4125*
1,1,0.8250,-0.4125,-0.4125*
1,1,0.8250,-0.4125,0.4125*
1,1,0.8250,0.4125,0.4125*
%
%ADD73ROUNDEDRECTD73*%
%ADD74C,1.6000*%
%ADD75C,1.0000*%
%ADD76C,1.2700*%
G36*
X420000Y958889D02*
X508750Y880000D01*
X766410Y880000D01*
X810000Y836410D01*
Y729154D01*
X809566Y727535D01*
Y725345D01*
X810000Y723726D01*
Y450000D01*
X735664D01*
Y802637D01*
X736740Y803714D01*
X737599Y805202D01*
X738044Y806861D01*
Y808579D01*
X737599Y810238D01*
X736740Y811726D01*
X735526Y812941D01*
X734038Y813799D01*
X732379Y814244D01*
X730661D01*
X730000Y814751D01*
Y820000D01*
X380000D01*
Y827524D01*
X381792Y828482D01*
X383110Y827601D01*
X387755Y825677D01*
X392686Y824696D01*
X397714D01*
X402645Y825677D01*
X407290Y827601D01*
X411471Y830394D01*
X415026Y833949D01*
X417819Y838130D01*
X419743Y842775D01*
X420724Y847706D01*
Y852734D01*
X419743Y857665D01*
X417819Y862310D01*
X415026Y866491D01*
X411471Y870046D01*
X407290Y872839D01*
X402645Y874763D01*
X397714Y875744D01*
X392686D01*
X387755Y874763D01*
X383110Y872839D01*
X381792Y871959D01*
X380000Y872916D01*
Y923846D01*
X382287D01*
X384773Y924512D01*
X387001Y925799D01*
X388821Y927619D01*
X390108Y929847D01*
X390774Y932333D01*
Y934907D01*
X390108Y937393D01*
X388821Y939621D01*
X387001Y941441D01*
X384773Y942728D01*
X382287Y943394D01*
X380000D01*
Y951546D01*
X382287D01*
X384773Y952212D01*
X387001Y953499D01*
X388821Y955319D01*
X390108Y957547D01*
X390765Y960000D01*
X420000D01*
Y958889D01*
D02*
G37*
G36*
X610000Y733328D02*
X608750Y732370D01*
X607418Y730633D01*
X606580Y728610D01*
X606294Y726440D01*
X606580Y724270D01*
X607418Y722247D01*
X608750Y720510D01*
X610000Y719551D01*
Y490000D01*
Y350000D01*
X530000D01*
Y490000D01*
Y724760D01*
X457200Y797560D01*
Y817880D01*
X610000D01*
Y733328D01*
D02*
G37*
G36*
X1061720Y434340D02*
X1013460D01*
Y701040D01*
X1061720D01*
Y434340D01*
D02*
G37*
G36*
X1201420Y863600D02*
X1201420Y400000D01*
X1130000D01*
Y790000D01*
X1033525Y886475D01*
X1033790Y888490D01*
X1034013Y888619D01*
X1035791Y890397D01*
X1037048Y892574D01*
X1037699Y895003D01*
Y897517D01*
X1037048Y899946D01*
X1035791Y902123D01*
X1034013Y903901D01*
X1031836Y905158D01*
X1029407Y905809D01*
X1026893D01*
X1024464Y905158D01*
X1022287Y903901D01*
X1020509Y902123D01*
X1020380Y901900D01*
X1018365Y901635D01*
X1008125Y911875D01*
X1008390Y913890D01*
X1008613Y914019D01*
X1010391Y915797D01*
X1011648Y917974D01*
X1012299Y920403D01*
Y922917D01*
X1011648Y925346D01*
X1010391Y927523D01*
X1008613Y929301D01*
X1006436Y930558D01*
X1004007Y931209D01*
X1001493D01*
X999064Y930558D01*
X996887Y929301D01*
X995109Y927523D01*
X994980Y927300D01*
X992965Y927035D01*
X932089Y987911D01*
X932355Y989925D01*
X932551Y990039D01*
X934371Y991859D01*
X935658Y994087D01*
X936324Y996573D01*
Y999147D01*
X935658Y1001633D01*
X934371Y1003861D01*
X932551Y1005681D01*
X930323Y1006968D01*
X927837Y1007634D01*
X925263D01*
X922777Y1006968D01*
X920549Y1005681D01*
X918729Y1003861D01*
X918615Y1003665D01*
X916601Y1003399D01*
X906689Y1013311D01*
X906955Y1015325D01*
X907151Y1015439D01*
X908971Y1017259D01*
X910258Y1019487D01*
X910924Y1021973D01*
Y1024547D01*
X910258Y1027033D01*
X908971Y1029261D01*
X907151Y1031081D01*
X904923Y1032368D01*
X902437Y1033034D01*
X899863D01*
X897377Y1032368D01*
X896112Y1031637D01*
X894080Y1032772D01*
Y1062228D01*
X1002792D01*
X1201420Y863600D01*
D02*
G37*
%LPC*%
G36*
X481989Y898549D02*
X462891D01*
Y879451D01*
X481989D01*
Y898549D01*
D02*
G37*
G36*
X448297D02*
X445783D01*
X443354Y897898D01*
X441177Y896641D01*
X439399Y894863D01*
X438142Y892686D01*
X437491Y890257D01*
Y887743D01*
X438142Y885314D01*
X439399Y883137D01*
X441177Y881359D01*
X443354Y880102D01*
X445783Y879451D01*
X448297D01*
X450726Y880102D01*
X452903Y881359D01*
X454681Y883137D01*
X455938Y885314D01*
X456589Y887743D01*
Y890257D01*
X455938Y892686D01*
X454681Y894863D01*
X452903Y896641D01*
X450726Y897898D01*
X448297Y898549D01*
D02*
G37*
G36*
X473697Y873149D02*
X471183D01*
X468754Y872498D01*
X466577Y871241D01*
X464799Y869463D01*
X463542Y867286D01*
X462891Y864857D01*
Y862343D01*
X463542Y859914D01*
X464799Y857737D01*
X466577Y855959D01*
X468754Y854702D01*
X471183Y854051D01*
X473697D01*
X476126Y854702D01*
X478303Y855959D01*
X480081Y857737D01*
X481338Y859914D01*
X481989Y862343D01*
Y864857D01*
X481338Y867286D01*
X480081Y869463D01*
X478303Y871241D01*
X476126Y872498D01*
X473697Y873149D01*
D02*
G37*
G36*
X448297D02*
X445783D01*
X443354Y872498D01*
X441177Y871241D01*
X439399Y869463D01*
X438142Y867286D01*
X437491Y864857D01*
Y862343D01*
X438142Y859914D01*
X439399Y857737D01*
X441177Y855959D01*
X443354Y854702D01*
X445783Y854051D01*
X448297D01*
X450726Y854702D01*
X452903Y855959D01*
X454681Y857737D01*
X455938Y859914D01*
X456589Y862343D01*
Y864857D01*
X455938Y867286D01*
X454681Y869463D01*
X452903Y871241D01*
X450726Y872498D01*
X448297Y873149D01*
D02*
G37*
G36*
X778099Y849804D02*
X776381D01*
X774722Y849359D01*
X773234Y848501D01*
X772020Y847286D01*
X771161Y845798D01*
X770716Y844139D01*
Y842421D01*
X771161Y840762D01*
X772020Y839274D01*
X773234Y838059D01*
X774722Y837201D01*
X776381Y836756D01*
X778099D01*
X779758Y837201D01*
X781246Y838059D01*
X782460Y839274D01*
X783319Y840762D01*
X783764Y842421D01*
Y844139D01*
X783319Y845798D01*
X782460Y847286D01*
X781246Y848501D01*
X779758Y849359D01*
X778099Y849804D01*
D02*
G37*
G36*
X687929D02*
X686211D01*
X684552Y849359D01*
X683064Y848501D01*
X681850Y847286D01*
X680991Y845798D01*
X680546Y844139D01*
Y842421D01*
X680991Y840762D01*
X681850Y839274D01*
X683064Y838059D01*
X684552Y837201D01*
X686211Y836756D01*
X687929D01*
X689588Y837201D01*
X691076Y838059D01*
X692290Y839274D01*
X693149Y840762D01*
X693594Y842421D01*
Y844139D01*
X693149Y845798D01*
X692290Y847286D01*
X691076Y848501D01*
X689588Y849359D01*
X687929Y849804D01*
D02*
G37*
G36*
X610459D02*
X608741D01*
X607082Y849359D01*
X605594Y848501D01*
X604380Y847286D01*
X603521Y845798D01*
X603076Y844139D01*
Y842421D01*
X603521Y840762D01*
X604380Y839274D01*
X605594Y838059D01*
X607082Y837201D01*
X608741Y836756D01*
X610459D01*
X612118Y837201D01*
X613606Y838059D01*
X614821Y839274D01*
X615679Y840762D01*
X616124Y842421D01*
Y844139D01*
X615679Y845798D01*
X614821Y847286D01*
X613606Y848501D01*
X612118Y849359D01*
X610459Y849804D01*
D02*
G37*
G36*
X448297Y847749D02*
X445783D01*
X443354Y847098D01*
X441177Y845841D01*
X439399Y844063D01*
X438142Y841886D01*
X437491Y839457D01*
Y836943D01*
X438142Y834514D01*
X439399Y832337D01*
X441177Y830559D01*
X443354Y829302D01*
X445783Y828651D01*
X448297D01*
X450726Y829302D01*
X452903Y830559D01*
X454681Y832337D01*
X455938Y834514D01*
X456589Y836943D01*
Y839457D01*
X455938Y841886D01*
X454681Y844063D01*
X452903Y845841D01*
X450726Y847098D01*
X448297Y847749D01*
D02*
G37*
G36*
X797327Y764794D02*
X795253D01*
X793251Y764257D01*
X791455Y763221D01*
X789989Y761755D01*
X788953Y759959D01*
X788416Y757957D01*
Y755883D01*
X788953Y753881D01*
X789989Y752085D01*
X791455Y750619D01*
X793251Y749583D01*
X795253Y749046D01*
X797327D01*
X799329Y749583D01*
X801125Y750619D01*
X802591Y752085D01*
X803627Y753881D01*
X804164Y755883D01*
Y757957D01*
X803627Y759959D01*
X802591Y761755D01*
X801125Y763221D01*
X799329Y764257D01*
X797327Y764794D01*
D02*
G37*
G36*
X771927D02*
X769853D01*
X767851Y764257D01*
X766055Y763221D01*
X764589Y761755D01*
X763553Y759959D01*
X763016Y757957D01*
Y755883D01*
X763553Y753881D01*
X764589Y752085D01*
X766055Y750619D01*
X767851Y749583D01*
X769853Y749046D01*
X771927D01*
X773929Y749583D01*
X775725Y750619D01*
X777191Y752085D01*
X778227Y753881D01*
X778764Y755883D01*
Y757957D01*
X778227Y759959D01*
X777191Y761755D01*
X775725Y763221D01*
X773929Y764257D01*
X771927Y764794D01*
D02*
G37*
G36*
X793575Y734754D02*
X791385D01*
X789271Y734187D01*
X787375Y733093D01*
X785827Y731545D01*
X784733Y729649D01*
X784166Y727535D01*
Y725345D01*
X784733Y723231D01*
X785827Y721335D01*
X787375Y719787D01*
X789271Y718693D01*
X791385Y718126D01*
X793575D01*
X795689Y718693D01*
X797585Y719787D01*
X799133Y721335D01*
X800227Y723231D01*
X800794Y725345D01*
Y727535D01*
X800227Y729649D01*
X799133Y731545D01*
X797585Y733093D01*
X795689Y734187D01*
X793575Y734754D01*
D02*
G37*
G36*
X768432Y700124D02*
X765068D01*
X761820Y699253D01*
X758907Y697572D01*
X756528Y695193D01*
X754847Y692281D01*
X753976Y689032D01*
Y685668D01*
X754847Y682420D01*
X756528Y679507D01*
X758907Y677128D01*
X761820Y675447D01*
X765068Y674576D01*
X768432D01*
X771681Y675447D01*
X774594Y677128D01*
X776972Y679507D01*
X778653Y682420D01*
X779524Y685668D01*
Y689032D01*
X778653Y692281D01*
X776972Y695193D01*
X774594Y697572D01*
X771681Y699253D01*
X768432Y700124D01*
D02*
G37*
G36*
X593090Y764862D02*
X591035Y764591D01*
X589119Y763798D01*
X587474Y762536D01*
X586212Y760891D01*
X585419Y758976D01*
X585148Y756920D01*
X585419Y754865D01*
X586212Y752949D01*
X587474Y751304D01*
X589119Y750042D01*
X591035Y749249D01*
X593090Y748978D01*
X595145Y749249D01*
X597061Y750042D01*
X598706Y751304D01*
X599968Y752949D01*
X600761Y754865D01*
X601032Y756920D01*
X600761Y758976D01*
X599968Y760891D01*
X598706Y762536D01*
X597061Y763798D01*
X595145Y764591D01*
X593090Y764862D01*
D02*
G37*
G36*
X566420D02*
X564365Y764591D01*
X562449Y763798D01*
X560804Y762536D01*
X559542Y760891D01*
X558749Y758976D01*
X558478Y756920D01*
X558749Y754865D01*
X559542Y752949D01*
X560804Y751304D01*
X562449Y750042D01*
X564365Y749249D01*
X566420Y748978D01*
X568475Y749249D01*
X570391Y750042D01*
X572036Y751304D01*
X573298Y752949D01*
X574091Y754865D01*
X574362Y756920D01*
X574091Y758976D01*
X573298Y760891D01*
X572036Y762536D01*
X570391Y763798D01*
X568475Y764591D01*
X566420Y764862D01*
D02*
G37*
G36*
X589280Y734826D02*
X587110Y734540D01*
X585087Y733702D01*
X583350Y732370D01*
X582018Y730633D01*
X581180Y728610D01*
X580894Y726440D01*
X581180Y724270D01*
X582018Y722247D01*
X583350Y720510D01*
X585087Y719178D01*
X587110Y718340D01*
X589280Y718054D01*
X591450Y718340D01*
X593473Y719178D01*
X595210Y720510D01*
X596542Y722247D01*
X597380Y724270D01*
X597666Y726440D01*
X597380Y728610D01*
X596542Y730633D01*
X595210Y732370D01*
X593473Y733702D01*
X591450Y734540D01*
X589280Y734826D01*
D02*
G37*
G36*
X563550Y700234D02*
X560215Y699795D01*
X557108Y698508D01*
X554440Y696461D01*
X552392Y693792D01*
X551105Y690685D01*
X550666Y687350D01*
X551105Y684015D01*
X552392Y680908D01*
X554440Y678240D01*
X557108Y676192D01*
X560215Y674905D01*
X563550Y674466D01*
X566885Y674905D01*
X569992Y676192D01*
X572661Y678240D01*
X574708Y680908D01*
X575995Y684015D01*
X576434Y687350D01*
X575995Y690685D01*
X574708Y693792D01*
X572661Y696461D01*
X569992Y698508D01*
X566885Y699795D01*
X563550Y700234D01*
D02*
G37*
G36*
X953237Y1033034D02*
X950663D01*
X948177Y1032368D01*
X945949Y1031081D01*
X944129Y1029261D01*
X942842Y1027033D01*
X942176Y1024547D01*
Y1021973D01*
X942842Y1019487D01*
X944129Y1017259D01*
X945949Y1015439D01*
X948177Y1014152D01*
X950663Y1013486D01*
X953237D01*
X955723Y1014152D01*
X957951Y1015439D01*
X959771Y1017259D01*
X961058Y1019487D01*
X961724Y1021973D01*
Y1024547D01*
X961058Y1027033D01*
X959771Y1029261D01*
X957951Y1031081D01*
X955723Y1032368D01*
X953237Y1033034D01*
D02*
G37*
G36*
X927837D02*
X925263D01*
X922777Y1032368D01*
X920549Y1031081D01*
X918729Y1029261D01*
X917442Y1027033D01*
X916776Y1024547D01*
Y1021973D01*
X917442Y1019487D01*
X918729Y1017259D01*
X920549Y1015439D01*
X922777Y1014152D01*
X925263Y1013486D01*
X927837D01*
X930323Y1014152D01*
X932551Y1015439D01*
X934371Y1017259D01*
X935658Y1019487D01*
X936324Y1021973D01*
Y1024547D01*
X935658Y1027033D01*
X934371Y1029261D01*
X932551Y1031081D01*
X930323Y1032368D01*
X927837Y1033034D01*
D02*
G37*
G36*
X953237Y1007634D02*
X950663D01*
X948177Y1006968D01*
X945949Y1005681D01*
X944129Y1003861D01*
X942842Y1001633D01*
X942176Y999147D01*
Y996573D01*
X942842Y994087D01*
X944129Y991859D01*
X945949Y990039D01*
X948177Y988752D01*
X950663Y988086D01*
X953237D01*
X955723Y988752D01*
X957951Y990039D01*
X959771Y991859D01*
X961058Y994087D01*
X961724Y996573D01*
Y999147D01*
X961058Y1001633D01*
X959771Y1003861D01*
X957951Y1005681D01*
X955723Y1006968D01*
X953237Y1007634D01*
D02*
G37*
G36*
X1029407Y956609D02*
X1026893D01*
X1024464Y955958D01*
X1022287Y954701D01*
X1020509Y952923D01*
X1019252Y950746D01*
X1018601Y948317D01*
Y945803D01*
X1019252Y943374D01*
X1020509Y941197D01*
X1022287Y939419D01*
X1024464Y938162D01*
X1026893Y937511D01*
X1029407D01*
X1031836Y938162D01*
X1034013Y939419D01*
X1035791Y941197D01*
X1037048Y943374D01*
X1037699Y945803D01*
Y948317D01*
X1037048Y950746D01*
X1035791Y952923D01*
X1034013Y954701D01*
X1031836Y955958D01*
X1029407Y956609D01*
D02*
G37*
G36*
X1004007D02*
X1001493D01*
X999064Y955958D01*
X996887Y954701D01*
X995109Y952923D01*
X993852Y950746D01*
X993201Y948317D01*
Y945803D01*
X993852Y943374D01*
X995109Y941197D01*
X996887Y939419D01*
X999064Y938162D01*
X1001493Y937511D01*
X1004007D01*
X1006436Y938162D01*
X1008613Y939419D01*
X1010391Y941197D01*
X1011648Y943374D01*
X1012299Y945803D01*
Y948317D01*
X1011648Y950746D01*
X1010391Y952923D01*
X1008613Y954701D01*
X1006436Y955958D01*
X1004007Y956609D01*
D02*
G37*
G36*
X1029407Y931209D02*
X1026893D01*
X1024464Y930558D01*
X1022287Y929301D01*
X1020509Y927523D01*
X1019252Y925346D01*
X1018601Y922917D01*
Y920403D01*
X1019252Y917974D01*
X1020509Y915797D01*
X1022287Y914019D01*
X1024464Y912762D01*
X1026893Y912111D01*
X1029407D01*
X1031836Y912762D01*
X1034013Y914019D01*
X1035791Y915797D01*
X1037048Y917974D01*
X1037699Y920403D01*
Y922917D01*
X1037048Y925346D01*
X1035791Y927523D01*
X1034013Y929301D01*
X1031836Y930558D01*
X1029407Y931209D01*
D02*
G37*
G36*
X1179419Y625014D02*
X1177701D01*
X1176042Y624569D01*
X1174554Y623711D01*
X1173339Y622496D01*
X1172481Y621008D01*
X1172036Y619349D01*
Y617631D01*
X1172481Y615972D01*
X1173339Y614484D01*
X1174554Y613270D01*
X1175711Y612602D01*
Y531669D01*
X1174554Y531001D01*
X1173339Y529786D01*
X1172481Y528298D01*
X1172036Y526639D01*
Y524921D01*
X1172481Y523262D01*
X1173339Y521774D01*
X1174554Y520560D01*
X1176042Y519701D01*
X1177701Y519256D01*
X1179419D01*
X1181078Y519701D01*
X1182566Y520560D01*
X1183781Y521774D01*
X1184639Y523262D01*
X1185084Y524921D01*
Y526639D01*
X1184639Y528298D01*
X1183781Y529786D01*
X1182566Y531001D01*
X1181409Y531669D01*
Y612602D01*
X1182566Y613270D01*
X1183781Y614484D01*
X1184639Y615972D01*
X1185084Y617631D01*
Y619349D01*
X1184639Y621008D01*
X1183781Y622496D01*
X1182566Y623711D01*
X1181078Y624569D01*
X1179419Y625014D01*
D02*
G37*
G36*
X1149284Y432562D02*
X1146876D01*
X1144550Y431939D01*
X1142466Y430735D01*
X1140763Y429033D01*
X1139559Y426948D01*
X1138936Y424622D01*
Y422214D01*
X1139559Y419888D01*
X1140763Y417803D01*
X1142466Y416101D01*
X1144550Y414897D01*
X1146876Y414274D01*
X1149284D01*
X1151609Y414897D01*
X1153695Y416101D01*
X1155397Y417803D01*
X1156601Y419888D01*
X1157224Y422214D01*
Y424622D01*
X1156601Y426948D01*
X1155397Y429033D01*
X1153695Y430735D01*
X1151609Y431939D01*
X1149284Y432562D01*
D02*
G37*
%LPD*%
D14*
X888064Y963596D02*
Y1010946D01*
Y963596D02*
X1093470Y758190D01*
Y654050D02*
Y758190D01*
X906272Y388112D02*
Y876808D01*
X812038Y971042D02*
X906272Y876808D01*
X899668Y406908D02*
Y872342D01*
X896620Y875390D02*
X899668Y872342D01*
X761836Y988732D02*
X893064Y857504D01*
Y425704D02*
Y857504D01*
X833120Y365760D02*
X893064Y425704D01*
X1090930Y558800D02*
X1092200D01*
X1107440Y574040D01*
X1178560Y525780D02*
Y618490D01*
X990600Y373930D02*
Y804281D01*
X985520Y368850D02*
X990600Y373930D01*
X824950Y969931D02*
X990600Y804281D01*
X985520Y365760D02*
Y368850D01*
X1115060Y497840D02*
Y783950D01*
X1002750Y896260D02*
X1115060Y783950D01*
X761836Y988732D02*
Y1010946D01*
X837692Y966529D02*
X997204Y807017D01*
X824950Y1023260D02*
X837692Y1010518D01*
Y966529D02*
Y1010518D01*
X812038Y971042D02*
Y1010772D01*
X799550Y1023260D02*
X812038Y1010772D01*
X761836Y1010946D02*
X774150Y1023260D01*
X824950Y969931D02*
Y997860D01*
X850350Y1023260D02*
X862664Y1010946D01*
Y950896D02*
Y1010946D01*
Y950896D02*
X1005840Y807720D01*
X875750Y1023260D02*
X888064Y1010946D01*
X982980Y878019D02*
X1107440Y753559D01*
Y574040D02*
Y753559D01*
X982980Y878019D02*
Y901890D01*
X1002750Y921660D01*
X997204Y379476D02*
Y807017D01*
Y379476D02*
X1010920Y365760D01*
X883920D02*
X906272Y388112D01*
X774150Y997860D02*
X896620Y875390D01*
X1094740Y477520D02*
X1115060Y497840D01*
X1005840Y396240D02*
Y807720D01*
X858520Y365760D02*
X899668Y406908D01*
X1005840Y396240D02*
X1036320Y365760D01*
D28*
X1148080Y423418D02*
D03*
D59*
X745236Y907034D02*
X855599Y796671D01*
Y696256D02*
Y796671D01*
X873760Y807720D02*
X886460Y795020D01*
Y444500D02*
Y795020D01*
X930656Y372914D02*
Y642366D01*
X942340Y654050D02*
Y835660D01*
X930656Y642366D02*
X942340Y654050D01*
X927100Y850900D02*
X942340Y835660D01*
X711200Y396240D02*
Y807720D01*
X680720Y365760D02*
X711200Y396240D01*
X629920Y685800D02*
X690880Y746760D01*
X629920Y365760D02*
Y685800D01*
X981710Y387350D02*
Y748030D01*
X960120Y365760D02*
X981710Y387350D01*
X937260Y589280D02*
Y627313D01*
X946150Y636203D02*
Y636270D01*
X937260Y627313D02*
X946150Y636203D01*
X930656Y372914D02*
X934720Y368850D01*
Y365760D02*
Y368850D01*
X937260Y589280D02*
X942420Y584120D01*
X943629D01*
X946089Y581660D01*
X947420D01*
X807720Y365760D02*
X886460Y444500D01*
X853036Y693693D02*
X855599Y696256D01*
X853036Y462607D02*
Y693693D01*
Y462607D02*
X853440Y462203D01*
X782320Y365760D02*
X853440Y436880D01*
Y462203D01*
X690880Y746760D02*
Y807720D01*
X731520Y365760D02*
Y807720D01*
D60*
X472440Y889000D02*
D03*
X1002750Y896260D02*
D03*
D61*
X360350Y468950D02*
D03*
X868350D02*
D03*
Y687350D02*
D03*
X766750D02*
D03*
Y468950D02*
D03*
X665150D02*
D03*
Y687350D02*
D03*
X563550D02*
D03*
Y468950D02*
D03*
X461950D02*
D03*
Y687350D02*
D03*
X360350D02*
D03*
D62*
X901150Y997860D02*
D03*
X409400Y947470D02*
D03*
Y1002870D02*
D03*
Y975170D02*
D03*
Y1030570D02*
D03*
Y1058270D02*
D03*
Y1085970D02*
D03*
Y1113670D02*
D03*
X381000Y933620D02*
D03*
Y961320D02*
D03*
Y989020D02*
D03*
Y1016720D02*
D03*
Y1044420D02*
D03*
Y1072120D02*
D03*
Y1099820D02*
D03*
X1010920Y365760D02*
D03*
Y340360D02*
D03*
X960120Y365760D02*
D03*
Y340360D02*
D03*
X909320Y365760D02*
D03*
Y340360D02*
D03*
X883920Y365760D02*
D03*
Y340360D02*
D03*
X833120Y365760D02*
D03*
Y340360D02*
D03*
X782320Y365760D02*
D03*
Y340360D02*
D03*
X706120Y365760D02*
D03*
Y340360D02*
D03*
X680720Y365760D02*
D03*
Y340360D02*
D03*
X629920Y365760D02*
D03*
X655320Y340360D02*
D03*
Y365760D02*
D03*
X731520Y340360D02*
D03*
Y365760D02*
D03*
X756920Y340360D02*
D03*
Y365760D02*
D03*
X807720Y340360D02*
D03*
Y365760D02*
D03*
X858520Y340360D02*
D03*
Y365760D02*
D03*
X934720Y340360D02*
D03*
Y365760D02*
D03*
X985520Y340360D02*
D03*
Y365760D02*
D03*
X1036320Y340360D02*
D03*
X1061720D02*
D03*
X1036320Y365760D02*
D03*
X1061720D02*
D03*
X901150Y1023260D02*
D03*
X875750Y997860D02*
D03*
Y1023260D02*
D03*
X824950Y997860D02*
D03*
Y1023260D02*
D03*
X774150Y997860D02*
D03*
Y1023260D02*
D03*
X697950Y997860D02*
D03*
Y1023260D02*
D03*
X672550Y997860D02*
D03*
Y1023260D02*
D03*
X621750Y997860D02*
D03*
X647150Y1023260D02*
D03*
Y997860D02*
D03*
X723350Y1023260D02*
D03*
Y997860D02*
D03*
X748750Y1023260D02*
D03*
Y997860D02*
D03*
X799550Y1023260D02*
D03*
Y997860D02*
D03*
X850350Y1023260D02*
D03*
Y997860D02*
D03*
X926550Y1023260D02*
D03*
X951950D02*
D03*
X926550Y997860D02*
D03*
X951950D02*
D03*
D63*
X792480Y726440D02*
D03*
X817880D02*
D03*
X589280D02*
D03*
X614680D02*
D03*
X386080D02*
D03*
X411480D02*
D03*
D64*
X843280D02*
D03*
X640080D02*
D03*
X436880D02*
D03*
D65*
X431800Y425450D02*
D03*
D66*
X514350D02*
D03*
D67*
X350000Y1250000D02*
D03*
X1250000D02*
D03*
X350000Y350000D02*
D03*
X1250000D02*
D03*
D68*
X590000Y365400D02*
D03*
D69*
X472440Y863600D02*
D03*
X447040Y889000D02*
D03*
Y863600D02*
D03*
X472440Y838200D02*
D03*
X447040D02*
D03*
X1028150Y896260D02*
D03*
X1002750Y921660D02*
D03*
X1028150D02*
D03*
X1002750Y947060D02*
D03*
X1028150D02*
D03*
D70*
X395200Y850220D02*
D03*
Y1183220D02*
D03*
D71*
X409400Y919770D02*
D03*
D72*
X1186180Y345440D02*
D03*
X1109980D02*
D03*
D73*
X629920Y340360D02*
D03*
X621750Y1023260D02*
D03*
D74*
X590000Y340000D02*
D03*
D75*
X497840Y1176020D02*
D03*
X901700Y1076960D02*
D03*
X662940Y1069340D02*
D03*
X703580Y1165860D02*
D03*
X1270000Y581660D02*
D03*
X393700Y802640D02*
D03*
X840740Y1076960D02*
D03*
X728980D02*
D03*
X1264158Y471170D02*
D03*
X1250950Y529590D02*
D03*
X927100Y850900D02*
D03*
X1090930Y558800D02*
D03*
X965454Y703072D02*
D03*
X981710Y748030D02*
D03*
X1093470Y654050D02*
D03*
X946150Y636270D02*
D03*
X1178560Y618490D02*
D03*
X1191800Y538923D02*
D03*
X745236Y907034D02*
D03*
X1048004Y690626D02*
D03*
X1049020Y599186D02*
D03*
X1080516Y795274D02*
D03*
X949198Y509778D02*
D03*
X948182Y598678D02*
D03*
X978154Y792480D02*
D03*
X1088898Y525526D02*
D03*
X1089406Y613410D02*
D03*
X1046988Y511048D02*
D03*
X949401Y881820D02*
D03*
X1181100Y411480D02*
D03*
X1191260Y454660D02*
D03*
Y638810D02*
D03*
Y694690D02*
D03*
Y748030D02*
D03*
Y802640D02*
D03*
Y850900D02*
D03*
X1160780Y891540D02*
D03*
X1122680Y929640D02*
D03*
X1087120Y966470D02*
D03*
X904240Y1054100D02*
D03*
X1051560Y1002030D02*
D03*
X1017270Y1036320D02*
D03*
X947420Y581660D02*
D03*
X873760Y807720D02*
D03*
X1082040Y883920D02*
D03*
X1178560Y525780D02*
D03*
X1082040Y703580D02*
D03*
X1094740Y477520D02*
D03*
X800100Y802640D02*
D03*
X637540Y873760D02*
D03*
X1270000Y609600D02*
D03*
X868680Y843280D02*
D03*
X966470Y1054100D02*
D03*
X777240Y843280D02*
D03*
X711200Y807720D02*
D03*
X731520D02*
D03*
X690880D02*
D03*
X687070Y843280D02*
D03*
X502920Y934720D02*
D03*
X497840Y1085850D02*
D03*
X680720Y1155700D02*
D03*
X637540Y1069340D02*
D03*
X495300Y1043940D02*
D03*
X609600Y843280D02*
D03*
D76*
X1052577Y637049D02*
D03*
X1052830Y617220D02*
D03*
X594360Y622300D02*
D03*
Y601980D02*
D03*
X797560Y641604D02*
D03*
Y658876D02*
D03*
X483870Y791210D02*
D03*
X509270D02*
D03*
Y810260D02*
D03*
X483870D02*
D03*
X927100Y695960D02*
D03*
Y678180D02*
D03*
X597641Y802473D02*
D03*
X796290Y756920D02*
D03*
X770890D02*
D03*
X593090D02*
D03*
X566420D02*
D03*
X363220D02*
D03*
X391160D02*
D03*
M02*
