G04*
G04 #@! TF.GenerationSoftware,Altium Limited,Altium Designer,25.6.2 (33)*
G04*
G04 Layer_Color=8388736*
%FSLAX44Y44*%
%MOMM*%
G71*
G04*
G04 #@! TF.SameCoordinates,748B953C-F231-4B0D-B9CA-8924AE9A02C7*
G04*
G04*
G04 #@! TF.FilePolarity,Negative*
G04*
G01*
G75*
%ADD19R,1.4526X2.7042*%
%ADD21R,0.5842X1.0414*%
%ADD23R,0.5588X1.7018*%
%ADD24R,0.9000X1.2000*%
%ADD25R,1.0000X1.2500*%
%ADD26R,0.9500X1.4000*%
%ADD27R,1.0000X2.7000*%
%ADD28R,1.2000X0.9000*%
%ADD29C,1.7272*%
%ADD30R,2.2032X2.9532*%
%ADD31C,12.2032*%
%ADD32C,3.4032*%
%ADD33C,2.4532*%
%ADD34C,1.8542*%
%ADD35C,1.7182*%
%ADD36R,1.7182X1.7182*%
%ADD37C,2.0032*%
%ADD38R,2.0032X2.0032*%
%ADD39R,2.4532X2.4532*%
%ADD40R,2.9182X2.9182*%
%ADD41C,2.9182*%
%ADD42R,1.3000X1.3000*%
%ADD43C,1.3000*%
%ADD44C,1.4732*%
D19*
X1015553Y722630D02*
D03*
X991048D02*
D03*
X546548Y762000D02*
D03*
X571053D02*
D03*
D21*
X986585Y795000D02*
D03*
X1023415D02*
D03*
D23*
X990800Y663848D02*
D03*
X1003500D02*
D03*
X1016200D02*
D03*
X1028900D02*
D03*
Y556152D02*
D03*
X1016200D02*
D03*
X1003500D02*
D03*
X990800D02*
D03*
D24*
X985180Y845820D02*
D03*
X1006180D02*
D03*
X939460Y501650D02*
D03*
X960460D02*
D03*
X995340Y749300D02*
D03*
Y772160D02*
D03*
X1016340D02*
D03*
Y749300D02*
D03*
D25*
X985680Y822960D02*
D03*
X1005680D02*
D03*
X939960Y527050D02*
D03*
X959960D02*
D03*
D26*
X1031600D02*
D03*
X1013100D02*
D03*
D27*
X1037350Y501650D02*
D03*
X1007350D02*
D03*
X1018300Y690880D02*
D03*
X988300D02*
D03*
D28*
X960120Y461940D02*
D03*
Y482940D02*
D03*
D29*
X939800Y462280D02*
D03*
D30*
X1123480Y555498D02*
D03*
Y655320D02*
D03*
X1190000Y555258D02*
D03*
Y655080D02*
D03*
D31*
X1003300Y1206500D02*
D03*
X596900D02*
D03*
D32*
X1250000Y350000D02*
D03*
X350000D02*
D03*
X1250000Y1250000D02*
D03*
X350000D02*
D03*
D33*
X627400Y711200D02*
D03*
X845800D02*
D03*
X769600Y412750D02*
D03*
X551200D02*
D03*
X374650Y508000D02*
D03*
Y711200D02*
D03*
X577850D02*
D03*
X501650Y508000D02*
D03*
D34*
X712000Y950950D02*
D03*
X888000D02*
D03*
D35*
X835000Y1181100D02*
D03*
D36*
X760000Y1221100D02*
D03*
D37*
X1099160Y370840D02*
D03*
X1049160D02*
D03*
X999160D02*
D03*
X949160D02*
D03*
X899160D02*
D03*
D38*
X849160D02*
D03*
D39*
X450850Y508000D02*
D03*
D40*
X854500Y1000950D02*
D03*
D41*
X800000D02*
D03*
X745500D02*
D03*
D42*
X463550Y412750D02*
D03*
D43*
X498550D02*
D03*
D44*
X1035800Y1236500D02*
D03*
X1003300Y1249000D02*
D03*
X1045800Y1206500D02*
D03*
X1003300Y1164000D02*
D03*
X960800Y1206500D02*
D03*
X973300Y1236500D02*
D03*
X970800Y1176500D02*
D03*
X1033300D02*
D03*
X629400Y1236500D02*
D03*
X596900Y1249000D02*
D03*
X639400Y1206500D02*
D03*
X596900Y1164000D02*
D03*
X554400Y1206500D02*
D03*
X566900Y1236500D02*
D03*
X564400Y1176500D02*
D03*
X626900D02*
D03*
X1033780Y477520D02*
D03*
X1051560D02*
D03*
X1098240Y510000D02*
D03*
X1121100D02*
D03*
X1141420D02*
D03*
X1164280D02*
D03*
X1187140D02*
D03*
X1210000D02*
D03*
X939777Y480540D02*
D03*
X921997D02*
D03*
X1031240Y822960D02*
D03*
Y843280D02*
D03*
X1081082Y668363D02*
D03*
Y706463D02*
D03*
Y688683D02*
D03*
Y726783D02*
D03*
X1101490Y687721D02*
D03*
X1124350D02*
D03*
X1144670D02*
D03*
X1167530D02*
D03*
X1190390D02*
D03*
X1213250D02*
D03*
X520700Y749300D02*
D03*
Y768350D02*
D03*
M02*
