G04*
G04 #@! TF.GenerationSoftware,Altium Limited,Altium Designer,25.6.2 (33)*
G04*
G04 Layer_Color=0*
%FSLAX44Y44*%
%MOMM*%
G71*
G04*
G04 #@! TF.SameCoordinates,748B953C-F231-4B0D-B9CA-8924AE9A02C7*
G04*
G04*
G04 #@! TF.FilePolarity,Positive*
G04*
G01*
G75*
%ADD59C,0.0254*%
G36*
X930000Y584996D02*
X927537D01*
X922707Y585957D01*
X918156Y587842D01*
X914061Y590578D01*
X910578Y594061D01*
X907842Y598156D01*
X905957Y602707D01*
X904996Y607537D01*
Y612463D01*
X905957Y617293D01*
X907842Y621844D01*
X910578Y625939D01*
X914061Y629422D01*
X918156Y632158D01*
X922707Y634043D01*
X927537Y635004D01*
X930000D01*
D01*
X1240000D01*
X1242463D01*
X1247293Y634043D01*
X1251844Y632158D01*
X1255939Y629422D01*
X1259422Y625939D01*
X1262158Y621844D01*
X1264043Y617293D01*
X1265004Y612463D01*
Y610000D01*
Y607537D01*
X1264043Y602707D01*
X1262158Y598156D01*
X1259422Y594061D01*
X1255939Y590578D01*
X1251844Y587842D01*
X1247293Y585957D01*
X1242463Y584996D01*
X1240000D01*
D01*
X930000D01*
D02*
G37*
G36*
X761458Y942660D02*
X760897Y1095446D01*
X760892Y1096584D01*
X761330Y1098819D01*
X762198Y1100923D01*
X763461Y1102818D01*
X764266Y1103623D01*
Y1103623D01*
X776214Y1115571D01*
Y1259522D01*
Y1261037D01*
X776998Y1263963D01*
X778512Y1266586D01*
X780654Y1268728D01*
X783277Y1270242D01*
X786203Y1271026D01*
X789232D01*
X792158Y1270242D01*
X794781Y1268728D01*
X796923Y1266586D01*
X798437Y1263963D01*
X799221Y1261037D01*
Y1259522D01*
D01*
Y1110806D01*
Y1109672D01*
X798779Y1107450D01*
X797912Y1105356D01*
X796653Y1103472D01*
X795852Y1102671D01*
X795852D01*
X783922Y1090741D01*
X784473Y940653D01*
X784473Y940611D01*
Y939481D01*
X784033Y937265D01*
X783171Y935177D01*
X781920Y933297D01*
X781123Y932496D01*
D01*
X780896Y932267D01*
X780028Y931393D01*
X777962Y930051D01*
X775658Y929178D01*
X773222Y928812D01*
X770763Y928971D01*
X768394Y929646D01*
X766221Y930807D01*
X764344Y932403D01*
X762847Y934359D01*
X761798Y936588D01*
X761245Y938989D01*
X761212Y941452D01*
X761458Y942660D01*
X761458Y942660D01*
D02*
G37*
G36*
X815774Y940562D02*
Y1027684D01*
Y1029335D01*
X816703Y1032505D01*
X818487Y1035285D01*
X820980Y1037451D01*
X822481Y1038140D01*
D01*
X874516Y1090174D01*
X875722Y1091381D01*
X878732Y1092990D01*
X882079Y1093656D01*
X885476Y1093321D01*
X888629Y1092015D01*
X891267Y1089850D01*
X893163Y1087012D01*
X894154Y1083746D01*
Y1082040D01*
Y1080907D01*
X893712Y1078684D01*
X892844Y1076591D01*
X891586Y1074707D01*
X890784Y1073906D01*
X890784D01*
X838782Y1021903D01*
Y940562D01*
Y939047D01*
X837998Y936122D01*
X836483Y933499D01*
X834342Y931357D01*
X831718Y929842D01*
X828792Y929058D01*
X825763D01*
X822838Y929842D01*
X820214Y931357D01*
X818073Y933499D01*
X816558Y936122D01*
X815774Y939047D01*
Y940562D01*
D01*
D02*
G37*
D59*
X334142Y300000D02*
G02*
X300000Y334142I0J34142D01*
G01*
Y1265858D01*
D02*
G02*
X334142Y1300000I34142J0D01*
G01*
X1265858Y1300000D01*
D02*
G02*
X1300000Y1265858I0J-34142D01*
G01*
X1300000Y334142D01*
D02*
G02*
X1265858Y300000I-34142J0D01*
G01*
X334142D01*
M02*
