G04*
G04 #@! TF.GenerationSoftware,Altium Limited,Altium Designer,25.6.2 (33)*
G04*
G04 Layer_Physical_Order=2*
G04 Layer_Color=16711680*
%FSLAX44Y44*%
%MOMM*%
G71*
G04*
G04 #@! TF.SameCoordinates,748B953C-F231-4B0D-B9CA-8924AE9A02C7*
G04*
G04*
G04 #@! TF.FilePolarity,Positive*
G04*
G01*
G75*
%ADD42R,1.3000X1.3000*%
%ADD43C,1.3000*%
%ADD47C,12.0000*%
%ADD48C,3.2000*%
%ADD49C,2.2500*%
%ADD50C,1.6510*%
%ADD51C,1.5150*%
%ADD52R,1.5150X1.5150*%
%ADD53C,1.8000*%
%ADD54R,1.8000X1.8000*%
%ADD55R,2.2500X2.2500*%
%ADD56R,2.7150X2.7150*%
%ADD57C,2.7150*%
%ADD58C,1.2700*%
G36*
X1070000Y1144270D02*
X925576D01*
X822960Y1041654D01*
Y1041652D01*
X821088Y1039780D01*
X820788Y1039643D01*
X820454Y1039504D01*
X820405Y1039467D01*
X820116Y1039334D01*
X819877Y1039162D01*
X819621Y1039015D01*
X818144Y1037732D01*
X817627Y1037335D01*
X817506Y1037178D01*
X817128Y1036849D01*
X816947Y1036616D01*
X816743Y1036404D01*
X815880Y1035058D01*
X815458Y1034508D01*
X815332Y1034204D01*
X814959Y1033624D01*
X814852Y1033349D01*
X814715Y1033088D01*
X814342Y1031814D01*
X814094Y1031217D01*
X814035Y1030769D01*
X813786Y1029918D01*
X813760Y1029625D01*
X813702Y1029335D01*
Y1028240D01*
X813629Y1027684D01*
Y980000D01*
X786473D01*
X786070Y1089855D01*
X797369Y1101154D01*
X797710Y1101599D01*
X798118Y1102007D01*
X798231Y1102177D01*
X798376Y1102321D01*
X799129Y1103448D01*
X799538Y1103981D01*
X799624Y1104189D01*
X799635Y1104205D01*
X799713Y1104394D01*
X799826Y1104564D01*
X800693Y1106657D01*
X800733Y1106857D01*
X800811Y1107046D01*
X800815Y1107065D01*
X800901Y1107273D01*
X800989Y1107939D01*
X801253Y1109268D01*
Y1109472D01*
X801293Y1109672D01*
Y1110250D01*
X801366Y1110806D01*
Y1241366D01*
X830000Y1270000D01*
X1070000D01*
Y1144270D01*
D02*
G37*
G36*
X770000Y1231900D02*
Y1112390D01*
X762749Y1105139D01*
X762734Y1105119D01*
X762714Y1105104D01*
X762384Y1104671D01*
X761996Y1104283D01*
X761882Y1104112D01*
X761737Y1103967D01*
X760991Y1102848D01*
X760580Y1102313D01*
X760570Y1102289D01*
X760555Y1102269D01*
X760476Y1102076D01*
X760474Y1102073D01*
X760396Y1101883D01*
X760282Y1101713D01*
X759415Y1099608D01*
X759375Y1099407D01*
X759297Y1099217D01*
X759297Y1099214D01*
X759217Y1099021D01*
X759213Y1098996D01*
X759204Y1098972D01*
X759118Y1098303D01*
X758859Y1096983D01*
X758860Y1096778D01*
X758820Y1096577D01*
X758823Y1096028D01*
X758752Y1095488D01*
X758755Y1095463D01*
X758752Y1095438D01*
X759170Y981440D01*
X758698Y980966D01*
Y871220D01*
X840994D01*
Y985343D01*
X870107D01*
Y1016000D01*
X884000D01*
X1110000Y790000D01*
X1277861D01*
Y650000D01*
X322139D01*
Y790000D01*
X570000D01*
X707703Y927703D01*
X712000Y927280D01*
X716618Y927735D01*
X721058Y929082D01*
X725150Y931269D01*
X728737Y934213D01*
X731681Y937800D01*
X733868Y941892D01*
X735215Y946332D01*
X735670Y950950D01*
X735215Y955568D01*
X733868Y960008D01*
X731681Y964100D01*
X728737Y967687D01*
X725150Y970631D01*
X723392Y971571D01*
Y980000D01*
X720000D01*
X530000Y1170000D01*
Y1270000D01*
X731520D01*
X770000Y1231900D01*
D02*
G37*
G36*
X1046480Y568960D02*
X1090440Y525000D01*
X1277861Y525000D01*
Y372176D01*
X1275829Y371426D01*
X1273801Y373801D01*
X1269785Y377231D01*
X1265281Y379991D01*
X1260401Y382012D01*
X1255266Y383245D01*
X1250000Y383660D01*
X1244734Y383245D01*
X1239599Y382012D01*
X1234719Y379991D01*
X1230215Y377231D01*
X1226199Y373801D01*
X1222769Y369785D01*
X1220009Y365281D01*
X1217988Y360401D01*
X1216755Y355266D01*
X1216340Y350000D01*
X1216755Y344734D01*
X1217988Y339599D01*
X1220009Y334719D01*
X1222769Y330215D01*
X1226199Y326199D01*
X1228574Y324171D01*
X1227824Y322139D01*
X372176D01*
X371426Y324171D01*
X373801Y326199D01*
X377231Y330215D01*
X379991Y334719D01*
X382012Y339599D01*
X383245Y344734D01*
X383660Y350000D01*
X383245Y355266D01*
X382012Y360401D01*
X379991Y365281D01*
X377231Y369785D01*
X373801Y373801D01*
X369785Y377231D01*
X365281Y379991D01*
X360401Y382012D01*
X355266Y383245D01*
X350000Y383660D01*
X344734Y383245D01*
X339599Y382012D01*
X334719Y379991D01*
X330215Y377231D01*
X326199Y373801D01*
X324171Y371426D01*
X322139Y372176D01*
Y525000D01*
X913620D01*
X957580Y568960D01*
X1046480Y568960D01*
D02*
G37*
%LPC*%
G36*
X888000Y974620D02*
X883382Y974165D01*
X878942Y972818D01*
X874850Y970631D01*
X871263Y967687D01*
X868319Y964100D01*
X866132Y960008D01*
X864785Y955568D01*
X864330Y950950D01*
X864785Y946332D01*
X866132Y941892D01*
X868319Y937800D01*
X871263Y934213D01*
X874850Y931269D01*
X878942Y929082D01*
X883382Y927735D01*
X888000Y927280D01*
X892618Y927735D01*
X897058Y929082D01*
X901150Y931269D01*
X904737Y934213D01*
X907681Y937800D01*
X909868Y941892D01*
X911215Y946332D01*
X911670Y950950D01*
X911215Y955568D01*
X909868Y960008D01*
X907681Y964100D01*
X904737Y967687D01*
X901150Y970631D01*
X897058Y972818D01*
X892618Y974165D01*
X888000Y974620D01*
D02*
G37*
G36*
X847549Y724482D02*
X844051D01*
X840673Y723577D01*
X837645Y721828D01*
X835172Y719355D01*
X833423Y716327D01*
X832518Y712949D01*
Y709451D01*
X833423Y706073D01*
X835172Y703045D01*
X837645Y700572D01*
X840673Y698823D01*
X844051Y697918D01*
X847549D01*
X850927Y698823D01*
X853955Y700572D01*
X856428Y703045D01*
X858177Y706073D01*
X859082Y709451D01*
Y712949D01*
X858177Y716327D01*
X856428Y719355D01*
X853955Y721828D01*
X850927Y723577D01*
X847549Y724482D01*
D02*
G37*
G36*
X629149D02*
X625651D01*
X622273Y723577D01*
X619245Y721828D01*
X616772Y719355D01*
X615023Y716327D01*
X614118Y712949D01*
Y709451D01*
X615023Y706073D01*
X616772Y703045D01*
X619245Y700572D01*
X622273Y698823D01*
X625651Y697918D01*
X629149D01*
X632527Y698823D01*
X635555Y700572D01*
X638028Y703045D01*
X639777Y706073D01*
X640682Y709451D01*
Y712949D01*
X639777Y716327D01*
X638028Y719355D01*
X635555Y721828D01*
X632527Y723577D01*
X629149Y724482D01*
D02*
G37*
G36*
X579599D02*
X576101D01*
X572723Y723577D01*
X569695Y721828D01*
X567222Y719355D01*
X565473Y716327D01*
X564568Y712949D01*
Y709451D01*
X565473Y706073D01*
X567222Y703045D01*
X569695Y700572D01*
X572723Y698823D01*
X576101Y697918D01*
X579599D01*
X582977Y698823D01*
X586005Y700572D01*
X588478Y703045D01*
X590227Y706073D01*
X591132Y709451D01*
Y712949D01*
X590227Y716327D01*
X588478Y719355D01*
X586005Y721828D01*
X582977Y723577D01*
X579599Y724482D01*
D02*
G37*
G36*
X501650Y521397D02*
X498183Y520940D01*
X494952Y519602D01*
X492177Y517473D01*
X490048Y514698D01*
X488710Y511467D01*
X488253Y508000D01*
X488710Y504533D01*
X490048Y501302D01*
X492177Y498527D01*
X494952Y496398D01*
X498183Y495060D01*
X501650Y494603D01*
X505117Y495060D01*
X508348Y496398D01*
X511123Y498527D01*
X513252Y501302D01*
X514590Y504533D01*
X515047Y508000D01*
X514590Y511467D01*
X513252Y514698D01*
X511123Y517473D01*
X508348Y519602D01*
X505117Y520940D01*
X501650Y521397D01*
D02*
G37*
G36*
X374650D02*
X371183Y520940D01*
X367952Y519602D01*
X365177Y517473D01*
X363048Y514698D01*
X361710Y511467D01*
X361253Y508000D01*
X361710Y504533D01*
X363048Y501302D01*
X365177Y498527D01*
X367952Y496398D01*
X371183Y495060D01*
X374650Y494603D01*
X378117Y495060D01*
X381348Y496398D01*
X384123Y498527D01*
X386252Y501302D01*
X387590Y504533D01*
X388047Y508000D01*
X387590Y511467D01*
X386252Y514698D01*
X384123Y517473D01*
X381348Y519602D01*
X378117Y520940D01*
X374650Y521397D01*
D02*
G37*
G36*
X498550Y421356D02*
X496323Y421062D01*
X494247Y420203D01*
X492465Y418835D01*
X491097Y417053D01*
X490238Y414977D01*
X489944Y412750D01*
X490238Y410523D01*
X491097Y408447D01*
X492465Y406665D01*
X494247Y405297D01*
X496323Y404438D01*
X498550Y404144D01*
X500777Y404438D01*
X502853Y405297D01*
X504635Y406665D01*
X506003Y408447D01*
X506862Y410523D01*
X507156Y412750D01*
X506862Y414977D01*
X506003Y417053D01*
X504635Y418835D01*
X502853Y420203D01*
X500777Y421062D01*
X498550Y421356D01*
D02*
G37*
G36*
X769600Y426147D02*
X766133Y425690D01*
X762902Y424352D01*
X760127Y422223D01*
X757998Y419448D01*
X756660Y416217D01*
X756203Y412750D01*
X756660Y409283D01*
X757998Y406052D01*
X760127Y403277D01*
X762902Y401148D01*
X766133Y399810D01*
X769600Y399353D01*
X773067Y399810D01*
X776298Y401148D01*
X779073Y403277D01*
X781202Y406052D01*
X782540Y409283D01*
X782997Y412750D01*
X782540Y416217D01*
X781202Y419448D01*
X779073Y422223D01*
X776298Y424352D01*
X773067Y425690D01*
X769600Y426147D01*
D02*
G37*
G36*
X551200D02*
X547733Y425690D01*
X544502Y424352D01*
X541727Y422223D01*
X539598Y419448D01*
X538260Y416217D01*
X537803Y412750D01*
X538260Y409283D01*
X539598Y406052D01*
X541727Y403277D01*
X544502Y401148D01*
X547733Y399810D01*
X551200Y399353D01*
X554667Y399810D01*
X557898Y401148D01*
X560673Y403277D01*
X562802Y406052D01*
X564140Y409283D01*
X564597Y412750D01*
X564140Y416217D01*
X562802Y419448D01*
X560673Y422223D01*
X557898Y424352D01*
X554667Y425690D01*
X551200Y426147D01*
D02*
G37*
G36*
X860192Y381872D02*
X838128D01*
Y359808D01*
X860192D01*
Y381872D01*
D02*
G37*
G36*
X1049160Y381967D02*
X1046280Y381588D01*
X1043596Y380476D01*
X1041292Y378708D01*
X1039524Y376404D01*
X1038412Y373720D01*
X1038033Y370840D01*
X1038412Y367960D01*
X1039524Y365276D01*
X1041292Y362972D01*
X1043596Y361204D01*
X1046280Y360092D01*
X1049160Y359713D01*
X1052040Y360092D01*
X1054724Y361204D01*
X1057028Y362972D01*
X1058796Y365276D01*
X1059908Y367960D01*
X1060287Y370840D01*
X1059908Y373720D01*
X1058796Y376404D01*
X1057028Y378708D01*
X1054724Y380476D01*
X1052040Y381588D01*
X1049160Y381967D01*
D02*
G37*
G36*
X949160D02*
X946280Y381588D01*
X943596Y380476D01*
X941292Y378708D01*
X939524Y376404D01*
X938412Y373720D01*
X938033Y370840D01*
X938412Y367960D01*
X939524Y365276D01*
X941292Y362972D01*
X943596Y361204D01*
X946280Y360092D01*
X949160Y359713D01*
X952040Y360092D01*
X954724Y361204D01*
X957028Y362972D01*
X958796Y365276D01*
X959908Y367960D01*
X960287Y370840D01*
X959908Y373720D01*
X958796Y376404D01*
X957028Y378708D01*
X954724Y380476D01*
X952040Y381588D01*
X949160Y381967D01*
D02*
G37*
%LPD*%
D42*
X463550Y412750D02*
D03*
D43*
X498550D02*
D03*
D47*
X1003300Y1206500D02*
D03*
X596900D02*
D03*
D48*
X1250000Y350000D02*
D03*
X350000D02*
D03*
X1250000Y1250000D02*
D03*
X350000D02*
D03*
D49*
X627400Y711200D02*
D03*
X845800D02*
D03*
X769600Y412750D02*
D03*
X551200D02*
D03*
X374650Y508000D02*
D03*
Y711200D02*
D03*
X577850D02*
D03*
X501650Y508000D02*
D03*
D50*
X712000Y950950D02*
D03*
X888000D02*
D03*
D51*
X835000Y1181100D02*
D03*
D52*
X760000Y1221100D02*
D03*
D53*
X1099160Y370840D02*
D03*
X1049160D02*
D03*
X999160D02*
D03*
X949160D02*
D03*
X899160D02*
D03*
D54*
X849160D02*
D03*
D55*
X450850Y508000D02*
D03*
D56*
X854500Y1000950D02*
D03*
D57*
X800000D02*
D03*
X745500D02*
D03*
D58*
X1035800Y1236500D02*
D03*
X1003300Y1249000D02*
D03*
X1045800Y1206500D02*
D03*
X1003300Y1164000D02*
D03*
X960800Y1206500D02*
D03*
X973300Y1236500D02*
D03*
X970800Y1176500D02*
D03*
X1033300D02*
D03*
X629400Y1236500D02*
D03*
X596900Y1249000D02*
D03*
X639400Y1206500D02*
D03*
X596900Y1164000D02*
D03*
X554400Y1206500D02*
D03*
X566900Y1236500D02*
D03*
X564400Y1176500D02*
D03*
X626900D02*
D03*
X1033780Y477520D02*
D03*
X1051560D02*
D03*
X1098240Y510000D02*
D03*
X1121100D02*
D03*
X1141420D02*
D03*
X1164280D02*
D03*
X1187140D02*
D03*
X1210000D02*
D03*
X939777Y480540D02*
D03*
X921997D02*
D03*
X1031240Y822960D02*
D03*
Y843280D02*
D03*
X1081082Y668363D02*
D03*
Y706463D02*
D03*
Y688683D02*
D03*
Y726783D02*
D03*
X1101490Y687721D02*
D03*
X1124350D02*
D03*
X1144670D02*
D03*
X1167530D02*
D03*
X1190390D02*
D03*
X1213250D02*
D03*
X520700Y749300D02*
D03*
Y768350D02*
D03*
M02*
