M48
;Layer_Color=9474304
;FILE_FORMAT=4:4
METRIC,LZ
;TYPE=PLATED
T01F00S00C0.7112
T02F00S00C0.8000
T03F00S00C1.0100
T04F00S00C1.2000
T05F00S00C1.5000
T06F00S00C1.8100
T07F00S00C5.5000
;TYPE=NON_PLATED
T08F00S00C1.6510
T09F00S00C3.2000
%
T01
X0121Y0051
X0121325Y00687721
X0119039
X0116753
X0114467
X0112435
X0110149
X01081082Y00688683
Y00706463
Y00726783
Y00668363
X0109824Y0051
X011211
X0114142
X0116428
X0118714
X0105156Y0047752
X0103378
X00939777Y0048054
X00921997
X005207Y007493
Y0076835
X005644Y011765
X005969Y01164
X006269Y011765
X009708
X010033Y01164
X010333Y011765
X0103124Y0084328
Y0082296
X010458Y012065
X010358Y012365
X010033Y01249
X009733Y012365
X009608Y012065
X006394
X006294Y012365
X005969Y01249
X005669Y012365
X005544Y012065
T02
X0046355Y0041275
X0049855
T03
X00835Y011811
X0076Y012211
T04
X0084916Y0037084
X0089916
X0094916
X0099916
X0104916
X0109916
T05
X008458Y007112
X006274
X0057785
X0050165Y00508
X0045085
X005512Y0041275
X007696
X0037465Y00508
Y007112
T06
X007455Y0100095
X008
X008545
T07
X010033Y012065
X005969
T08
X00712Y0095095
X00888
T09
X0035Y0035
X0125
Y0125
X0035
M30
