G04*
G04 #@! TF.GenerationSoftware,Altium Limited,Altium Designer,25.6.2 (33)*
G04*
G04 Layer_Color=32896*
%FSLAX44Y44*%
%MOMM*%
G71*
G04*
G04 #@! TF.SameCoordinates,7E2F0CEB-0BE2-4D8F-B7A8-C9BB9A8C5560*
G04*
G04*
G04 #@! TF.FilePolarity,Positive*
G04*
G01*
G75*
%ADD17C,0.2540*%
%ADD18C,1.0000*%
D17*
X401323Y327656D02*
X403862Y330195D01*
X408941D01*
X411480Y327656D01*
Y317499D01*
X408941Y314960D01*
X403862D01*
X401323Y317499D01*
Y322578D01*
X406402D01*
X396245Y314960D02*
Y330195D01*
X386088Y314960D01*
Y330195D01*
X381010D02*
Y314960D01*
X373392D01*
X370853Y317499D01*
Y327656D01*
X373392Y330195D01*
X381010D01*
X502920Y322578D02*
X492763D01*
X497842Y327656D02*
Y317499D01*
X477528Y314960D02*
X487685D01*
X477528Y325117D01*
Y327656D01*
X480067Y330195D01*
X485146D01*
X487685Y327656D01*
X464832Y314960D02*
Y330195D01*
X472450Y322578D01*
X462293D01*
X457215Y330195D02*
Y320038D01*
X452136Y314960D01*
X447058Y320038D01*
Y330195D01*
X777243Y355595D02*
X787400D01*
Y340360D01*
X777243D01*
X787400Y347977D02*
X782322D01*
X772165Y340360D02*
Y350517D01*
X764547D01*
X762008Y347977D01*
Y340360D01*
X754391Y350517D02*
X749312D01*
X746773Y347977D01*
Y340360D01*
X754391D01*
X756930Y342899D01*
X754391Y345438D01*
X746773D01*
X741695Y355595D02*
Y340360D01*
X734077D01*
X731538Y342899D01*
Y345438D01*
Y347977D01*
X734077Y350517D01*
X741695D01*
X726460Y340360D02*
X721381D01*
X723921D01*
Y355595D01*
X726460D01*
X706146Y340360D02*
X711225D01*
X713764Y342899D01*
Y347977D01*
X711225Y350517D01*
X706146D01*
X703607Y347977D01*
Y345438D01*
X713764D01*
X830583Y386080D02*
Y375923D01*
X825504Y381002D02*
X835661D01*
X838200Y370845D02*
Y365767D01*
Y368306D01*
X822965D01*
X825504Y370845D01*
X838200Y347992D02*
Y358149D01*
X828043Y347992D01*
X825504D01*
X822965Y350532D01*
Y355610D01*
X825504Y358149D01*
X822965Y342914D02*
X833122D01*
X838200Y337836D01*
X833122Y332757D01*
X822965D01*
X1021085Y353063D02*
Y358141D01*
X1023624Y360680D01*
X1033781D01*
X1036320Y358141D01*
Y353063D01*
X1033781Y350523D01*
X1023624D01*
X1021085Y353063D01*
X1036320Y345445D02*
X1026163D01*
Y337827D01*
X1028702Y335288D01*
X1036320D01*
X970285Y389890D02*
X985520D01*
Y382272D01*
X982981Y379733D01*
X972824D01*
X970285Y382272D01*
Y389890D01*
X985520Y372116D02*
Y367037D01*
X982981Y364498D01*
X977902D01*
X975363Y367037D01*
Y372116D01*
X977902Y374655D01*
X982981D01*
X985520Y372116D01*
Y359420D02*
X975363D01*
Y351802D01*
X977902Y349263D01*
X985520D01*
Y336567D02*
Y341646D01*
X982981Y344185D01*
X977902D01*
X975363Y341646D01*
Y336567D01*
X977902Y334028D01*
X980442D01*
Y344185D01*
X922025Y386083D02*
Y396240D01*
X929642D01*
Y391162D01*
Y396240D01*
X937260D01*
X927103Y378466D02*
Y373387D01*
X929642Y370848D01*
X937260D01*
Y378466D01*
X934721Y381005D01*
X932182Y378466D01*
Y370848D01*
X927103Y365770D02*
X934721D01*
X937260Y363231D01*
Y355613D01*
X927103D01*
X937260Y350535D02*
Y345456D01*
Y347996D01*
X922025D01*
Y350535D01*
X924564Y335300D02*
X927103D01*
Y337839D01*
Y332761D01*
Y335300D01*
X934721D01*
X937260Y332761D01*
X1089660Y373380D02*
X1074425D01*
Y365762D01*
X1076964Y363223D01*
X1082042D01*
X1084582Y365762D01*
Y373380D01*
Y368302D02*
X1089660Y363223D01*
X1074425Y358145D02*
X1089660D01*
Y350527D01*
X1087121Y347988D01*
X1084582D01*
X1082042Y350527D01*
Y358145D01*
Y350527D01*
X1079503Y347988D01*
X1076964D01*
X1074425Y350527D01*
Y358145D01*
X1076964Y332753D02*
X1074425Y335292D01*
Y340371D01*
X1076964Y342910D01*
X1087121D01*
X1089660Y340371D01*
Y335292D01*
X1087121Y332753D01*
X1082042D01*
Y337831D01*
X1125224Y361953D02*
X1122685Y364492D01*
Y369571D01*
X1125224Y372110D01*
X1135381D01*
X1137920Y369571D01*
Y364492D01*
X1135381Y361953D01*
X1130302D01*
Y367032D01*
X1137920Y356875D02*
X1122685D01*
X1137920Y346718D01*
X1122685D01*
Y341640D02*
X1137920D01*
Y334022D01*
X1135381Y331483D01*
X1125224D01*
X1122685Y334022D01*
Y341640D01*
X873764Y360683D02*
X871225Y363222D01*
Y368301D01*
X873764Y370840D01*
X883921D01*
X886460Y368301D01*
Y363222D01*
X883921Y360683D01*
X878842D01*
Y365762D01*
X886460Y355605D02*
X871225D01*
X886460Y345448D01*
X871225D01*
Y340370D02*
X886460D01*
Y332752D01*
X883921Y330213D01*
X873764D01*
X871225Y332752D01*
Y340370D01*
D18*
X379588Y1186340D02*
Y1119695D01*
X346265Y1153018D02*
X412910D01*
X1150780Y1155540D02*
X1084135D01*
M02*
