G04*
G04 #@! TF.GenerationSoftware,Altium Limited,Altium Designer,25.6.2 (33)*
G04*
G04 Layer_Color=8388736*
%FSLAX44Y44*%
%MOMM*%
G71*
G04*
G04 #@! TF.SameCoordinates,7E2F0CEB-0BE2-4D8F-B7A8-C9BB9A8C5560*
G04*
G04*
G04 #@! TF.FilePolarity,Negative*
G04*
G01*
G75*
%ADD19R,2.7042X1.4526*%
%ADD24R,8.7122X10.3378*%
%ADD25R,2.9972X0.9906*%
%ADD28R,1.2000X0.9000*%
%ADD30R,1.9000X3.6800*%
%ADD31R,0.2500X0.7000*%
%ADD32C,2.3850*%
%ADD33R,0.7000X0.2500*%
%ADD34R,0.9000X1.2000*%
%ADD35R,0.8000X0.9000*%
%ADD36R,1.5549X3.4082*%
%ADD37R,2.2032X2.9532*%
%ADD38R,2.7332X5.7132*%
G04:AMPARAMS|DCode=39|XSize=1.9032mm|YSize=3.8032mm|CornerRadius=0.3141mm|HoleSize=0mm|Usage=FLASHONLY|Rotation=0.000|XOffset=0mm|YOffset=0mm|HoleType=Round|Shape=RoundedRectangle|*
%AMROUNDEDRECTD39*
21,1,1.9032,3.1750,0,0,0.0*
21,1,1.2750,3.8032,0,0,0.0*
1,1,0.6282,0.6375,-1.5875*
1,1,0.6282,-0.6375,-1.5875*
1,1,0.6282,-0.6375,1.5875*
1,1,0.6282,0.6375,1.5875*
%
%ADD39ROUNDEDRECTD39*%
G04:AMPARAMS|DCode=40|XSize=1.9032mm|YSize=3.8032mm|CornerRadius=0.3141mm|HoleSize=0mm|Usage=FLASHONLY|Rotation=270.000|XOffset=0mm|YOffset=0mm|HoleType=Round|Shape=RoundedRectangle|*
%AMROUNDEDRECTD40*
21,1,1.9032,3.1750,0,0,270.0*
21,1,1.2750,3.8032,0,0,270.0*
1,1,0.6282,-1.5875,-0.6375*
1,1,0.6282,-1.5875,0.6375*
1,1,0.6282,1.5875,0.6375*
1,1,0.6282,1.5875,-0.6375*
%
%ADD40ROUNDEDRECTD40*%
%ADD41C,1.7272*%
%ADD42R,2.9532X2.2032*%
%ADD43R,1.6032X1.2032*%
%ADD44C,1.3000*%
%ADD45R,1.3000X1.3000*%
%ADD46C,12.2032*%
%ADD47C,1.8034*%
%ADD48R,2.0032X2.0032*%
%ADD49C,2.0032*%
%ADD50R,2.9464X2.9464*%
%ADD51C,2.9464*%
%ADD52C,2.4532*%
%ADD53C,1.7182*%
%ADD54R,1.7182X1.7182*%
%ADD55C,3.4032*%
%ADD56C,1.2000*%
%ADD57R,1.7532X1.7532*%
%ADD58R,1.2000X1.2000*%
%ADD59C,1.7532*%
%ADD60C,0.9032*%
%ADD61C,1.4732*%
%ADD62C,1.4032*%
G36*
X457870Y623230D02*
X431370D01*
Y656980D01*
X434120Y659730D01*
X457870D01*
Y623230D01*
D02*
G37*
D19*
X492760Y594808D02*
D03*
Y619313D02*
D03*
X635000Y737048D02*
D03*
Y761553D02*
D03*
X596900Y737048D02*
D03*
Y761553D02*
D03*
X558800Y737048D02*
D03*
Y761553D02*
D03*
D24*
X678561Y576580D02*
D03*
D25*
X788670Y601980D02*
D03*
Y551180D02*
D03*
D28*
X635000Y300650D02*
D03*
X718820Y320380D02*
D03*
X411480Y568620D02*
D03*
X718820Y299380D02*
D03*
X411480Y589620D02*
D03*
X762000Y665140D02*
D03*
X452120Y726780D02*
D03*
X762000Y686140D02*
D03*
X635000Y321650D02*
D03*
X452120Y705780D02*
D03*
D30*
X547040Y601726D02*
D03*
X601040D02*
D03*
D31*
X447120Y617480D02*
D03*
X442120D02*
D03*
X437120D02*
D03*
X452120D02*
D03*
X437120Y665480D02*
D03*
X442120D02*
D03*
X447120D02*
D03*
X452120D02*
D03*
D32*
X444620Y641480D02*
D03*
D33*
X425620Y633980D02*
D03*
X463620Y643980D02*
D03*
X425620Y638980D02*
D03*
Y628980D02*
D03*
X463620D02*
D03*
Y633980D02*
D03*
Y653980D02*
D03*
Y648980D02*
D03*
Y638980D02*
D03*
X425620Y643980D02*
D03*
Y648980D02*
D03*
Y653980D02*
D03*
D34*
X360340Y589280D02*
D03*
Y614680D02*
D03*
X499450Y698500D02*
D03*
Y723900D02*
D03*
X360340Y645160D02*
D03*
Y670560D02*
D03*
X381340Y614680D02*
D03*
X478450Y723900D02*
D03*
Y698500D02*
D03*
X526120Y643890D02*
D03*
X505120D02*
D03*
X381340Y645160D02*
D03*
Y589280D02*
D03*
Y670560D02*
D03*
D35*
X716400Y695960D02*
D03*
X731400D02*
D03*
D36*
X541244Y330200D02*
D03*
X601757D02*
D03*
D37*
X1050000Y870000D02*
D03*
Y969822D02*
D03*
X1110000Y870000D02*
D03*
Y969822D02*
D03*
D38*
X726640Y1170000D02*
D03*
X773360D02*
D03*
D39*
X625000Y980000D02*
D03*
X560000D02*
D03*
D40*
X500000Y977500D02*
D03*
Y1042500D02*
D03*
D41*
X1031240Y457200D02*
D03*
X980440D02*
D03*
X929640D02*
D03*
X1132840D02*
D03*
X1082040D02*
D03*
D42*
X992950Y757250D02*
D03*
Y797250D02*
D03*
Y837250D02*
D03*
Y877250D02*
D03*
Y957250D02*
D03*
X683450D02*
D03*
Y877250D02*
D03*
Y837250D02*
D03*
Y797250D02*
D03*
Y757250D02*
D03*
D43*
X686640Y319380D02*
D03*
Y300380D02*
D03*
X664640Y309880D02*
D03*
D44*
X370840Y772560D02*
D03*
D45*
Y822560D02*
D03*
D46*
X980000Y1155700D02*
D03*
X520700D02*
D03*
D47*
X792620Y480060D02*
D03*
X642620D02*
D03*
X592620D02*
D03*
X542620D02*
D03*
Y405060D02*
D03*
X592620D02*
D03*
X642620D02*
D03*
X792620D02*
D03*
D48*
X780000Y310000D02*
D03*
D49*
X830000D02*
D03*
X880000D02*
D03*
X930000D02*
D03*
X980000D02*
D03*
X1030000D02*
D03*
X1080000D02*
D03*
X1130000D02*
D03*
D50*
X391160Y368300D02*
D03*
D51*
X473710D02*
D03*
D52*
X285780Y444500D02*
D03*
X511780D02*
D03*
D53*
X710000Y1100000D02*
D03*
D54*
X785000Y1060000D02*
D03*
D55*
X1200000Y1190000D02*
D03*
X300000Y290000D02*
D03*
X1200000D02*
D03*
X300000Y1190000D02*
D03*
D56*
X647700Y679500D02*
D03*
X622300D02*
D03*
D57*
X514350Y673100D02*
D03*
D58*
X673100Y679500D02*
D03*
D59*
X539750Y673100D02*
D03*
D60*
X471170Y627380D02*
D03*
Y613410D02*
D03*
X516385Y613395D02*
D03*
Y622300D02*
D03*
X444500Y635000D02*
D03*
X435610Y628650D02*
D03*
X453390D02*
D03*
X515620Y595630D02*
D03*
Y604520D02*
D03*
X435610Y641350D02*
D03*
X453390D02*
D03*
X444500Y647700D02*
D03*
X453390Y654050D02*
D03*
X435610D02*
D03*
X576580Y591820D02*
D03*
X565150D02*
D03*
X528320Y613410D02*
D03*
Y622300D02*
D03*
X565150Y607060D02*
D03*
X576580D02*
D03*
Y624840D02*
D03*
X528320Y595630D02*
D03*
Y604520D02*
D03*
X565150Y624840D02*
D03*
X528320Y586740D02*
D03*
X515620D02*
D03*
X576580Y578556D02*
D03*
X565150D02*
D03*
X528320D02*
D03*
X515620D02*
D03*
D61*
X1010000Y1125700D02*
D03*
X947500D02*
D03*
X950000Y1185700D02*
D03*
X937500Y1155700D02*
D03*
X980000Y1113200D02*
D03*
X1022500Y1155700D02*
D03*
X980000Y1198200D02*
D03*
X1012500Y1185700D02*
D03*
X553200Y1185700D02*
D03*
X520700Y1198200D02*
D03*
X563200Y1155700D02*
D03*
X520700Y1113200D02*
D03*
X478200Y1155700D02*
D03*
X490700Y1185700D02*
D03*
X488200Y1125700D02*
D03*
X550700D02*
D03*
X703580Y320040D02*
D03*
X618490Y299720D02*
D03*
X395226Y568103D02*
D03*
X1132840Y436880D02*
D03*
X645160Y718820D02*
D03*
X624840D02*
D03*
X607060D02*
D03*
X586740D02*
D03*
X568960D02*
D03*
X548640D02*
D03*
X1033780Y840740D02*
D03*
X1051560D02*
D03*
X1069340D02*
D03*
X1089660D02*
D03*
X1107440D02*
D03*
X1125220D02*
D03*
X360680Y567690D02*
D03*
D62*
X706722Y606241D02*
D03*
Y575761D02*
D03*
Y542741D02*
D03*
X648302D02*
D03*
Y575761D02*
D03*
X647700Y607060D02*
D03*
X678180D02*
D03*
X678782Y542741D02*
D03*
Y575761D02*
D03*
M02*
