G04*
G04 #@! TF.GenerationSoftware,Altium Limited,Altium Designer,25.6.2 (33)*
G04*
G04 Layer_Color=8421504*
%FSLAX44Y44*%
%MOMM*%
G71*
G04*
G04 #@! TF.SameCoordinates,7E2F0CEB-0BE2-4D8F-B7A8-C9BB9A8C5560*
G04*
G04*
G04 #@! TF.FilePolarity,Positive*
G04*
G01*
G75*
%ADD19R,2.7042X1.4526*%
%ADD20R,2.0000X2.7500*%
%ADD21R,2.5300X5.5100*%
G04:AMPARAMS|DCode=22|XSize=1.7mm|YSize=3.6mm|CornerRadius=0.2125mm|HoleSize=0mm|Usage=FLASHONLY|Rotation=0.000|XOffset=0mm|YOffset=0mm|HoleType=Round|Shape=RoundedRectangle|*
%AMROUNDEDRECTD22*
21,1,1.7000,3.1750,0,0,0.0*
21,1,1.2750,3.6000,0,0,0.0*
1,1,0.4250,0.6375,-1.5875*
1,1,0.4250,-0.6375,-1.5875*
1,1,0.4250,-0.6375,1.5875*
1,1,0.4250,0.6375,1.5875*
%
%ADD22ROUNDEDRECTD22*%
G04:AMPARAMS|DCode=23|XSize=1.7mm|YSize=3.6mm|CornerRadius=0.2125mm|HoleSize=0mm|Usage=FLASHONLY|Rotation=270.000|XOffset=0mm|YOffset=0mm|HoleType=Round|Shape=RoundedRectangle|*
%AMROUNDEDRECTD23*
21,1,1.7000,3.1750,0,0,270.0*
21,1,1.2750,3.6000,0,0,270.0*
1,1,0.4250,-1.5875,-0.6375*
1,1,0.4250,-1.5875,0.6375*
1,1,0.4250,1.5875,0.6375*
1,1,0.4250,1.5875,-0.6375*
%
%ADD23ROUNDEDRECTD23*%
%ADD24R,8.7122X10.3378*%
%ADD25R,2.9972X0.9906*%
%ADD26C,1.5240*%
%ADD27R,2.7500X2.0000*%
%ADD28R,1.2000X0.9000*%
%ADD29R,1.4000X1.0000*%
%ADD30R,1.9000X3.6800*%
%ADD31R,0.2500X0.7000*%
%ADD32C,2.3850*%
%ADD33R,0.7000X0.2500*%
%ADD34R,0.9000X1.2000*%
%ADD35R,0.8000X0.9000*%
%ADD36R,1.5549X3.4082*%
G36*
X457870Y623230D02*
X431370D01*
Y656980D01*
X434120Y659730D01*
X457870D01*
Y623230D01*
D02*
G37*
D19*
X492760Y594808D02*
D03*
Y619313D02*
D03*
X635000Y737048D02*
D03*
Y761553D02*
D03*
X596900Y737048D02*
D03*
Y761553D02*
D03*
X558800Y737048D02*
D03*
Y761553D02*
D03*
D20*
X1050000Y870000D02*
D03*
Y969822D02*
D03*
X1110000Y870000D02*
D03*
Y969822D02*
D03*
D21*
X726640Y1170000D02*
D03*
X773360D02*
D03*
D22*
X625000Y980000D02*
D03*
X560000D02*
D03*
D23*
X500000Y977500D02*
D03*
Y1042500D02*
D03*
D24*
X678561Y576580D02*
D03*
D25*
X788670Y601980D02*
D03*
Y551180D02*
D03*
D26*
X1031240Y457200D02*
D03*
X980440D02*
D03*
X929640D02*
D03*
X1132840D02*
D03*
X1082040D02*
D03*
D27*
X992950Y757250D02*
D03*
Y797250D02*
D03*
Y837250D02*
D03*
Y877250D02*
D03*
Y957250D02*
D03*
X683450D02*
D03*
Y877250D02*
D03*
Y837250D02*
D03*
Y797250D02*
D03*
Y757250D02*
D03*
D28*
X635000Y300650D02*
D03*
X718820Y320380D02*
D03*
X411480Y568620D02*
D03*
X718820Y299380D02*
D03*
X411480Y589620D02*
D03*
X762000Y665140D02*
D03*
X452120Y726780D02*
D03*
X762000Y686140D02*
D03*
X635000Y321650D02*
D03*
X452120Y705780D02*
D03*
D29*
X686640Y319380D02*
D03*
Y300380D02*
D03*
X664640Y309880D02*
D03*
D30*
X547040Y601726D02*
D03*
X601040D02*
D03*
D31*
X447120Y617480D02*
D03*
X442120D02*
D03*
X437120D02*
D03*
X452120D02*
D03*
X437120Y665480D02*
D03*
X442120D02*
D03*
X447120D02*
D03*
X452120D02*
D03*
D32*
X444620Y641480D02*
D03*
D33*
X425620Y633980D02*
D03*
X463620Y643980D02*
D03*
X425620Y638980D02*
D03*
Y628980D02*
D03*
X463620D02*
D03*
Y633980D02*
D03*
Y653980D02*
D03*
Y648980D02*
D03*
Y638980D02*
D03*
X425620Y643980D02*
D03*
Y648980D02*
D03*
Y653980D02*
D03*
D34*
X360340Y589280D02*
D03*
Y614680D02*
D03*
X499450Y698500D02*
D03*
Y723900D02*
D03*
X360340Y645160D02*
D03*
Y670560D02*
D03*
X381340Y614680D02*
D03*
X478450Y723900D02*
D03*
Y698500D02*
D03*
X526120Y643890D02*
D03*
X505120D02*
D03*
X381340Y645160D02*
D03*
Y589280D02*
D03*
Y670560D02*
D03*
D35*
X716400Y695960D02*
D03*
X731400D02*
D03*
D36*
X541244Y330200D02*
D03*
X601757D02*
D03*
M02*
