G04*
G04 #@! TF.GenerationSoftware,Altium Limited,Altium Designer,25.6.2 (33)*
G04*
G04 Layer_Physical_Order=2*
G04 Layer_Color=16711680*
%FSLAX44Y44*%
%MOMM*%
G71*
G04*
G04 #@! TF.SameCoordinates,7E2F0CEB-0BE2-4D8F-B7A8-C9BB9A8C5560*
G04*
G04*
G04 #@! TF.FilePolarity,Positive*
G04*
G01*
G75*
%ADD44C,1.3000*%
%ADD45R,1.3000X1.3000*%
%ADD47C,1.8034*%
%ADD56C,1.2000*%
%ADD58R,1.2000X1.2000*%
%ADD64C,0.7620*%
%ADD65C,12.0000*%
%ADD66R,1.8000X1.8000*%
%ADD67C,1.8000*%
%ADD68R,2.7432X2.7432*%
%ADD69C,2.7432*%
%ADD70C,2.2500*%
%ADD71C,1.5150*%
%ADD72R,1.5150X1.5150*%
%ADD73C,3.2000*%
%ADD74R,1.5500X1.5500*%
%ADD75C,1.5500*%
%ADD76C,0.7000*%
%ADD77C,1.2700*%
G36*
X442150Y895350D02*
X446627Y893506D01*
X446827Y893467D01*
X447016Y893390D01*
X450000Y892802D01*
X450473Y892690D01*
X450634Y892677D01*
X451848Y892438D01*
X452052Y892439D01*
X452253Y892399D01*
X454207Y892403D01*
X454715Y892365D01*
X716339Y892897D01*
X716847Y892938D01*
X718799Y892942D01*
X718998Y892982D01*
X719202Y892983D01*
X720416Y893226D01*
X720580Y893240D01*
X721057Y893355D01*
X724025Y893951D01*
X724213Y894029D01*
X724413Y894069D01*
X727491Y895350D01*
X892700Y895350D01*
X896154Y893919D01*
X896354Y893879D01*
X896543Y893801D01*
X901373Y892840D01*
X901577D01*
X901777Y892801D01*
X904240D01*
X1132840Y892801D01*
X1135303D01*
X1135503Y892840D01*
X1135707D01*
X1140537Y893801D01*
X1140726Y893879D01*
X1140926Y893919D01*
X1144380Y895350D01*
X1227861D01*
Y312176D01*
X1225829Y311426D01*
X1223801Y313801D01*
X1219785Y317231D01*
X1215281Y319991D01*
X1210401Y322012D01*
X1205266Y323245D01*
X1200000Y323660D01*
X1194734Y323245D01*
X1189599Y322012D01*
X1184719Y319991D01*
X1180215Y317231D01*
X1176199Y313801D01*
X1172769Y309785D01*
X1170009Y305281D01*
X1167988Y300401D01*
X1166755Y295266D01*
X1166340Y290000D01*
X1166755Y284734D01*
X1167988Y279599D01*
X1170009Y274719D01*
X1172769Y270215D01*
X1176199Y266199D01*
X1178574Y264171D01*
X1177824Y262139D01*
X322176D01*
X321426Y264171D01*
X323801Y266199D01*
X327231Y270215D01*
X329991Y274719D01*
X332012Y279599D01*
X333245Y284734D01*
X333660Y290000D01*
X333245Y295266D01*
X332012Y300401D01*
X329991Y305281D01*
X327231Y309785D01*
X323801Y313801D01*
X319785Y317231D01*
X315281Y319991D01*
X310401Y322012D01*
X305266Y323245D01*
X300000Y323660D01*
X294734Y323245D01*
X289599Y322012D01*
X284719Y319991D01*
X280215Y317231D01*
X276199Y313801D01*
X274171Y311426D01*
X272139Y312176D01*
Y437500D01*
X274171Y438044D01*
X275152Y436345D01*
X277625Y433872D01*
X280653Y432123D01*
X284031Y431218D01*
X287529D01*
X290907Y432123D01*
X293935Y433872D01*
X296408Y436345D01*
X298157Y439373D01*
X299062Y442751D01*
Y446249D01*
X298157Y449627D01*
X296408Y452655D01*
X293935Y455128D01*
X290907Y456877D01*
X287529Y457782D01*
X284031D01*
X280653Y456877D01*
X277625Y455128D01*
X275152Y452655D01*
X274171Y450956D01*
X272139Y451500D01*
Y895350D01*
X442150Y895350D01*
D02*
G37*
%LPC*%
G36*
X371963Y781092D02*
X369717D01*
X367547Y780511D01*
X365601Y779387D01*
X364013Y777799D01*
X362889Y775853D01*
X362308Y773683D01*
Y771437D01*
X362889Y769267D01*
X364013Y767321D01*
X365601Y765733D01*
X367547Y764609D01*
X369717Y764028D01*
X371963D01*
X374133Y764609D01*
X376079Y765733D01*
X377667Y767321D01*
X378791Y769267D01*
X379372Y771437D01*
Y773683D01*
X378791Y775853D01*
X377667Y777799D01*
X376079Y779387D01*
X374133Y780511D01*
X371963Y781092D01*
D02*
G37*
G36*
X681132Y687532D02*
X665068D01*
Y671468D01*
X681132D01*
Y687532D01*
D02*
G37*
G36*
X623357D02*
X621243D01*
X619200Y686985D01*
X617368Y685927D01*
X615873Y684432D01*
X614815Y682600D01*
X614268Y680557D01*
Y678443D01*
X614815Y676400D01*
X615873Y674568D01*
X617368Y673073D01*
X619200Y672015D01*
X621243Y671468D01*
X623357D01*
X625400Y672015D01*
X627232Y673073D01*
X628727Y674568D01*
X629785Y676400D01*
X630332Y678443D01*
Y680557D01*
X629785Y682600D01*
X628727Y684432D01*
X627232Y685927D01*
X625400Y686985D01*
X623357Y687532D01*
D02*
G37*
G36*
X541038Y682882D02*
X538462D01*
X535974Y682215D01*
X533744Y680928D01*
X531922Y679106D01*
X530635Y676876D01*
X529968Y674388D01*
Y671812D01*
X530635Y669324D01*
X531922Y667094D01*
X533744Y665273D01*
X535974Y663985D01*
X538462Y663318D01*
X541038D01*
X543526Y663985D01*
X545756Y665273D01*
X547578Y667094D01*
X548865Y669324D01*
X549532Y671812D01*
Y674388D01*
X548865Y676876D01*
X547578Y679106D01*
X545756Y680928D01*
X543526Y682215D01*
X541038Y682882D01*
D02*
G37*
G36*
X533400Y750000D02*
X440000D01*
Y659730D01*
X458470D01*
Y651510D01*
X473710D01*
Y659730D01*
Y683260D01*
X502693D01*
X504568Y682882D01*
X504568Y681228D01*
Y663318D01*
X524132D01*
Y681228D01*
X524132Y682882D01*
X526007Y683260D01*
X533400D01*
Y750000D01*
D02*
G37*
G36*
X679237Y615092D02*
X677123D01*
X675080Y614545D01*
X673248Y613487D01*
X671753Y611992D01*
X670695Y610160D01*
X670148Y608117D01*
Y606003D01*
X670695Y603960D01*
X671753Y602128D01*
X673248Y600633D01*
X675080Y599575D01*
X677123Y599028D01*
X679237D01*
X681280Y599575D01*
X683112Y600633D01*
X684607Y602128D01*
X685665Y603960D01*
X686212Y606003D01*
Y608117D01*
X685665Y610160D01*
X684607Y611992D01*
X683112Y613487D01*
X681280Y614545D01*
X679237Y615092D01*
D02*
G37*
G36*
X648757D02*
X646643D01*
X644600Y614545D01*
X642768Y613487D01*
X641273Y611992D01*
X640215Y610160D01*
X639668Y608117D01*
Y606003D01*
X640215Y603960D01*
X641273Y602128D01*
X642768Y600633D01*
X644600Y599575D01*
X646643Y599028D01*
X648757D01*
X650800Y599575D01*
X652632Y600633D01*
X654127Y602128D01*
X655185Y603960D01*
X655732Y606003D01*
Y608117D01*
X655185Y610160D01*
X654127Y611992D01*
X652632Y613487D01*
X650800Y614545D01*
X648757Y615092D01*
D02*
G37*
G36*
X707779Y614273D02*
X705664D01*
X703622Y613726D01*
X701790Y612668D01*
X700294Y611173D01*
X699237Y609341D01*
X698690Y607299D01*
Y605184D01*
X699237Y603141D01*
X700294Y601309D01*
X701790Y599814D01*
X703622Y598757D01*
X705664Y598209D01*
X707779D01*
X709822Y598757D01*
X711653Y599814D01*
X713149Y601309D01*
X714206Y603141D01*
X714754Y605184D01*
Y607299D01*
X714206Y609341D01*
X713149Y611173D01*
X711653Y612668D01*
X709822Y613726D01*
X707779Y614273D01*
D02*
G37*
G36*
X471170Y633336D02*
X468891Y632883D01*
X466958Y631592D01*
X465667Y629659D01*
X465214Y627380D01*
Y615877D01*
X454733Y605396D01*
X396240D01*
X393961Y604943D01*
X392028Y603652D01*
X363885Y575509D01*
X361783Y576072D01*
X359576D01*
X357445Y575501D01*
X355533Y574397D01*
X353973Y572837D01*
X352869Y570925D01*
X352298Y568793D01*
Y566586D01*
X352869Y564455D01*
X353973Y562543D01*
X354724Y561792D01*
Y553720D01*
X355177Y551441D01*
X356468Y549508D01*
X447908Y458068D01*
X449841Y456777D01*
X452120Y456324D01*
X501946D01*
X502788Y454291D01*
X501152Y452655D01*
X499403Y449627D01*
X498498Y446249D01*
Y442751D01*
X499403Y439373D01*
X501152Y436345D01*
X503625Y433872D01*
X506653Y432123D01*
X510031Y431218D01*
X513529D01*
X516907Y432123D01*
X519935Y433872D01*
X522408Y436345D01*
X524157Y439373D01*
X525062Y442751D01*
Y446249D01*
X524157Y449627D01*
X522408Y452655D01*
X520772Y454291D01*
X521614Y456324D01*
X765880D01*
X768159Y456777D01*
X770092Y458068D01*
X784539Y472515D01*
X785836Y471219D01*
X788355Y469764D01*
X791165Y469011D01*
X794075D01*
X796885Y469764D01*
X799404Y471219D01*
X801461Y473276D01*
X802916Y475795D01*
X803669Y478605D01*
Y481515D01*
X802916Y484325D01*
X801461Y486844D01*
X799404Y488901D01*
X796885Y490356D01*
X794075Y491109D01*
X791165D01*
X788355Y490356D01*
X785836Y488901D01*
X784115Y487180D01*
X782721Y486903D01*
X780788Y485612D01*
X763413Y468237D01*
X648303D01*
X647759Y470269D01*
X649404Y471219D01*
X651461Y473276D01*
X652916Y475795D01*
X653669Y478605D01*
Y481515D01*
X652916Y484325D01*
X651461Y486844D01*
X649404Y488901D01*
X646885Y490356D01*
X644075Y491109D01*
X641165D01*
X638355Y490356D01*
X635836Y488901D01*
X633779Y486844D01*
X632324Y484325D01*
X631571Y481515D01*
Y478605D01*
X632324Y475795D01*
X633779Y473276D01*
X635836Y471219D01*
X637481Y470269D01*
X636937Y468237D01*
X598303D01*
X597759Y470269D01*
X599404Y471219D01*
X601461Y473276D01*
X602916Y475795D01*
X603669Y478605D01*
Y481515D01*
X602916Y484325D01*
X601461Y486844D01*
X599404Y488901D01*
X596885Y490356D01*
X594075Y491109D01*
X591165D01*
X588355Y490356D01*
X585836Y488901D01*
X583779Y486844D01*
X582324Y484325D01*
X581571Y481515D01*
Y478605D01*
X582324Y475795D01*
X583779Y473276D01*
X585836Y471219D01*
X587481Y470269D01*
X586937Y468237D01*
X548303D01*
X547759Y470269D01*
X549404Y471219D01*
X551461Y473276D01*
X552916Y475795D01*
X553669Y478605D01*
Y481515D01*
X552916Y484325D01*
X551461Y486844D01*
X549404Y488901D01*
X546885Y490356D01*
X544075Y491109D01*
X541165D01*
X538355Y490356D01*
X535836Y488901D01*
X533779Y486844D01*
X532324Y484325D01*
X531571Y481515D01*
Y478605D01*
X532324Y475795D01*
X533779Y473276D01*
X535836Y471219D01*
X537481Y470269D01*
X536937Y468237D01*
X454587D01*
X366637Y556187D01*
Y561792D01*
X367387Y562543D01*
X367743Y563160D01*
X369674Y564450D01*
X398707Y593484D01*
X457200D01*
X459479Y593937D01*
X461412Y595228D01*
X475382Y609198D01*
X475382Y609198D01*
X476673Y611131D01*
X477127Y613410D01*
Y627380D01*
X476673Y629659D01*
X475382Y631592D01*
X473449Y632883D01*
X471170Y633336D01*
D02*
G37*
G36*
X707779Y583793D02*
X705664D01*
X703622Y583246D01*
X701790Y582188D01*
X700294Y580693D01*
X699237Y578861D01*
X698690Y576819D01*
Y574704D01*
X699237Y572661D01*
X700294Y570829D01*
X701790Y569334D01*
X703622Y568277D01*
X705664Y567729D01*
X707779D01*
X709822Y568277D01*
X711653Y569334D01*
X713149Y570829D01*
X714206Y572661D01*
X714754Y574704D01*
Y576819D01*
X714206Y578861D01*
X713149Y580693D01*
X711653Y582188D01*
X709822Y583246D01*
X707779Y583793D01*
D02*
G37*
G36*
X679839D02*
X677724D01*
X675682Y583246D01*
X673850Y582188D01*
X672355Y580693D01*
X671297Y578861D01*
X670750Y576819D01*
Y574704D01*
X671297Y572661D01*
X672355Y570829D01*
X673850Y569334D01*
X675682Y568277D01*
X677724Y567729D01*
X679839D01*
X681882Y568277D01*
X683713Y569334D01*
X685209Y570829D01*
X686266Y572661D01*
X686814Y574704D01*
Y576819D01*
X686266Y578861D01*
X685209Y580693D01*
X683713Y582188D01*
X681882Y583246D01*
X679839Y583793D01*
D02*
G37*
G36*
X649359D02*
X647244D01*
X645201Y583246D01*
X643370Y582188D01*
X641874Y580693D01*
X640817Y578861D01*
X640270Y576819D01*
Y574704D01*
X640817Y572661D01*
X641874Y570829D01*
X643370Y569334D01*
X645201Y568277D01*
X647244Y567729D01*
X649359D01*
X651402Y568277D01*
X653233Y569334D01*
X654729Y570829D01*
X655786Y572661D01*
X656334Y574704D01*
Y576819D01*
X655786Y578861D01*
X654729Y580693D01*
X653233Y582188D01*
X651402Y583246D01*
X649359Y583793D01*
D02*
G37*
G36*
X707779Y550773D02*
X705664D01*
X703622Y550226D01*
X701790Y549168D01*
X700294Y547673D01*
X699237Y545841D01*
X698690Y543799D01*
Y541684D01*
X699237Y539641D01*
X700294Y537809D01*
X701790Y536314D01*
X703622Y535257D01*
X705664Y534709D01*
X707779D01*
X709822Y535257D01*
X711653Y536314D01*
X713149Y537809D01*
X714206Y539641D01*
X714754Y541684D01*
Y543799D01*
X714206Y545841D01*
X713149Y547673D01*
X711653Y549168D01*
X709822Y550226D01*
X707779Y550773D01*
D02*
G37*
G36*
X679839D02*
X677724D01*
X675682Y550226D01*
X673850Y549168D01*
X672355Y547673D01*
X671297Y545841D01*
X670750Y543799D01*
Y541684D01*
X671297Y539641D01*
X672355Y537809D01*
X673850Y536314D01*
X675682Y535257D01*
X677724Y534709D01*
X679839D01*
X681882Y535257D01*
X683713Y536314D01*
X685209Y537809D01*
X686266Y539641D01*
X686814Y541684D01*
Y543799D01*
X686266Y545841D01*
X685209Y547673D01*
X683713Y549168D01*
X681882Y550226D01*
X679839Y550773D01*
D02*
G37*
G36*
X649359D02*
X647244D01*
X645201Y550226D01*
X643370Y549168D01*
X641874Y547673D01*
X640817Y545841D01*
X640270Y543799D01*
Y541684D01*
X640817Y539641D01*
X641874Y537809D01*
X643370Y536314D01*
X645201Y535257D01*
X647244Y534709D01*
X649359D01*
X651402Y535257D01*
X653233Y536314D01*
X654729Y537809D01*
X655786Y539641D01*
X656334Y541684D01*
Y543799D01*
X655786Y545841D01*
X654729Y547673D01*
X653233Y549168D01*
X651402Y550226D01*
X649359Y550773D01*
D02*
G37*
G36*
X794075Y416109D02*
X791165D01*
X788355Y415356D01*
X785836Y413901D01*
X783779Y411844D01*
X782324Y409325D01*
X781571Y406515D01*
Y403605D01*
X782324Y400795D01*
X783779Y398276D01*
X785836Y396219D01*
X788355Y394764D01*
X791165Y394011D01*
X794075D01*
X796885Y394764D01*
X799404Y396219D01*
X801461Y398276D01*
X802916Y400795D01*
X803669Y403605D01*
Y406515D01*
X802916Y409325D01*
X801461Y411844D01*
X799404Y413901D01*
X796885Y415356D01*
X794075Y416109D01*
D02*
G37*
G36*
X644075D02*
X641165D01*
X638355Y415356D01*
X635836Y413901D01*
X633779Y411844D01*
X632324Y409325D01*
X631571Y406515D01*
Y403605D01*
X632324Y400795D01*
X633779Y398276D01*
X635836Y396219D01*
X638355Y394764D01*
X641165Y394011D01*
X644075D01*
X646885Y394764D01*
X649404Y396219D01*
X651461Y398276D01*
X652916Y400795D01*
X653669Y403605D01*
Y406515D01*
X652916Y409325D01*
X651461Y411844D01*
X649404Y413901D01*
X646885Y415356D01*
X644075Y416109D01*
D02*
G37*
G36*
X594075D02*
X591165D01*
X588355Y415356D01*
X585836Y413901D01*
X583779Y411844D01*
X582324Y409325D01*
X581571Y406515D01*
Y403605D01*
X582324Y400795D01*
X583779Y398276D01*
X585836Y396219D01*
X588355Y394764D01*
X591165Y394011D01*
X594075D01*
X596885Y394764D01*
X599404Y396219D01*
X601461Y398276D01*
X602916Y400795D01*
X603669Y403605D01*
Y406515D01*
X602916Y409325D01*
X601461Y411844D01*
X599404Y413901D01*
X596885Y415356D01*
X594075Y416109D01*
D02*
G37*
G36*
X544075D02*
X541165D01*
X538355Y415356D01*
X535836Y413901D01*
X533779Y411844D01*
X532324Y409325D01*
X531571Y406515D01*
Y403605D01*
X532324Y400795D01*
X533779Y398276D01*
X535836Y396219D01*
X538355Y394764D01*
X541165Y394011D01*
X544075D01*
X546885Y394764D01*
X549404Y396219D01*
X551461Y398276D01*
X552916Y400795D01*
X553669Y403605D01*
Y406515D01*
X552916Y409325D01*
X551461Y411844D01*
X549404Y413901D01*
X546885Y415356D01*
X544075Y416109D01*
D02*
G37*
G36*
X475261Y384048D02*
X472159D01*
X469117Y383443D01*
X466250Y382256D01*
X463671Y380532D01*
X461478Y378339D01*
X459754Y375760D01*
X458567Y372893D01*
X457962Y369851D01*
Y366749D01*
X458567Y363707D01*
X459754Y360840D01*
X461478Y358261D01*
X463671Y356068D01*
X466250Y354344D01*
X469117Y353157D01*
X472159Y352552D01*
X475261D01*
X478303Y353157D01*
X481170Y354344D01*
X483749Y356068D01*
X485942Y358261D01*
X487666Y360840D01*
X488853Y363707D01*
X489458Y366749D01*
Y369851D01*
X488853Y372893D01*
X487666Y375760D01*
X485942Y378339D01*
X483749Y380532D01*
X481170Y382256D01*
X478303Y383443D01*
X475261Y384048D01*
D02*
G37*
G36*
X1081452Y321032D02*
X1078548D01*
X1075742Y320280D01*
X1073226Y318828D01*
X1071172Y316774D01*
X1069720Y314258D01*
X1068968Y311452D01*
Y308548D01*
X1069720Y305742D01*
X1071172Y303226D01*
X1073226Y301172D01*
X1075742Y299720D01*
X1078548Y298968D01*
X1081452D01*
X1084258Y299720D01*
X1086774Y301172D01*
X1088828Y303226D01*
X1090280Y305742D01*
X1091032Y308548D01*
Y311452D01*
X1090280Y314258D01*
X1088828Y316774D01*
X1086774Y318828D01*
X1084258Y320280D01*
X1081452Y321032D01*
D02*
G37*
G36*
X1031452D02*
X1028548D01*
X1025742Y320280D01*
X1023226Y318828D01*
X1021172Y316774D01*
X1019720Y314258D01*
X1018968Y311452D01*
Y308548D01*
X1019720Y305742D01*
X1021172Y303226D01*
X1023226Y301172D01*
X1025742Y299720D01*
X1028548Y298968D01*
X1031452D01*
X1034258Y299720D01*
X1036774Y301172D01*
X1038828Y303226D01*
X1040280Y305742D01*
X1041032Y308548D01*
Y311452D01*
X1040280Y314258D01*
X1038828Y316774D01*
X1036774Y318828D01*
X1034258Y320280D01*
X1031452Y321032D01*
D02*
G37*
G36*
X981452D02*
X978548D01*
X975742Y320280D01*
X973226Y318828D01*
X971172Y316774D01*
X969720Y314258D01*
X968968Y311452D01*
Y308548D01*
X969720Y305742D01*
X971172Y303226D01*
X973226Y301172D01*
X975742Y299720D01*
X978548Y298968D01*
X981452D01*
X984258Y299720D01*
X986774Y301172D01*
X988828Y303226D01*
X990280Y305742D01*
X991032Y308548D01*
Y311452D01*
X990280Y314258D01*
X988828Y316774D01*
X986774Y318828D01*
X984258Y320280D01*
X981452Y321032D01*
D02*
G37*
G36*
X931452D02*
X928548D01*
X925742Y320280D01*
X923226Y318828D01*
X921172Y316774D01*
X919720Y314258D01*
X918968Y311452D01*
Y308548D01*
X919720Y305742D01*
X921172Y303226D01*
X923226Y301172D01*
X925742Y299720D01*
X928548Y298968D01*
X931452D01*
X934258Y299720D01*
X936774Y301172D01*
X938828Y303226D01*
X940280Y305742D01*
X941032Y308548D01*
Y311452D01*
X940280Y314258D01*
X938828Y316774D01*
X936774Y318828D01*
X934258Y320280D01*
X931452Y321032D01*
D02*
G37*
G36*
X831452D02*
X828548D01*
X825742Y320280D01*
X823226Y318828D01*
X821172Y316774D01*
X819720Y314258D01*
X818968Y311452D01*
Y308548D01*
X819720Y305742D01*
X821172Y303226D01*
X823226Y301172D01*
X825742Y299720D01*
X828548Y298968D01*
X831452D01*
X834258Y299720D01*
X836774Y301172D01*
X838828Y303226D01*
X840280Y305742D01*
X841032Y308548D01*
Y311452D01*
X840280Y314258D01*
X838828Y316774D01*
X836774Y318828D01*
X834258Y320280D01*
X831452Y321032D01*
D02*
G37*
G36*
X791032D02*
X768968D01*
Y298968D01*
X791032D01*
Y321032D01*
D02*
G37*
%LPD*%
D44*
X370840Y772560D02*
D03*
D45*
Y822560D02*
D03*
D47*
X792620Y480060D02*
D03*
X642620D02*
D03*
X592620D02*
D03*
X542620D02*
D03*
Y405060D02*
D03*
X592620D02*
D03*
X642620D02*
D03*
X792620D02*
D03*
D56*
X647700Y679500D02*
D03*
X622300D02*
D03*
X706722Y606241D02*
D03*
Y575761D02*
D03*
Y542741D02*
D03*
X648302D02*
D03*
Y575761D02*
D03*
X647700Y607060D02*
D03*
X678180D02*
D03*
X678782Y542741D02*
D03*
Y575761D02*
D03*
D58*
X673100Y679500D02*
D03*
D64*
X471170Y613410D02*
Y627380D01*
X396240Y599440D02*
X457200D01*
X471170Y613410D01*
X365462Y568662D02*
X396240Y599440D01*
X360680Y553720D02*
X452120Y462280D01*
X765880D02*
X785000Y481400D01*
X452120Y462280D02*
X765880D01*
X360680Y553720D02*
Y567690D01*
X361652Y568662D02*
X365462D01*
X360680Y567690D02*
X361652Y568662D01*
D65*
X980000Y1155700D02*
D03*
X520700D02*
D03*
D66*
X780000Y310000D02*
D03*
D67*
X830000D02*
D03*
X880000D02*
D03*
X930000D02*
D03*
X980000D02*
D03*
X1030000D02*
D03*
X1080000D02*
D03*
X1130000D02*
D03*
D68*
X391160Y368300D02*
D03*
D69*
X473710D02*
D03*
D70*
X285780Y444500D02*
D03*
X511780D02*
D03*
D71*
X710000Y1100000D02*
D03*
D72*
X785000Y1060000D02*
D03*
D73*
X1200000Y1190000D02*
D03*
X300000Y290000D02*
D03*
X1200000D02*
D03*
X300000Y1190000D02*
D03*
D74*
X514350Y673100D02*
D03*
D75*
X539750D02*
D03*
D76*
X471170Y627380D02*
D03*
Y613410D02*
D03*
X516385Y613395D02*
D03*
Y622300D02*
D03*
X444500Y635000D02*
D03*
X435610Y628650D02*
D03*
X453390D02*
D03*
X515620Y595630D02*
D03*
Y604520D02*
D03*
X435610Y641350D02*
D03*
X453390D02*
D03*
X444500Y647700D02*
D03*
X453390Y654050D02*
D03*
X435610D02*
D03*
X576580Y591820D02*
D03*
X565150D02*
D03*
X528320Y613410D02*
D03*
Y622300D02*
D03*
X565150Y607060D02*
D03*
X576580D02*
D03*
Y624840D02*
D03*
X528320Y595630D02*
D03*
Y604520D02*
D03*
X565150Y624840D02*
D03*
X528320Y586740D02*
D03*
X515620D02*
D03*
X576580Y578556D02*
D03*
X565150D02*
D03*
X528320D02*
D03*
X515620D02*
D03*
D77*
X1010000Y1125700D02*
D03*
X947500D02*
D03*
X950000Y1185700D02*
D03*
X937500Y1155700D02*
D03*
X980000Y1113200D02*
D03*
X1022500Y1155700D02*
D03*
X980000Y1198200D02*
D03*
X1012500Y1185700D02*
D03*
X553200Y1185700D02*
D03*
X520700Y1198200D02*
D03*
X563200Y1155700D02*
D03*
X520700Y1113200D02*
D03*
X478200Y1155700D02*
D03*
X490700Y1185700D02*
D03*
X488200Y1125700D02*
D03*
X550700D02*
D03*
X703580Y320040D02*
D03*
X618490Y299720D02*
D03*
X395226Y568103D02*
D03*
X1132840Y436880D02*
D03*
X645160Y718820D02*
D03*
X624840D02*
D03*
X607060D02*
D03*
X586740D02*
D03*
X568960D02*
D03*
X548640D02*
D03*
X1033780Y840740D02*
D03*
X1051560D02*
D03*
X1069340D02*
D03*
X1089660D02*
D03*
X1107440D02*
D03*
X1125220D02*
D03*
X360680Y567690D02*
D03*
M02*
