G04*
G04 #@! TF.GenerationSoftware,Altium Limited,Altium Designer,25.6.2 (33)*
G04*
G04 Layer_Color=0*
%FSLAX44Y44*%
%MOMM*%
G71*
G04*
G04 #@! TF.SameCoordinates,7E2F0CEB-0BE2-4D8F-B7A8-C9BB9A8C5560*
G04*
G04*
G04 #@! TF.FilePolarity,Positive*
G04*
G01*
G75*
%ADD78C,0.0254*%
G36*
X904240Y894872D02*
X901777D01*
X896947Y895833D01*
X892396Y897718D01*
X888301Y900454D01*
X884818Y903937D01*
X882082Y908032D01*
X880197Y912583D01*
X879236Y917413D01*
Y922339D01*
X880197Y927169D01*
X882082Y931720D01*
X884818Y935815D01*
X888301Y939298D01*
X892396Y942034D01*
X896947Y943919D01*
X901777Y944880D01*
X904240D01*
D01*
X1132840Y944880D01*
X1135303D01*
X1140133Y943919D01*
X1144684Y942034D01*
X1148779Y939298D01*
X1152262Y935815D01*
X1154998Y931720D01*
X1156883Y927169D01*
X1157844Y922339D01*
Y919876D01*
Y917413D01*
X1156883Y912583D01*
X1154998Y908032D01*
X1152262Y903937D01*
X1148779Y900454D01*
X1144684Y897718D01*
X1140133Y895833D01*
X1135303Y894872D01*
X1132840D01*
D01*
X904240Y894872D01*
D02*
G37*
G36*
X454711Y894476D02*
X452248Y894471D01*
X447416Y895422D01*
X442861Y897298D01*
X438761Y900026D01*
X435271Y903502D01*
X432526Y907591D01*
X430632Y912138D01*
X429661Y916966D01*
X429651Y921892D01*
X430602Y926724D01*
X432478Y931279D01*
X435206Y935379D01*
X438681Y938869D01*
X442771Y941614D01*
X447318Y943508D01*
X452146Y944479D01*
X454609Y944484D01*
Y944484D01*
X716233Y945016D01*
X718699Y945022D01*
X723538Y944068D01*
X728097Y942188D01*
X732201Y939453D01*
X735692Y935969D01*
X738435Y931871D01*
X740324Y927315D01*
X741288Y922479D01*
Y920013D01*
Y917553D01*
X740330Y912729D01*
X738449Y908183D01*
X735720Y904091D01*
X732245Y900610D01*
X728159Y897872D01*
X723617Y895982D01*
X718794Y895014D01*
X716335Y895009D01*
X716335D01*
X454711Y894476D01*
D02*
G37*
G36*
X741796Y1046480D02*
Y1045492D01*
X742308Y1043584D01*
X743296Y1041872D01*
X744693Y1040475D01*
X746404Y1039488D01*
X748312Y1038976D01*
X750288D01*
X752196Y1039488D01*
X753907Y1040475D01*
X755304Y1041872D01*
X756292Y1043584D01*
X756804Y1045492D01*
Y1046480D01*
D01*
Y1206500D01*
Y1207488D01*
X756292Y1209396D01*
X755304Y1211107D01*
X753907Y1212505D01*
X752196Y1213492D01*
X750288Y1214004D01*
X748312D01*
X746404Y1213492D01*
X744693Y1212505D01*
X743296Y1211107D01*
X742308Y1209396D01*
X741796Y1207488D01*
Y1206500D01*
D01*
Y1046480D01*
D02*
G37*
D78*
X250000Y274142D02*
X250000Y1205858D01*
D02*
G02*
X284142Y1240000I34141J0D01*
G01*
X1215858Y1240000D01*
D02*
G02*
X1250000Y1205858I0J-34142D01*
G01*
Y274142D01*
D02*
G02*
X1215858Y240000I-34142J0D01*
G01*
X284142D01*
D02*
G02*
X250000Y274142I0J34142D01*
G01*
M02*
