M48
;Layer_Color=9474304
;FILE_FORMAT=4:4
METRIC,LZ
;TYPE=PLATED
T01F00S00C0.5000
T02F00S00C0.7112
T03F00S00C0.8500
T04F00S00C1.0160
T05F00S00C1.0700
T06F00S00C1.0900
T07F00S00C1.1000
T08F00S00C1.5000
T09F00S00C1.8288
T10F00S00C1.9050
T11F00S00C3.2000
;TYPE=NON_PLATED
T12F00S00C3.2000
%
T01
X0119126Y0045466
X011918Y00538923
X0125095Y0052959
X0127Y0058166
Y006096
X0119126Y0063881
Y0069469
Y0074803
X01264158Y0047117
X0117856Y0052578
X01088898Y00525526
X0109093Y005588
X01089406Y0061341
X0109347Y0065405
X0108204Y0070358
X01048004Y00690626
X0104902Y00599186
X01046988Y00511048
X0109474Y0047752
X011811Y0041148
X0117856Y0061849
X0094615Y0063627
X00948182Y00598678
X0094742Y0058166
X00949198Y00509778
X00965454Y00703072
X0098171Y0074803
X00978154Y0079248
X003937Y0080264
X0050292Y0093472
X004953Y0104394
X0049784Y0108585
Y0117602
X0068072Y011557
X0070358Y0116586
X0072898Y0107696
X0066294Y0106934
X0063754
Y0087376
X006096Y0084328
X0068707
X0069088Y0080772
X007112
X0073152
X0077724Y0084328
X00745236Y00907034
X008001Y0080264
X0087376Y0080772
X0086868Y0084328
X009271Y008509
X00949401Y0088182
X0108204Y0088392
X0116078Y0089154
X0112268Y0092964
X0108712Y0096647
X0105156Y0100203
X0101727Y0103632
X0096647Y010541
X0090424
X009017Y0107696
X0084074
X01080516Y00795274
X0119126Y0080264
Y008509
T02
X0079756Y00641604
Y00658876
X0079629Y0075692
X009271Y0069596
Y0067818
X01052577Y00637049
X0105283Y0061722
X0077089Y0075692
X0059309
X0056642
X0050927Y0079121
X0048387
X0059436Y006223
Y0060198
X0039116Y0075692
X0036322
X0048387Y0081026
X0050927
X00597641Y00802473
T03
X0081788Y0072644
X0084328
X0079248
X0064008
X0061468
X0058928
X0043688
X0041148
X0038608
T04
X0114808Y00423418
T05
X0044704Y008382
Y008636
X0047244
Y00889
X0044704
X0047244Y008382
X0100275Y0089626
X0102815
Y0092166
X0100275
Y0094706
X0102815
T06
X00381Y0093362
Y0096132
Y0098902
Y0101672
Y0104442
Y0107212
Y0109982
X004094Y0108597
Y0105827
Y0103057
Y0100287
Y0097517
Y0094747
Y0091977
Y0111367
T07
X0059Y0034
Y003654
X0062992Y0036576
Y0034036
X0065532
X0068072
X0070612
Y0036576
X0068072
X0065532
X0073152
Y0034036
X0075692
X0078232
Y0036576
X0075692
X0080772
X0083312
Y0034036
X0080772
X0085852
X0088392
X0090932
Y0036576
X0088392
X0085852
X0093472
X0096012
Y0034036
X0093472
X0098552
X0101092
Y0036576
X0098552
X0103632
Y0034036
X0106172
Y0036576
X0077415Y0099786
Y0102326
X0074875
X0072335
X0069795
Y0099786
X0067255
Y0102326
X0064715
X0062175
Y0099786
X0064715
X0072335
X0074875
X0079955
X0082495
Y0102326
X0079955
X0085035
X0087575
X0090115
Y0099786
X0087575
X0085035
X0092655
Y0102326
X0095195
Y0099786
T08
X0086835Y0046895
Y0068735
X0076675
X0066515
X0056355
X0046195
Y0046895
X0056355
X0066515
X0076675
X0036035
Y0068735
T09
X004318Y0042545
X0051435
T10
X0110998Y0034544
X0118618
T11
X003952Y0085022
Y0118322
T12
X0035Y0035
X0125
Y0125
X0035
M30
