M48
;Layer_Color=9474304
;FILE_FORMAT=4:4
METRIC,LZ
;TYPE=PLATED
T01F00S00C0.4000
T02F00S00C0.6000
T03F00S00C0.7000
T04F00S00C0.7112
T05F00S00C0.8000
T06F00S00C1.0100
T07F00S00C1.0200
T08F00S00C1.2000
T09F00S00C1.2954
T10F00S00C1.5000
T11F00S00C1.8288
T12F00S00C5.5000
;TYPE=NON_PLATED
T13F00S00C3.2000
%
T01
X0043561Y0062865
Y0064135
Y0065405
X004445Y006477
Y00635
X0045339Y0062865
Y0064135
Y0065405
X0047117Y0062738
Y0061341
X00516385Y00613395
Y006223
X0052832
Y0061341
Y0060452
Y0059563
Y0058674
Y00578556
X0051562
Y0058674
Y0059563
Y0060452
X0056515Y0060706
X0057658
Y0059182
X0056515
Y00578556
X0057658
Y0062484
X0056515
T02
X00648302Y00542741
X00678782
X00706722
Y00575761
X00678782
X00648302
X006477Y0060706
X0067818
X00706722Y00606241
T03
X006223Y006795
X006477
X006731
T04
X0061849Y0029972
X0070358Y0032004
X0113284Y0043688
X0064516Y0071882
X0062484
X0060706
X0058674
X0056896
X0054864
X00395226Y00568103
X0036068Y0056769
X004882Y011257
X004782Y011557
X004907Y011857
X005532
X005632Y011557
X005507Y011257
X005207Y011132
X009475Y011257
X009375Y011557
X0095Y011857
X010125
X010225Y011557
X0101Y011257
X0098Y011132
X0103378Y0084074
X0105156
X0106934
X0108966
X0110744
X0112522
X0098Y011982
X005207Y011982
T05
X0037084Y0077256
Y0082256
T06
X0071Y011
X00785Y0106
T07
X0051435Y006731
X0053975
T08
X0078Y0031
X0083
X0088
X0093
X0098
X0103
X0108
X0113
T09
X0054262Y0040506
X0059262
X0064262
Y0048006
X0059262
X0054262
X0079262
Y0040506
T10
X0051178Y004445
X0028578
T11
X0039116Y003683
X0047371
T12
X005207Y011557
X0098
T13
X003Y0029
X012
X003Y0119
X012
M30
